<?xml version="1.0" encoding="utf-8"?>
<!-- Generator: Adobe Illustrator 17.0.0, SVG Export Plug-In . SVG Version: 6.00 Build 0)  -->
<!DOCTYPE svg PUBLIC "-//W3C//DTD SVG 1.1//EN" "http://www.w3.org/Graphics/SVG/1.1/DTD/svg11.dtd">
<svg version="1.1" id="Layer_1" xmlns="http://www.w3.org/2000/svg" xmlns:xlink="http://www.w3.org/1999/xlink" x="0px" y="0px"
	 width="196.675px" height="364.622px" viewBox="0 0 196.675 364.622" enable-background="new 0 0 196.675 364.622"
	 xml:space="preserve">
<g>
	<radialGradient id="SVGID_1_" cx="130.2524" cy="287.5075" r="88.2673" gradientUnits="userSpaceOnUse">
		<stop  offset="0" style="stop-color:#78A7A7"/>
		<stop  offset="1" style="stop-color:#4E6267"/>
	</radialGradient>
	<path fill="url(#SVGID_1_)" d="M55.301,285.424c0,0,28.536-4.453,40.701-5.917c9-1.083,12.25,0,27.333,13.25
		c15.083,13.25,31.426,44.25,24.671,51s-69.574,21.25-87.789,19.75s-35.215-41-29.215-48.25s19.75-22.25,19.75-22.25L55.301,285.424
		z"/>
	<path fill="#384D52" d="M55.286,285.326c6.441-1.122,12.88-2.259,19.334-3.307c6.457-1.033,12.909-2.084,19.396-2.978
		c1.635-0.212,3.233-0.446,4.923-0.552c1.672-0.099,3.395-0.052,5.081,0.303c1.682,0.353,3.308,0.968,4.786,1.773
		c1.497,0.782,2.899,1.693,4.251,2.65c2.702,1.922,5.25,4.003,7.737,6.14c1.247,1.07,2.48,2.133,3.715,3.23
		c1.243,1.12,2.412,2.288,3.55,3.492c4.526,4.835,8.385,10.213,11.839,15.814c3.418,5.622,6.464,11.501,8.598,17.781
		c1.012,3.146,1.909,6.404,1.776,9.868c-0.05,0.863-0.173,1.742-0.475,2.603c-0.289,0.852-0.794,1.714-1.508,2.33
		c-0.686,0.607-1.441,1.052-2.172,1.458c-0.74,0.408-1.492,0.769-2.25,1.109c-3.032,1.353-6.136,2.434-9.256,3.457
		c-3.122,1.016-6.266,1.946-9.422,2.827c-12.631,3.497-25.418,6.368-38.331,8.625c-6.462,1.102-12.953,2.076-19.542,2.522
		c-1.649,0.104-3.305,0.169-4.977,0.148c-1.657-0.016-3.419-0.127-5.112-0.619c-3.365-0.958-6.286-2.867-8.837-5.046
		c-2.563-2.19-4.784-4.709-6.771-7.373c-1.99-2.665-3.76-5.477-5.346-8.384c-1.593-2.904-2.962-5.926-4.14-9.021
		c-1.169-3.098-2.149-6.28-2.735-9.576c-0.284-1.649-0.48-3.327-0.422-5.048c0.032-0.86,0.127-1.732,0.363-2.605
		c0.114-0.436,0.283-0.871,0.492-1.295c0.206-0.402,0.554-0.873,0.803-1.143c2.122-2.492,4.329-4.924,6.524-7.345
		c4.404-4.839,8.853-9.63,13.38-14.351l-0.035,0.046l4.735-7.526L55.286,285.326z M55.364,285.517l-4.364,7.638l-0.011,0.019
		l-0.024,0.027c-4.293,4.928-8.609,9.837-12.866,14.791c-2.129,2.481-4.228,4.968-6.294,7.494c-0.965,1.039-1.168,2.565-1.215,4.108
		c-0.026,1.549,0.183,3.134,0.482,4.697c1.275,6.273,3.886,12.29,6.974,17.932c3.134,5.617,6.941,10.947,11.715,15.137
		c2.389,2.062,5.086,3.808,8.029,4.653c1.451,0.434,2.982,0.553,4.587,0.581c1.596,0.033,3.209-0.016,4.822-0.105
		c6.461-0.384,12.927-1.297,19.357-2.34c6.431-1.06,12.837-2.308,19.211-3.693c6.373-1.39,12.722-2.905,19.01-4.628
		c3.143-0.863,6.273-1.773,9.371-2.766c3.094-0.998,6.176-2.059,9.121-3.358c1.446-0.653,2.952-1.372,4.052-2.298
		c1.046-0.898,1.455-2.413,1.521-3.939c0.101-3.1-0.769-6.273-1.784-9.308c-2.128-6.091-5.181-11.873-8.597-17.378
		c-3.439-5.498-7.34-10.723-11.74-15.446c-1.103-1.173-2.246-2.32-3.428-3.391c-1.206-1.076-2.446-2.151-3.676-3.213
		c-2.474-2.117-4.964-4.21-7.558-6.122c-1.299-0.95-2.632-1.843-4.022-2.595c-1.38-0.779-2.839-1.349-4.347-1.691
		c-3.022-0.7-6.265-0.252-9.495,0.125c-6.479,0.774-12.962,1.617-19.438,2.491L55.364,285.517z"/>
</g>
<linearGradient id="SVGID_2_" gradientUnits="userSpaceOnUse" x1="92.6819" y1="105.3255" x2="91.0569" y2="142.9505">
	<stop  offset="0" style="stop-color:#E9A89F"/>
	<stop  offset="1" style="stop-color:#AB616B"/>
</linearGradient>
<polygon fill="url(#SVGID_2_)" points="102.371,96.757 106.803,127.382 92.862,133.883 76.752,125.132 86.631,97.132 "/>
<g>
	<radialGradient id="SVGID_3_" cx="75.6691" cy="6.5908" r="28.7658" gradientUnits="userSpaceOnUse">
		<stop  offset="0" style="stop-color:#DBEBC3"/>
		<stop  offset="1" style="stop-color:#B4DDC2"/>
	</radialGradient>
	<path fill="url(#SVGID_3_)" d="M67.377,19.413l0.001-0.028c1.505,0.886,3.252,1.403,5.124,1.403
		c5.592,0,10.125-4.533,10.125-10.125S78.094,0.538,72.502,0.538S62.377,5.071,62.377,10.663c0,2.215,0.72,4.258,1.926,5.924
		c-3.123,3.888-7.199,10.35-5.676,16.201c2.375,9.125,5.375,9.125,5.375,9.125l12.875-12.625c0,0-12.75,4.375-13.5-0.625
		S67.377,19.413,67.377,19.413z"/>
	<path fill="#749772" d="M67.371,19.286c0.003,0,0.004-0.003,0.007-0.003c0.018,0,0.037,0.006,0.051,0.014
		c1.064,0.609,2.236,1.022,3.442,1.208c0.6,0.089,1.219,0.137,1.816,0.104c0.307-0.023,0.621-0.03,0.923-0.066l0.891-0.148
		c2.377-0.518,4.523-1.943,5.92-3.903c0.702-0.977,1.22-2.081,1.522-3.239c0.16-0.577,0.242-1.173,0.293-1.767
		c0.008-0.292,0.029-0.613,0.027-0.88L82.206,9.68c-0.135-1.155-0.488-2.328-1.037-3.375c-0.547-1.052-1.289-2-2.172-2.783
		c-1.765-1.572-4.103-2.459-6.452-2.444c-1.221,0.016-2.318,0.233-3.426,0.66c-1.086,0.424-2.091,1.05-2.951,1.834
		c-1.725,1.563-2.843,3.767-3.06,6.071c-0.102,1.153-0.024,2.321,0.293,3.427c0.304,1.11,0.823,2.156,1.503,3.081
		c0.199,0.272,0.185,0.635-0.013,0.888l-0.01,0.012c-1.449,1.854-2.768,3.814-3.791,5.901c-0.259,0.52-0.493,1.05-0.707,1.585
		c-0.218,0.534-0.405,1.076-0.571,1.624c-0.151,0.548-0.314,1.098-0.396,1.654c-0.116,0.554-0.155,1.111-0.205,1.667
		c0,0.554-0.018,1.108,0.062,1.651c0.031,0.55,0.189,1.073,0.31,1.602c0.173,0.567,0.328,1.168,0.517,1.707
		c0.187,0.543,0.362,1.088,0.586,1.621c0.2,0.544,0.45,1.055,0.682,1.575c0.257,0.502,0.523,0.994,0.82,1.453
		c0.306,0.442,0.625,0.881,0.985,1.208c0.175,0.171,0.36,0.312,0.535,0.421c0.086,0.054,0.174,0.097,0.246,0.125
		c0.034,0.011,0.076,0.032,0.094,0.032c0.006,0.009,0.09,0.009-0.046,0.004l-0.722,0.295c2.13-2.12,4.304-4.195,6.455-6.295
		c2.158-2.092,4.355-4.143,6.531-6.217l0.894,1.448c-1.047,0.33-2.069,0.599-3.117,0.845c-1.045,0.24-2.1,0.449-3.171,0.597
		c-1.072,0.142-2.16,0.221-3.269,0.179c-0.554-0.022-1.114-0.073-1.678-0.198c-0.56-0.125-1.134-0.295-1.666-0.635
		c-0.53-0.327-1.003-0.851-1.222-1.464c-0.112-0.3-0.181-0.617-0.192-0.923c-0.012-0.265-0.035-0.52-0.038-0.794l0.054-0.865
		c0.033-0.281,0.098-0.549,0.147-0.822c0.129-0.537,0.289-1.065,0.505-1.567c0.205-0.505,0.448-0.992,0.725-1.455
		c0.266-0.469,0.57-0.914,0.892-1.341c0.639-0.86,1.369-1.638,2.181-2.332L67.371,19.286z M67.444,19.487
		c-0.72,0.75-1.348,1.595-1.902,2.467c-0.277,0.437-0.533,0.887-0.749,1.353c-0.227,0.46-0.418,0.937-0.569,1.42
		c-0.162,0.481-0.268,0.976-0.345,1.468l-0.077,0.739l-0.007,0.712c0.016,0.252,0.056,0.52,0.083,0.779
		c0.019,0.218,0.083,0.423,0.163,0.606c0.161,0.371,0.446,0.655,0.82,0.861c0.37,0.211,0.831,0.325,1.299,0.399
		c0.47,0.077,0.964,0.095,1.462,0.085c0.996-0.017,2.009-0.156,3.015-0.338c1.009-0.173,2.014-0.407,3.011-0.672
		c0.992-0.267,1.997-0.57,2.947-0.905c0.454-0.16,0.951,0.078,1.111,0.532c0.114,0.325,0.025,0.672-0.202,0.902l-0.015,0.014
		c-2.116,2.135-4.21,4.292-6.344,6.408c-2.142,2.109-4.259,4.242-6.42,6.33l-0.04,0.039c-0.189,0.182-0.439,0.267-0.682,0.256
		c-0.286-0.014-0.349-0.045-0.487-0.078c-0.128-0.031-0.224-0.074-0.33-0.114c-0.205-0.084-0.384-0.181-0.551-0.286
		c-0.332-0.21-0.618-0.446-0.869-0.694c-0.519-0.493-0.899-1.038-1.266-1.585c-0.348-0.552-0.644-1.118-0.924-1.688
		c-0.253-0.575-0.511-1.151-0.713-1.737c-0.226-0.578-0.406-1.178-0.594-1.773c-0.191-0.598-0.321-1.163-0.484-1.745
		c-0.137-0.636-0.303-1.28-0.329-1.929c-0.076-0.649-0.045-1.295-0.026-1.939c0.069-0.637,0.132-1.275,0.275-1.893
		c0.11-0.627,0.302-1.228,0.483-1.828c0.195-0.596,0.413-1.182,0.661-1.752c0.245-0.571,0.509-1.133,0.796-1.679
		c1.137-2.195,2.544-4.209,4.08-6.101l-0.023,0.9c-0.766-1.083-1.342-2.302-1.669-3.587c-0.341-1.285-0.407-2.627-0.265-3.936
		c0.296-2.63,1.617-5.108,3.592-6.832c0.985-0.865,2.127-1.547,3.354-2c1.204-0.454,2.582-0.681,3.837-0.667
		c2.61,0.027,5.184,1.065,7.069,2.839c1.901,1.766,3.105,4.208,3.329,6.803l0.036,0.928c-0.003,0.351-0.035,0.648-0.051,0.974
		c-0.069,0.635-0.175,1.269-0.359,1.881c-0.352,1.228-0.932,2.386-1.699,3.4c-1.527,2.035-3.815,3.466-6.296,3.943l-0.944,0.132
		c-0.312,0.029-0.619,0.028-0.929,0.044c-0.639,0.02-1.261-0.046-1.881-0.152c-1.236-0.222-2.426-0.676-3.496-1.323l0.151-0.084
		l-0.001,0.028c-0.001,0.026-0.011,0.05-0.028,0.067L67.444,19.487z"/>
</g>
<radialGradient id="SVGID_4_" cx="111.8798" cy="161.4545" r="39.4587" gradientUnits="userSpaceOnUse">
	<stop  offset="0" style="stop-color:#E6828E"/>
	<stop  offset="1" style="stop-color:#C46F7A"/>
</radialGradient>
<path fill="url(#SVGID_4_)" d="M148.007,182.144c0,0-9.533-5.606-12.519-12.606c-2.986-7,0-10.625,0-10.625l-18.361-36.291
	l-41.375,11.541v61.875l70.278,4.25L148.007,182.144z"/>
<g>
	<linearGradient id="SVGID_5_" gradientUnits="userSpaceOnUse" x1="116.1583" y1="190.6467" x2="86.5623" y2="154.2066">
		<stop  offset="0" style="stop-color:#E2507B"/>
		<stop  offset="1" style="stop-color:#A6445E"/>
	</linearGradient>
	<path fill="url(#SVGID_5_)" d="M128.627,181.663c0,0-1.716-12.393-13.75-21.375c-12.034-8.982-17.72-9.249-17.72-9.249
		l-16.78-7.781l0.625,7.781c0,0-5.125,20.07,0.625,27.659s35.875,18.215,40.875,14.09S128.627,181.663,128.627,181.663z"/>
	<path fill="#8D2443" d="M128.524,181.661c-0.345-1.872-0.94-3.702-1.65-5.47c-0.369-0.882-0.748-1.762-1.19-2.611
		c-0.409-0.865-0.911-1.681-1.38-2.513c-0.529-0.796-1.007-1.625-1.594-2.381l-0.849-1.153l-0.917-1.099
		c-0.588-0.752-1.285-1.41-1.932-2.108c-0.661-0.687-1.397-1.297-2.091-1.949c-0.733-0.609-1.493-1.185-2.236-1.778l-2.348-1.665
		c-0.798-0.525-1.577-1.076-2.39-1.58c-0.808-0.512-1.617-1.02-2.446-1.493c-0.818-0.493-1.663-0.936-2.504-1.384
		c-0.846-0.438-1.704-0.846-2.57-1.235c-0.872-0.37-1.748-0.734-2.643-1.02c-0.875-0.286-1.835-0.553-2.654-0.633l-0.121-0.012
		l-0.085-0.039l-16.839-7.654l0.978-0.681l0.684,7.776l0.01,0.113l-0.031,0.133c-0.796,3.431-1.373,6.964-1.694,10.482
		c-0.315,3.517-0.385,7.075,0.157,10.488c0.299,1.687,0.732,3.364,1.526,4.783c0.378,0.735,0.845,1.322,1.457,1.954
		c0.533,0.538,1.211,1.113,1.896,1.617c1.377,1.03,2.882,1.935,4.406,2.805c1.532,0.862,3.106,1.665,4.712,2.408
		c3.214,1.479,6.497,2.838,9.85,4c3.352,1.157,6.771,2.149,10.233,2.796c1.726,0.323,3.478,0.56,5.188,0.516
		c0.838-0.051,1.695-0.157,2.361-0.494l0.233-0.138c0.032-0.017,0.096-0.057,0.102-0.055l0.127-0.109l0.51-0.438
		c0.361-0.286,0.614-0.6,0.927-0.899c1.198-1.249,2.173-2.738,2.976-4.308C127.481,185.057,128.111,183.383,128.524,181.661z
		 M128.726,181.678c-0.26,1.791-0.773,3.534-1.481,5.207c-0.721,1.664-1.606,3.285-2.815,4.695c-0.316,0.337-0.624,0.73-0.953,1.017
		l-0.488,0.462l-0.122,0.115c-0.084,0.068-0.117,0.084-0.179,0.128l-0.334,0.223c-0.919,0.515-1.881,0.652-2.816,0.761
		c-1.871,0.139-3.701-0.028-5.505-0.274c-3.607-0.527-7.108-1.473-10.559-2.547c-3.443-1.099-6.844-2.345-10.136-3.864
		c-1.651-0.748-3.276-1.56-4.872-2.442c-1.598-0.879-3.153-1.853-4.634-2.983c-0.748-0.57-1.443-1.154-2.158-1.899
		c-0.627-0.655-1.278-1.493-1.706-2.361c-0.924-1.736-1.346-3.599-1.638-5.43c-0.51-3.683-0.354-7.345,0.035-10.945
		c0.197-1.802,0.465-3.592,0.782-5.371c0.319-1.783,0.681-3.54,1.13-5.315l-0.021,0.245l-0.566-7.786l-0.086-1.184l1.064,0.503
		l16.721,7.908l-0.205-0.05c1.096,0.124,1.992,0.415,2.938,0.731c0.933,0.315,1.829,0.703,2.72,1.098
		c0.884,0.41,1.751,0.85,2.604,1.312c0.846,0.473,1.696,0.941,2.515,1.457c0.831,0.497,1.64,1.028,2.446,1.562
		c0.811,0.526,1.592,1.102,2.389,1.65l2.323,1.719c0.747,0.62,1.508,1.223,2.241,1.857c0.694,0.678,1.429,1.314,2.087,2.026
		c0.645,0.724,1.337,1.405,1.92,2.181l0.908,1.134l0.837,1.187c0.578,0.777,1.047,1.627,1.565,2.443
		c0.457,0.852,0.947,1.687,1.344,2.569c0.429,0.866,0.794,1.762,1.148,2.66c0.683,1.806,1.246,3.66,1.558,5.572l0.002,0.014
		L128.726,181.678z"/>
</g>
<g>
	<radialGradient id="SVGID_6_" cx="184.6585" cy="158.6427" r="247.3999" gradientUnits="userSpaceOnUse">
		<stop  offset="0" style="stop-color:#DBEBC3"/>
		<stop  offset="1" style="stop-color:#B4DDC2"/>
	</radialGradient>
	<path fill="url(#SVGID_6_)" d="M132.792,248.766c0.103-0.241,10.26-24.155,11.737-28.422c1.513-4.369,5.847-9.628,6.03-9.85
		l0.124-0.149l0.192-0.026c0.032-0.005,0.81-0.11,1.979-0.11c2.636,0,7.407,0.55,9.737,4.228c2.05,3.238,3.125,5.15,3.636,6.111
		c1.75-2.492,8.15-10.464,18.379-10.464c0.753,0,1.521,0.044,2.284,0.129c8.298,0.93,9.375,3.977,9.278,5.71
		c-0.104,1.87-1.712,3.473-2.955,3.474h-0.001c-0.114,0-0.227-0.014-0.332-0.04c-0.638-0.159-1.256-0.485-1.911-0.83
		c-0.983-0.519-2-1.054-3.148-1.054c-0.643,0-1.271,0.166-1.919,0.508c-3.102,1.631-12.519,15.453-15.269,22.407
		c-2.225,5.626-3.812,9.074-8.229,9.074c-1.188,0-2.569-0.256-4.221-0.781c-5.063-1.61-8.567-2.298-11.721-2.298
		c-1.491,0-2.972,0.156-4.526,0.478c-4.73,0.979-8.452,2.546-8.489,2.562l-1.14,0.483L132.792,248.766z"/>
	<path fill="#749772" d="M184.608,210.584c0.723,0,1.465,0.04,2.228,0.126c12.885,1.444,8.493,8.186,6.378,8.186
		c-0.074,0-0.144-0.008-0.211-0.025c-1.512-0.378-3.119-1.898-5.181-1.899c-0.666,0-1.379,0.158-2.152,0.565
		c-3.167,1.667-12.667,15.5-15.5,22.667c-2.214,5.599-3.716,8.757-7.764,8.757c-1.133,0-2.465-0.247-4.069-0.757
		c-4.973-1.582-8.567-2.322-11.872-2.322c-1.569,0-3.072,0.166-4.628,0.488c-4.833,1-8.584,2.591-8.584,2.591
		s10.25-24.121,11.75-28.454s5.942-9.693,5.942-9.693s0.762-0.105,1.91-0.105c2.584,0,7.122,0.532,9.314,3.995
		c3.167,5,4,6.833,4,6.833S172.688,210.584,184.608,210.584 M184.608,209.584c-9.816,0-16.046,6.937-18.327,10.016
		c-0.61-1.099-1.631-2.848-3.267-5.43c-2.457-3.88-7.42-4.46-10.159-4.46c-1.202,0-2.013,0.11-2.046,0.114l-0.385,0.053
		l-0.248,0.299c-0.186,0.225-4.576,5.55-6.118,10.004c-1.472,4.252-11.623,28.149-11.726,28.39l-0.967,2.276l2.278-0.965
		c0.037-0.016,3.725-1.566,8.396-2.532c1.521-0.315,2.968-0.468,4.425-0.468c3.099,0,6.558,0.68,11.569,2.275
		c1.701,0.541,3.131,0.805,4.372,0.805c4.982,0,6.703-4.351,8.694-9.39c2.859-7.23,12.305-20.712,15.036-22.149
		c0.576-0.303,1.127-0.45,1.686-0.45c1.025,0,1.986,0.506,2.916,0.996c0.652,0.344,1.327,0.699,2.023,0.873
		c0.145,0.036,0.298,0.055,0.454,0.055c1.465,0,3.333-1.759,3.455-3.944c0.107-1.91-1.014-5.26-9.722-6.236
		C186.166,209.628,185.379,209.584,184.608,209.584L184.608,209.584z"/>
</g>
<radialGradient id="SVGID_7_" cx="84.9157" cy="290.2575" r="39.42" gradientUnits="userSpaceOnUse">
	<stop  offset="0" style="stop-color:#79A3A5;stop-opacity:0"/>
	<stop  offset="1" style="stop-color:#384D52"/>
</radialGradient>
<path fill="url(#SVGID_7_)" d="M118.336,289.758c0,0-12.167-2.333-31,1.5c-18.833,3.833-36,11-39,11s-4.507-1.623-4.507-1.623
	s4.826-6.063,11.34-10.293s54.333-7.417,54.333-7.417s2.833,1.833,5.833,4.333S118.336,289.758,118.336,289.758z"/>
<path fill="none" stroke="#000000" stroke-width="3" stroke-miterlimit="10" d="M84.836,226.704c0,0,10.833-15.167,27.5-14
	c16.667,1.167,23.333,24.5,13.833,34s-30.167,20.167-43.5,11.333S84.836,226.704,84.836,226.704z"/>
<linearGradient id="SVGID_8_" gradientUnits="userSpaceOnUse" x1="157.2405" y1="229.5522" x2="128.5738" y2="239.8856">
	<stop  offset="0" style="stop-color:#C9E4C2;stop-opacity:0"/>
	<stop  offset="1" style="stop-color:#889F8B"/>
</linearGradient>
<path fill="url(#SVGID_8_)" d="M133.252,248.962c0,0,11.274-20.835,13.432-26.075c2.158-5.24,4.261-12.072,4.261-12.072
	s-3.692,17.238,2.308,26.174c6,8.936,8.499,11.945,8.499,11.945s-4.396-1.224-7.464-1.906c-3.067-0.682-7.583-1.75-11.623-0.813
	C138.625,247.151,133.252,248.962,133.252,248.962z"/>
<g>
	<linearGradient id="SVGID_9_" gradientUnits="userSpaceOnUse" x1="86.3568" y1="139.0508" x2="104.7196" y2="139.0508">
		<stop  offset="0" style="stop-color:#E6E7E8"/>
		<stop  offset="1" style="stop-color:#FFFFFF"/>
	</linearGradient>
	<path fill="url(#SVGID_9_)" stroke="#B2B3B3" stroke-miterlimit="10" d="M101.554,127.545c0,0-6.385-4.547-10.218,2.306
		c-3.833,6.853-6,17.52-4.5,18.52s7.333,6.167,10.833,2.167s7.05-12.547,7.05-12.547s-2.346-3.272-2.727-6.422
		C101.612,128.417,101.554,127.545,101.554,127.545z"/>
	<linearGradient id="SVGID_10_" gradientUnits="userSpaceOnUse" x1="72.6812" y1="135.606" x2="92.3639" y2="135.606">
		<stop  offset="0" style="stop-color:#E6E7E8"/>
		<stop  offset="1" style="stop-color:#FFFFFF"/>
	</linearGradient>
	<path fill="url(#SVGID_10_)" stroke="#B2B3B3" stroke-miterlimit="10" d="M87.878,124.1c0,0-6.385-4.547-10.218,2.306
		s-6,17.52-4.5,18.52s7.333,6.167,10.833,2.167s7.05-12.547,7.05-12.547s1.643-2.977,1.263-6.127
		C91.926,125.267,87.878,124.1,87.878,124.1z"/>
	<linearGradient id="SVGID_11_" gradientUnits="userSpaceOnUse" x1="102.3715" y1="146.6455" x2="121.3358" y2="146.6455">
		<stop  offset="0" style="stop-color:#E6E7E8"/>
		<stop  offset="1" style="stop-color:#FFFFFF"/>
	</linearGradient>
	<path fill="url(#SVGID_11_)" stroke="#B2B3B3" stroke-miterlimit="10" d="M104.72,137.99c0,0-7.05,16.047,3.283,17.214
		c10.333,1.167,13.333-8.607,13.333-8.607s-10.954-4.658-12.604-5.669C107.082,139.916,104.72,137.99,104.72,137.99z"/>
	<linearGradient id="SVGID_12_" gradientUnits="userSpaceOnUse" x1="120.332" y1="154.2622" x2="141.2091" y2="154.2622">
		<stop  offset="0" style="stop-color:#E6E7E8"/>
		<stop  offset="1" style="stop-color:#FFFFFF"/>
	</linearGradient>
	<path fill="url(#SVGID_12_)" stroke="#B2B3B3" stroke-miterlimit="10" d="M122.211,146.226c0,0-6.598,14.645,4.93,15.978
		c11.528,1.333,14.068-11.951,14.068-11.951L122.211,146.226z"/>
	<linearGradient id="SVGID_13_" gradientUnits="userSpaceOnUse" x1="140.8705" y1="156.6792" x2="159.4821" y2="156.6792">
		<stop  offset="0" style="stop-color:#E6E7E8"/>
		<stop  offset="1" style="stop-color:#FFFFFF"/>
	</linearGradient>
	<path fill="url(#SVGID_13_)" stroke="#B2B3B3" stroke-miterlimit="10" d="M159.482,151.039c0,0-3.146,11.854-11.98,11.26
		s-6.293-9.094-6.293-9.094l0.627-2.166H159.482z"/>
	<linearGradient id="SVGID_14_" gradientUnits="userSpaceOnUse" x1="142.6649" y1="186.5139" x2="164.9239" y2="186.5139">
		<stop  offset="0" style="stop-color:#E6E7E8"/>
		<stop  offset="1" style="stop-color:#FFFFFF"/>
	</linearGradient>
	<path fill="url(#SVGID_14_)" stroke="#B2B3B3" stroke-miterlimit="10" d="M161.483,190.531c0,0,4.942-8.827,2.981-9.994
		c-1.961-1.167-9.128-3-13.461-0.833c-4.333,2.167-4.536,6.167-5.601,8.167c-1.065,2-2.736,6.459-2.736,6.459L161.483,190.531z"/>
	<linearGradient id="SVGID_15_" gradientUnits="userSpaceOnUse" x1="124.9469" y1="186.7744" x2="146.0302" y2="186.7744">
		<stop  offset="0" style="stop-color:#E6E7E8"/>
		<stop  offset="1" style="stop-color:#FFFFFF"/>
	</linearGradient>
	<path fill="url(#SVGID_15_)" stroke="#B2B3B3" stroke-miterlimit="10" d="M143.262,194.209c0,0,8.866-12.797-5.134-14.547
		s-13,4.125-13.125,5.25s0,8.258,0,8.258"/>
	<linearGradient id="SVGID_16_" gradientUnits="userSpaceOnUse" x1="105.7524" y1="183.1688" x2="125.8591" y2="183.1688">
		<stop  offset="0" style="stop-color:#E6E7E8"/>
		<stop  offset="1" style="stop-color:#FFFFFF"/>
	</linearGradient>
	<path fill="url(#SVGID_16_)" stroke="#B2B3B3" stroke-miterlimit="10" d="M124.947,192.038c0,0,4.556-13.905-6.694-17.64
		s-12.5,14.015-12.5,14.015s10.842,3.361,13.796,3.868C122.502,192.788,124.947,192.038,124.947,192.038z"/>
	<linearGradient id="SVGID_17_" gradientUnits="userSpaceOnUse" x1="91.4741" y1="179.3997" x2="106.8033" y2="179.3997">
		<stop  offset="0" style="stop-color:#E6E7E8"/>
		<stop  offset="1" style="stop-color:#FFFFFF"/>
	</linearGradient>
	<path fill="url(#SVGID_17_)" stroke="#B2B3B3" stroke-miterlimit="10" d="M105.817,187.753c0,0,4.185-14.966-4.69-16.716
		s-8.152,3.75-8.763,5s-0.89,7.573-0.89,7.573s7.311,3.357,9.754,4.143C103.671,188.539,105.817,187.753,105.817,187.753z"/>
	<linearGradient id="SVGID_18_" gradientUnits="userSpaceOnUse" x1="80.4007" y1="176.3563" x2="92.8622" y2="176.3563">
		<stop  offset="0" style="stop-color:#E6E7E8"/>
		<stop  offset="1" style="stop-color:#FFFFFF"/>
	</linearGradient>
	<path fill="url(#SVGID_18_)" stroke="#B2B3B3" stroke-miterlimit="10" d="M92.862,174.038c0,0-0.86-4.75-5.11-5.875
		s-7.352,0.728-7.352,0.728l0.852,11.897l8.75,4.125L92.862,174.038z"/>
</g>
<g>
	<radialGradient id="SVGID_19_" cx="163.8614" cy="24.3156" r="322.2218" gradientUnits="userSpaceOnUse">
		<stop  offset="0" style="stop-color:#DBEBC3"/>
		<stop  offset="1" style="stop-color:#B4DDC2"/>
	</radialGradient>
	<path fill="url(#SVGID_19_)" d="M47.693,297.903c-1.129,0-1.933-0.38-2.57-0.752c-0.369-0.215-0.606-0.574-0.667-1.011
		c-0.263-1.867,4.038-6.73,6.763-9.599c0.203-0.76,0.897-2.944,3.018-7.085c2.448-4.778,8.417-13.975,9.419-15.511
		c0.098-1.032,0.471-5.315,0.471-10.658c0-5.169-2.047-15.065-2.672-17.965c-0.895-0.188-2.979-1.033-8.287-4.849
		c-8.247-5.927-9.12-16.44-9.758-24.117l-0.03-0.361c-0.641-7.689-3.414-13.808-7.417-16.365c-1.269-0.812-2.375-1.188-3.479-1.188
		c-0.915,0-1.723,0.258-2.579,0.531c-0.869,0.277-1.768,0.564-2.779,0.564c-1.649,0-2.164-0.96-2.309-1.373
		c-0.624-1.777,1.314-4.688,5.184-7.783c2.839-2.271,7.532-4.979,13.767-4.979c2.836,0,5.728,0.573,8.595,1.704
		c6.847,2.702,12.7,11.359,15.32,15.755c0.178-1.954,0.439-5.038,0.821-9.902c1.07-13.612-2.053-29.867-4.333-41.736
		c-0.63-3.283-1.226-6.384-1.657-9.025c-0.537-3.286-1.81-8.511-3.284-14.563c-4.129-16.948-9.785-40.16-7.844-53.74
		c2.399-16.798,14.671-31.879,33.667-41.378c8.524-4.262,18.591-6.423,29.923-6.423c4.726,0,8.568,0.374,11.389,0.699
		c5.025,0.58,6.804,3.051,7.427,4.57c0.682-0.219,1.559-0.451,2.209-0.451c1.274,0,1.993,1.166,2.272,2.008
		c2.628,3.03,19.955,23.151,20.714,27.702c0.632,3.79-0.392,6.172-0.918,7.095l3.077,13.254c0.569,0.508,1.666,1.76,3.011,4.642
		c1.789,3.833,3.27,13.124,3.331,13.517c0.015,0.088,0.017,0.178,0.007,0.266l-2.434,21.897c1.294,0.918,4.439,3.484,4.439,6.743
		c0,3.373-2.785,6.993-3.557,7.932l-1.858,11.615c1.477,1.102,5.455,4.425,5.125,8.017c-0.202,2.2-1.906,4.002-5.066,5.356
		c-2.081,0.893-5.335,1.345-9.671,1.345c-0.001,0-0.002,0-0.003,0c-16.627-0.001-46.343-6.712-51.565-14.98
		c-2.516-3.984-2.515-11.009-2.514-17.803c0-4.714,0.001-9.589-0.865-13.091c-0.899-3.64-2.533-5.263-5.295-5.263
		c-0.414,0-0.859,0.037-1.325,0.111c-12.383,1.955-12.483,54.499-11.408,69.189c0.697,9.534,15.316,17.111,41.164,21.336
		c6.303,1.03,12.359,1.553,18.002,1.553c11.895,0,18.551-2.337,19.914-2.87l3.502-5.483c0.184-0.288,0.501-0.462,0.843-0.462h1.828
		c1.273,0,5.033,0.744,6.207,1.918l0.099,0.097c1.766,1.728,1.892,3.901-2.929,9.395c-4.862,5.54-14.585,9.114-17.107,9.974
		c-0.368,2.216-1.851,9.94-5.743,18.05c-3.029,6.311-8.516,16.699-12.146,23.573c-1.669,3.158-2.986,5.653-3.222,6.163
		c-0.685,1.482-4.287,7.916-5.12,9.4c0.274,1.939,1.587,11.319,1.587,13.306c0,2.208-4.38,3.285-8.666,3.81
		c0.194,0.239,0.414,0.499,0.659,0.771c1.247,1.386,2.188,5.951,2.363,6.853c0.079,0.404-0.098,0.815-0.445,1.036
		c-0.164,0.104-0.351,0.155-0.536,0.155c-0.208,0-0.415-0.064-0.591-0.193c-4.97-3.641-10.997-8.136-11.491-8.877
		c-0.204-0.306-0.256-0.683-0.146-1.062c0.431-1.485,4.491-4.136,5.918-4.944c-0.183-0.68-0.979-2.172-1.93-3.611
		c-1.098,0.138-4.126,0.557-11.852,1.8c-3.131,0.504-6.891,0.76-11.176,0.76c-6.628,0-12.688-0.62-14.461-0.819
		c-1.845,2.045-10.525,11.681-12.612,14.318c-0.316,0.398-0.599,0.765-0.864,1.108c-1.755,2.271-2.814,3.642-7.585,7.082
		C51.835,296.853,49.525,297.903,47.693,297.903z"/>
	<path fill="#749772" d="M114.978,17.095c4.886,0,8.869,0.415,11.275,0.692c6.5,0.75,6.875,4.875,6.875,4.875s1.875-0.75,2.875-0.75
		s1.375,1.5,1.375,1.5s19.875,22.875,20.625,27.375s-1,6.75-1,6.75l3.25,14c0,0,1.25,0.75,3,4.5s3.25,13.25,3.25,13.25l-2.5,22.5
		c0,0,4.5,2.75,4.5,6.25s-3.5,7.5-3.5,7.5l-2,12.5c0,0,11.25,7.5,0.75,12c-2.03,0.87-5.292,1.263-9.28,1.263
		c-16.638,0-45.88-6.85-50.72-14.513c-5.779-9.15,2.59-36.623-9.52-36.623c-0.463,0-0.956,0.04-1.48,0.123
		c-14.25,2.25-13,60-12.25,70.25s16,18,42,22.25c7.017,1.147,13.066,1.566,18.163,1.566c13.787,0,20.587-3.066,20.587-3.066
		l3.671-5.75h1.829c1.25,0,4.625,0.75,5.5,1.625s2.5,2-2.875,8.125s-17.25,9.875-17.25,9.875s-1.25,9-5.75,18.375
		s-14.625,28.125-15.375,29.75s-5.25,9.625-5.25,9.625s1.625,11.375,1.625,13.5s-9.5,3-9.5,3s0.625,1,1.75,2.25
		s2.125,6.375,2.125,6.375s-10.75-7.875-11.25-8.625s4.625-4.25,5.75-4.75s-2.25-5.375-2.25-5.375s-1.625,0.125-12.5,1.875
		c-3.461,0.557-7.337,0.747-11.017,0.747c-7.884,0-14.858-0.872-14.858-0.872s-10.625,11.75-13,14.75s-2.875,4.125-8.25,8
		c-3.315,2.39-5.299,3.116-6.684,3.116c-0.861,0-1.491-0.28-2.066-0.616c-1.5-0.875,6.5-9.25,6.5-9.25s0.375-2,3-7.125
		s9.5-15.625,9.5-15.625s0.5-4.75,0.5-11s-2.875-19-2.875-19s-0.04,0.089-0.274,0.089c-0.6,0-2.476-0.581-8.226-4.714
		c-8-5.75-8.75-16.25-9.375-23.75s-3.375-14.25-7.875-17.125c-1.592-1.017-2.887-1.346-4.018-1.346c-2.064,0-3.58,1.096-5.357,1.096
		c-2.75,0-1.5-3.375,3.5-7.375c3.364-2.691,7.859-4.76,13.142-4.76c2.569,0,5.326,0.49,8.228,1.635
		c8.87,3.5,16.255,17.875,16.255,17.875s-0.015,0.553,0.022,0.553c0.071,0,0.328-1.98,1.228-13.428c1.375-17.5-4-38.75-6-51
		s-13.75-49.625-11.125-68s16.875-32.5,33.125-40.625C95.737,18.295,106.665,17.095,114.978,17.095 M114.978,15.095
		c-11.488,0-21.705,2.196-30.37,6.528c-19.294,9.647-31.764,25.003-34.211,42.131c-1.967,13.771,3.714,37.091,7.863,54.118
		c1.469,6.031,2.738,11.239,3.268,14.487c0.433,2.655,1.03,5.763,1.662,9.053c2.269,11.813,5.377,27.99,4.318,41.468
		c-0.228,2.904-0.413,5.166-0.562,6.928c-3.109-4.722-8.281-11.289-14.216-13.631c-2.983-1.177-5.999-1.774-8.962-1.774
		c-6.524,0-11.427,2.827-14.391,5.198c-2.515,2.012-6.573,5.842-5.503,8.895c0.448,1.278,1.664,2.042,3.252,2.042
		c1.167,0,2.185-0.325,3.083-0.612c0.813-0.26,1.515-0.484,2.274-0.484c0.57,0,1.494,0.107,2.941,1.031
		c3.686,2.355,6.353,8.335,6.959,15.606l0.03,0.361c0.654,7.871,1.549,18.65,10.171,24.847c4.33,3.112,6.644,4.353,8.016,4.823
		c0.727,3.431,2.527,12.403,2.527,17.178c0,4.952-0.323,8.984-0.444,10.32c-1.321,2.029-6.96,10.754-9.336,15.394
		c-1.96,3.826-2.733,6.032-3.025,7.032c-7.226,7.634-6.958,9.527-6.857,10.247c0.104,0.736,0.524,1.368,1.154,1.735
		c0.709,0.414,1.699,0.888,3.074,0.888c2.081,0,4.503-1.077,7.854-3.493c4.889-3.525,5.982-4.939,7.792-7.282
		c0.263-0.341,0.543-0.703,0.857-1.099c1.961-2.477,9.84-11.24,12.227-13.888c2.253,0.243,7.843,0.768,14.062,0.768
		c4.338,0,8.152-0.26,11.335-0.772c6.575-1.058,9.736-1.517,11.195-1.714c0.494,0.786,0.929,1.563,1.197,2.133
		c-1.841,1.132-5.155,3.371-5.648,5.071c-0.191,0.657-0.091,1.348,0.274,1.895c0.226,0.339,0.696,1.045,11.732,9.129
		c0.351,0.257,0.766,0.387,1.182,0.387c0.372,0,0.744-0.103,1.072-0.311c0.695-0.441,1.049-1.263,0.891-2.072
		c-0.293-1.5-1.039-4.874-2.134-6.685c7.796-1.254,7.796-3.603,7.796-4.557c0-1.968-1.178-10.476-1.55-13.111
		c1.107-1.973,4.325-7.733,4.991-9.176c0.224-0.486,1.602-3.095,3.198-6.116c3.634-6.881,9.127-17.279,12.164-23.607
		c3.652-7.609,5.215-14.896,5.725-17.732c3.238-1.149,12.267-4.7,16.975-10.064c4.616-5.259,5.422-8.279,2.876-10.769l-0.09-0.089
		c-1.546-1.546-5.78-2.211-6.914-2.211h-1.829c-0.683,0-1.318,0.348-1.686,0.924l-3.323,5.204c-1.787,0.656-8.219,2.688-19.25,2.688
		c-5.59,0-11.592-0.518-17.84-1.539c-24.978-4.083-39.677-11.527-40.328-20.422c-0.413-5.642-0.834-22.306,0.498-37.808
		c2.259-26.288,7.794-29.962,10.069-30.321c0.414-0.065,0.807-0.098,1.168-0.098c1.668,0,3.346,0.545,4.324,4.503
		c0.836,3.384,0.836,8.197,0.835,12.851c-0.001,6.936-0.002,14.109,2.669,18.337c3.195,5.058,13.787,8.771,22.11,10.995
		c10.275,2.745,21.886,4.451,30.3,4.451c4.474,0,7.862-0.48,10.068-1.425c3.523-1.51,5.43-3.59,5.668-6.184
		c0.346-3.765-3.17-7.069-5.038-8.543l1.721-10.755c1.033-1.288,3.612-4.853,3.612-8.357c0-3.378-2.769-5.981-4.381-7.21
		l2.369-21.319c0.02-0.177,0.016-0.357-0.012-0.533c-0.063-0.399-1.565-9.824-3.413-13.784c-1.233-2.643-2.292-4.026-3.012-4.742
		l-2.922-12.588c0.624-1.24,1.459-3.716,0.844-7.403c-0.768-4.607-15.777-22.234-20.818-28.047
		c-0.492-1.313-1.589-2.499-3.155-2.499c-0.518,0-1.122,0.111-1.692,0.258c-0.98-1.709-3.13-3.827-7.829-4.37
		C123.635,15.472,119.755,15.095,114.978,15.095L114.978,15.095z"/>
</g>
<g>
	<path fill="#FFFFFF" d="M146.838,130.351c-0.32,0-0.64-0.009-0.962-0.029c-5.582-0.333-10.65-3.501-14.271-8.922
		c-3.592-5.378-5.331-12.339-4.898-19.603c0.87-14.621,10.297-26.074,21.46-26.074c0.32,0,0.64,0.009,0.962,0.029
		c5.582,0.333,10.65,3.501,14.271,8.922c3.592,5.378,5.331,12.339,4.898,19.603C167.428,118.898,158.001,130.351,146.838,130.351z"
		/>
	<path fill="#749772" d="M148.166,76.224c0.31,0,0.62,0.009,0.933,0.028c11.21,0.668,19.583,13.202,18.701,27.996
		c-0.857,14.381-10.146,25.604-20.961,25.604c-0.31,0-0.62-0.009-0.933-0.028c-11.21-0.668-19.583-13.202-18.701-27.996
		C128.062,87.447,137.351,76.225,148.166,76.224 M148.167,75.224v1V75.224h-0.002c-11.426,0.001-21.072,11.661-21.959,26.544
		c-0.913,15.32,7.897,28.353,19.64,29.053c0.333,0.02,0.662,0.03,0.993,0.03c11.426,0,21.072-11.66,21.959-26.544
		c0.913-15.32-7.897-28.353-19.64-29.053C148.826,75.234,148.497,75.224,148.167,75.224L148.167,75.224z"/>
</g>
<linearGradient id="SVGID_20_" gradientUnits="userSpaceOnUse" x1="129.8361" y1="102.5986" x2="161.8844" y2="102.5986">
	<stop  offset="0" style="stop-color:#C2D7CA"/>
	<stop  offset="1" style="stop-color:#759873"/>
</linearGradient>
<path fill="url(#SVGID_20_)" d="M161.559,104.928c-1.765,11.897-10.224,20.499-18.895,19.212
	c-8.67-1.286-14.268-11.973-12.503-23.87s10.224-20.499,18.895-19.212C157.726,82.344,163.324,93.031,161.559,104.928z"/>
<radialGradient id="SVGID_21_" cx="138.8774" cy="96.2575" r="17.0816" gradientUnits="userSpaceOnUse">
	<stop  offset="0" style="stop-color:#516D4B"/>
	<stop  offset="1" style="stop-color:#344C32"/>
</radialGradient>
<path fill="url(#SVGID_21_)" d="M157.226,104.519c-1.442,9.719-8.353,16.746-15.436,15.695s-11.656-9.781-10.214-19.5
	s8.353-16.746,15.436-15.695C154.095,86.069,158.668,94.8,157.226,104.519z"/>
<g>
	<path fill="#FFFFFF" d="M140.059,66.743c-0.257,0-0.514-0.007-0.771-0.023c-4.47-0.266-8.527-2.801-11.424-7.137
		c-2.868-4.293-4.257-9.849-3.911-15.645c0.696-11.676,8.233-20.822,17.16-20.822c0.256,0,0.513,0.007,0.771,0.023
		c4.471,0.267,8.527,2.801,11.424,7.138c2.868,4.293,4.257,9.849,3.911,15.645C156.522,57.597,148.985,66.743,140.059,66.743z"/>
	<path fill="#749772" d="M141.113,23.616c0.247,0,0.493,0.007,0.742,0.022c8.911,0.531,15.566,10.494,14.865,22.253
		c-0.681,11.431-8.064,20.352-16.661,20.352c-0.247,0-0.493-0.007-0.742-0.022c-8.911-0.531-15.566-10.494-14.865-22.253
		C125.133,32.537,132.516,23.617,141.113,23.616 M141.114,22.616h-0.001c-9.191,0.001-16.948,9.354-17.659,21.293
		c-0.352,5.904,1.067,11.569,3.995,15.952c2.986,4.47,7.179,7.083,11.809,7.359c0.268,0.016,0.535,0.024,0.801,0.024
		c9.191,0,16.948-9.353,17.659-21.293c0.733-12.291-6.357-22.748-15.804-23.311C141.646,22.624,141.38,22.616,141.114,22.616
		L141.114,22.616z"/>
</g>
<linearGradient id="SVGID_22_" gradientUnits="userSpaceOnUse" x1="126.5429" y1="44.5807" x2="152.0174" y2="44.5807">
	<stop  offset="0" style="stop-color:#C2D7CA"/>
	<stop  offset="1" style="stop-color:#759873"/>
</linearGradient>
<path fill="url(#SVGID_22_)" d="M151.759,46.432c-1.403,9.457-8.127,16.294-15.019,15.271s-11.342-9.517-9.939-18.974
	c1.403-9.457,8.127-16.294,15.019-15.271C148.712,28.48,153.162,36.975,151.759,46.432z"/>
<radialGradient id="SVGID_23_" cx="138.9151" cy="44.5945" r="12.3744" gradientUnits="userSpaceOnUse">
	<stop  offset="0" style="stop-color:#516D4B"/>
	<stop  offset="1" style="stop-color:#344C32"/>
</radialGradient>
<path fill="url(#SVGID_23_)" d="M149.109,46.107c-1.146,7.725-6.639,13.311-12.269,12.476c-5.63-0.835-9.265-7.775-8.119-15.5
	c1.146-7.725,6.639-13.311,12.269-12.476S150.255,38.382,149.109,46.107z"/>
<linearGradient id="SVGID_24_" gradientUnits="userSpaceOnUse" x1="173.2957" y1="209.7471" x2="164.5457" y2="233.4971">
	<stop  offset="0" style="stop-color:#F1F7E4"/>
	<stop  offset="1" style="stop-color:#C9E4C2;stop-opacity:0"/>
</linearGradient>
<path fill="url(#SVGID_24_)" d="M152.252,211.924c0,0,7.333,0.333,10,5c2.667,4.667,3.583,6.083,3.583,6.083
	s8.819-9.796,14.5-11.083c5.681-1.287,12,1.083,12,1.083s-7.5-1.583-12.25,0.583s-14.75,15.083-14.75,15.083s-3.833-11.75-8.25-14.5
	C152.669,211.424,152.252,211.924,152.252,211.924z"/>
<linearGradient id="SVGID_25_" gradientUnits="userSpaceOnUse" x1="112.8306" y1="12.3409" x2="70.6639" y2="71.6742">
	<stop  offset="0" style="stop-color:#F1F7E4"/>
	<stop  offset="1" style="stop-color:#C9E4C2;stop-opacity:0"/>
</linearGradient>
<path fill="url(#SVGID_25_)" d="M129.836,22.924c0,0-2.667-6.167-23.334-3.833s-30,12-39.167,21.667s-12.667,22.5-12.667,22.5
	s9.833-24.802,39.667-35.901s28.5,3.167,28.5,3.167s4.181-4.766,5.674-5.766c1.493-1,2.159-1.142,2.159-1.142L129.836,22.924z"/>
<radialGradient id="SVGID_26_" cx="74.2524" cy="6.2575" r="17.2056" gradientUnits="userSpaceOnUse">
	<stop  offset="0" style="stop-color:#F6F9E4"/>
	<stop  offset="1" style="stop-color:#C9E4C2;stop-opacity:0"/>
</radialGradient>
<ellipse fill="url(#SVGID_26_)" cx="73.065" cy="8.807" rx="6.063" ry="6.175"/>
<path fill="#749772" d="M166.786,126.582c0,0-2.381,1.755-4.861,3.351c-1.238,0.8-2.503,1.561-3.484,2.072
	c-0.978,0.52-1.671,0.765-1.671,0.765s0.641-0.36,1.503-1.029c0.868-0.662,1.97-1.613,3.04-2.6c2.145-1.97,4.156-4.065,4.156-4.065
	L166.786,126.582z"/>
<path fill="#749772" d="M165.122,137.489c0.017-0.087-0.046,0.358-0.196,0.604c-0.151,0.301-0.41,0.644-0.767,0.944
	c-0.356,0.31-0.803,0.601-1.321,0.846c-0.517,0.262-1.106,0.467-1.747,0.662c-1.284,0.381-2.783,0.636-4.384,0.8
	c-0.806,0.097-1.628,0.135-2.462,0.177c-0.851,0.034-1.707,0.042-2.556,0.027c-6.821-0.103-13.435-1.543-13.435-1.543
	s1.671,0.238,4.191,0.421c2.517,0.189,5.886,0.317,9.223,0.123c0.836-0.048,1.664-0.118,2.468-0.209
	c0.817-0.102,1.625-0.199,2.38-0.349c1.527-0.272,2.926-0.623,4.04-1.047c0.553-0.215,1.048-0.431,1.431-0.665
	c0.396-0.223,0.685-0.455,0.87-0.645c0.195-0.19,0.266-0.338,0.284-0.392c0.014-0.022,0.011-0.056-0.002,0.002
	c-0.014,0.085-0.006,0.03-0.006,0.03L165.122,137.489z"/>
<linearGradient id="SVGID_27_" gradientUnits="userSpaceOnUse" x1="164.6808" y1="141.4286" x2="149.6808" y2="154.0536">
	<stop  offset="0" style="stop-color:#F1F7E4"/>
	<stop  offset="1" style="stop-color:#C9E4C2;stop-opacity:0"/>
</linearGradient>
<path fill="url(#SVGID_27_)" d="M164.127,141.066c0,0,2.752,1.109,2.875,3.941c0.123,2.833-4.125,4.25-6.375,4.625s-14,0-14,0
	s17.984-0.506,18.296-4.2C165.237,141.739,164.127,141.066,164.127,141.066z"/>
<linearGradient id="SVGID_28_" gradientUnits="userSpaceOnUse" x1="159.7312" y1="69.4471" x2="151.9721" y2="75.9778">
	<stop  offset="0" style="stop-color:#F1F7E4"/>
	<stop  offset="1" style="stop-color:#C9E4C2;stop-opacity:0"/>
</linearGradient>
<path fill="url(#SVGID_28_)" d="M162.752,80.93c0,0-1.875-7.297-3.5-8.797s-3.375-13.467-3.375-13.467l0.893,13.717l1.721,5
	L162.752,80.93z"/>
<circle fill="#FFFFFF" cx="157.537" cy="106.639" r="6.965"/>
<circle fill="#FFFFFF" cx="148.007" cy="47.294" r="5.382"/>
<path fill="#749772" d="M105.703,114.627c0,0,0.079-0.766,0.106-2.114c0.027-1.345,0.008-3.276-0.284-5.561
	c-0.305-2.267-0.855-4.952-2.248-7.426c-0.694-1.229-1.673-2.343-2.892-3.134c-1.212-0.811-2.697-1.169-4.173-1.215l-0.557-0.009
	c-0.118-0.011-0.363,0.035-0.538,0.049l-1.147,0.132l-0.572,0.066c-0.183,0.036-0.352,0.099-0.528,0.146l-1.039,0.3
	c-0.351,0.073-0.675,0.248-1.002,0.402c-0.327,0.153-0.653,0.304-0.977,0.455c-0.611,0.367-1.201,0.763-1.762,1.169
	c-1.087,0.873-2.04,1.84-2.835,2.859c-0.396,0.51-0.79,1.003-1.101,1.531c-0.337,0.51-0.649,1.013-0.906,1.522
	c-0.276,0.498-0.533,0.98-0.749,1.455c-0.233,0.466-0.438,0.917-0.608,1.35c-0.365,0.857-0.634,1.627-0.855,2.26
	c-0.428,1.273-0.61,2.024-0.61,2.024l-0.099-0.016c0,0,0.068-0.776,0.37-2.102c0.145-0.664,0.348-1.468,0.658-2.365
	c0.14-0.455,0.312-0.93,0.514-1.425c0.182-0.503,0.405-1.02,0.674-1.543c0.242-0.537,0.541-1.072,0.868-1.619
	c0.3-0.563,0.687-1.098,1.08-1.653c0.777-1.119,1.812-2.141,2.961-3.101c0.612-0.43,1.258-0.846,1.926-1.229
	c0.354-0.156,0.71-0.313,1.068-0.47c0.359-0.155,0.71-0.329,1.11-0.404l1.168-0.294c0.195-0.045,0.391-0.105,0.584-0.136
	l0.574-0.048l1.15-0.097c0.209-0.01,0.346-0.045,0.614-0.036l0.6,0.027c1.589,0.086,3.212,0.521,4.516,1.439
	c1.311,0.895,2.325,2.122,3.02,3.424c1.402,2.624,1.854,5.37,2.091,7.671c0.219,2.318,0.175,4.256,0.104,5.606
	c-0.072,1.351-0.176,2.118-0.176,2.118L105.703,114.627z"/>
<path fill="#749772" d="M153.474,206.733c0,0-0.495,0.087-1.362,0.24c-0.863,0.141-2.095,0.322-3.581,0.487
	c-1.486,0.16-3.227,0.306-5.104,0.329c-0.944,0.022-1.906-0.033-2.897-0.108c-0.982-0.08-1.962-0.183-2.945-0.299
	c-3.924-0.468-7.813-1.082-10.729-1.554c-2.912-0.492-4.853-0.82-4.853-0.82s1.957,0.204,4.893,0.51
	c2.936,0.286,6.857,0.651,10.773,0.867c0.977,0.052,1.959,0.093,2.911,0.11c0.942,0.012,1.889,0.007,2.787-0.073
	c1.809-0.138,3.492-0.386,4.928-0.634c1.435-0.252,2.624-0.505,3.45-0.694c0.818-0.198,1.286-0.311,1.286-0.311L153.474,206.733z"/>
<linearGradient id="SVGID_29_" gradientUnits="userSpaceOnUse" x1="120.5038" y1="161.5444" x2="102.0038" y2="167.2944">
	<stop  offset="0" style="stop-color:#FFFFFF"/>
	<stop  offset="1" style="stop-color:#C04A6A;stop-opacity:0"/>
</linearGradient>
<path opacity="0.84" fill="url(#SVGID_29_)" d="M124.947,175.258c0,0-5.278-9.439-11.111-13.803
	c-5.833-4.364-14.697-8.364-14.697-8.364s11.364,7.333,14.03,12.667c2.667,5.333,2.667,5.333,2.667,5.333s4,0.066,5.5,1.283
	C122.836,173.591,124.947,175.258,124.947,175.258z"/>
<linearGradient id="SVGID_30_" gradientUnits="userSpaceOnUse" x1="91.2309" y1="155.3051" x2="58.3975" y2="152.9717">
	<stop  offset="0" style="stop-color:#C9E4C2;stop-opacity:0"/>
	<stop  offset="1" style="stop-color:#889F8B"/>
</linearGradient>
<path fill="url(#SVGID_30_)" d="M68.252,195.913l3.583,10.16c0,0,3-10.815,2.333-22.148c-0.667-11.333-6-39.803-7.833-48.318
	c-1.833-8.515-10.055-34.931-10.055-34.931s8.833,37.169,11.444,54.625s1.798,28.98,1.371,32.802
	C68.669,191.924,68.252,195.913,68.252,195.913z"/>
<linearGradient id="SVGID_31_" gradientUnits="userSpaceOnUse" x1="171.1844" y1="195.6952" x2="147.088" y2="193.9828">
	<stop  offset="0" style="stop-color:#F1F7E4"/>
	<stop  offset="1" style="stop-color:#C9E4C2;stop-opacity:0"/>
</linearGradient>
<path fill="url(#SVGID_31_)" d="M166.002,186.774c0,0,5.151-0.104,5,3.316c-0.151,3.421-6,8.393-10.333,10.197
	c-4.333,1.803-8.417,2.637-8.417,2.637s12.627-5.072,15.583-11.5C169.594,187.601,166.002,186.774,166.002,186.774z"/>
<linearGradient id="SVGID_32_" gradientUnits="userSpaceOnUse" x1="148.2837" y1="235.9439" x2="119.0956" y2="233.8696">
	<stop  offset="0" style="stop-color:#F1F7E4"/>
	<stop  offset="1" style="stop-color:#C9E4C2;stop-opacity:0"/>
</linearGradient>
<path fill="url(#SVGID_32_)" d="M136.669,209.091c0,0,5.889,0.167,9.361,0s3.472-0.167,3.472-0.167s-9.333,25.5-15.167,34.5
	c-5.833,9-10.167,17.912-10.167,17.912s17.158-34.579,18.496-41.912C144.002,212.091,136.669,209.091,136.669,209.091z"/>
<linearGradient id="SVGID_33_" gradientUnits="userSpaceOnUse" x1="62.9875" y1="183.8757" x2="34.7375" y2="209.2507">
	<stop  offset="0" style="stop-color:#F1F7E4"/>
	<stop  offset="1" style="stop-color:#C9E4C2;stop-opacity:0"/>
</linearGradient>
<path fill="url(#SVGID_33_)" d="M69.877,207.138c0,0-7.081-23.763-22.375-28.44c-11.25-3.44-19.75,7.816-19.75,7.816
	s10.906-11.258,23.875-1.601C64.597,194.569,69.877,207.138,69.877,207.138z"/>
<linearGradient id="SVGID_34_" gradientUnits="userSpaceOnUse" x1="76.6232" y1="269.0222" x2="52.4982" y2="265.2722">
	<stop  offset="0" style="stop-color:#C9E4C2;stop-opacity:0"/>
	<stop  offset="1" style="stop-color:#889F8B"/>
</linearGradient>
<path fill="url(#SVGID_34_)" d="M62.252,234.288c0,0,4.625,0.932,7.625,2.701c3,1.769,5,5.269,5,5.269s-7.375-3.625-7.375,5.5
	s1.062,17.5,1.062,17.5s-9.187,13-11.687,17.375s-3.375,6.125-3.375,6.125l-6.5,8.146c0,0-3.25-0.021,0-3.896
	c3.25-3.875,5.125-5.97,5.125-5.97s1.056-3.724,4.153-9.252c3.097-5.528,8.347-13.498,8.347-13.498s1.125-7.405,0-16.155
	S62.252,234.288,62.252,234.288z"/>
<radialGradient id="SVGID_35_" cx="124.0024" cy="348.5075" r="24.3734" gradientUnits="userSpaceOnUse">
	<stop  offset="0" style="stop-color:#4C646B"/>
	<stop  offset="1" style="stop-color:#384D52"/>
</radialGradient>
<path fill="url(#SVGID_35_)" d="M119.502,348.341c-8.833,2.333-32.167,7.167-18.833-7c13.333-14.167,38.833-12.167,37-4.5
	C135.836,344.508,119.502,348.341,119.502,348.341z"/>
<radialGradient id="SVGID_36_" cx="69.1691" cy="360.9242" r="30.2439" gradientUnits="userSpaceOnUse">
	<stop  offset="0" style="stop-color:#4C646B"/>
	<stop  offset="1" style="stop-color:#384D52"/>
</radialGradient>
<ellipse fill="url(#SVGID_36_)" cx="70.836" cy="337.758" rx="15.333" ry="10.833"/>
<radialGradient id="SVGID_37_" cx="104.6619" cy="320.0396" r="22.1969" gradientUnits="userSpaceOnUse">
	<stop  offset="0" style="stop-color:#4C646B"/>
	<stop  offset="1" style="stop-color:#384D52"/>
</radialGradient>
<ellipse fill="url(#SVGID_37_)" cx="106.002" cy="306.674" rx="12.333" ry="6.25"/>
<g>
	<radialGradient id="SVGID_38_" cx="38.0024" cy="262.7575" r="35.3553" gradientUnits="userSpaceOnUse">
		<stop  offset="0" style="stop-color:#78A7A7"/>
		<stop  offset="1" style="stop-color:#4E6267"/>
	</radialGradient>
	<path fill="url(#SVGID_38_)" d="M16.836,265.595c0,0,20.545,10.162,12.939,19.496c-7.606,9.333-28.939,14.667-29.273,4.333
		s2.333-20.667,7.333-22.333C12.836,265.424,16.836,265.595,16.836,265.595z"/>
	<path fill="#384D52" d="M17.082,265.103c0,0,1.37,0.665,3.614,2.056c1.122,0.695,2.451,1.599,3.906,2.731
		c1.447,1.139,3.041,2.505,4.502,4.282c0.725,0.889,1.422,1.881,1.957,3.024c0.534,1.136,0.87,2.461,0.779,3.828
		c-0.083,1.367-0.638,2.71-1.48,3.821c-0.84,1.112-1.843,2.072-2.93,2.994c-2.189,1.801-4.721,3.287-7.418,4.486
		c-2.696,1.193-5.537,2.232-8.519,2.74c-1.487,0.256-3.006,0.393-4.532,0.308c-1.518-0.087-3.068-0.442-4.418-1.277
		c-1.341-0.842-2.279-2.366-2.434-3.902c-0.109-0.786-0.082-1.492-0.104-2.202c-0.023-0.707,0.015-1.432,0.02-2.139
		c0.079-2.828,0.398-5.553,0.935-8.099c0.543-2.542,1.298-4.916,2.387-6.96c0.579-1.002,1.187-1.956,1.994-2.701
		c0.363-0.406,0.834-0.692,1.259-0.999c0.463-0.228,0.966-0.492,1.4-0.607c1.754-0.57,3.351-0.905,4.661-1.112
		c1.315-0.207,2.362-0.281,3.078-0.315c0.361-0.008,0.638-0.014,0.824-0.018l0.402,0.006L17.082,265.103z M16.695,266.143
		c-0.038-0.001-0.081-0.001-0.137-0.003c-0.175,0.003-0.435,0.007-0.775,0.013c-0.682,0.029-1.689,0.095-2.958,0.287
		c-1.272,0.195-2.794,0.504-4.508,1.051c-1.64,0.417-3.024,1.909-4.074,3.792c-1.031,1.91-1.782,4.201-2.311,6.675
		c-0.532,2.477-0.838,5.153-0.94,7.923c-0.01,0.693-0.054,1.38-0.037,2.095c0.014,0.712-0.011,1.442,0.077,2.087
		c0.128,1.341,0.882,2.533,1.998,3.298c1.135,0.756,2.55,1.147,3.99,1.278c1.444,0.142,2.925,0.073,4.39-0.118
		c5.879-0.778,11.494-3.462,15.675-7.088c2.025-1.812,3.943-3.985,3.958-6.451c0.058-2.439-1.303-4.553-2.678-6.201
		c-1.412-1.67-2.977-2.979-4.402-4.067c-1.431-1.087-2.752-1.941-3.85-2.625C18.272,266.951,17.046,266.32,16.695,266.143z"/>
</g>
<radialGradient id="SVGID_39_" cx="14.9371" cy="295.4267" r="12.7314" gradientTransform="matrix(0.9255 -0.3788 0.3788 0.9255 -107.5092 27.3231)" gradientUnits="userSpaceOnUse">
	<stop  offset="0" style="stop-color:#4C646B"/>
	<stop  offset="1" style="stop-color:#384D52"/>
</radialGradient>
<path fill="url(#SVGID_39_)" d="M22.016,284.315c0.833,2.036-1.327,4.848-4.826,6.28c-3.499,1.432-7.011,0.942-7.844-1.094
	s1.327-4.848,4.826-6.28C17.671,281.789,21.183,282.279,22.016,284.315z"/>
<radialGradient id="SVGID_40_" cx="12.8103" cy="281.4306" r="5.2428" gradientUnits="userSpaceOnUse">
	<stop  offset="0" style="stop-color:#4C646B"/>
	<stop  offset="1" style="stop-color:#384D52"/>
</radialGradient>
<ellipse fill="url(#SVGID_40_)" cx="13.092" cy="277.224" rx="2.589" ry="1.967"/>
<g>
	<radialGradient id="SVGID_41_" cx="157.0024" cy="282.0075" r="18.2774" gradientUnits="userSpaceOnUse">
		<stop  offset="0" style="stop-color:#78A7A7"/>
		<stop  offset="1" style="stop-color:#4E6267"/>
	</radialGradient>
	<ellipse fill="url(#SVGID_41_)" cx="151.4" cy="287.17" rx="5.37" ry="4.246"/>
	<path fill="#384D52" d="M156.82,287.171c0,0-0.006,0.12-0.016,0.342c-0.016,0.222-0.079,0.555-0.198,0.961
		c-0.149,0.395-0.352,0.884-0.731,1.362c-0.373,0.475-0.886,0.965-1.553,1.334c-0.662,0.374-1.475,0.607-2.34,0.661
		c-0.222-0.002-0.424,0.007-0.669-0.005c-0.213-0.027-0.407-0.034-0.643-0.084c-0.463-0.077-0.898-0.2-1.332-0.372
		c-0.855-0.354-1.681-0.856-2.344-1.556c-0.667-0.686-1.164-1.613-1.237-2.644c-0.073-1.012,0.337-2.1,1.028-2.842
		c0.678-0.773,1.575-1.282,2.479-1.595c0.903-0.304,1.876-0.394,2.705-0.307c0.913,0.09,1.694,0.338,2.364,0.723
		c0.665,0.379,1.177,0.871,1.549,1.349c0.379,0.479,0.582,0.97,0.73,1.366c0.119,0.41,0.178,0.736,0.193,0.961
		C156.815,287.05,156.82,287.171,156.82,287.171z M156.72,287.168c-0.026,0.009,0.047-0.488-0.284-1.235
		c-0.168-0.369-0.475-0.763-0.885-1.127c-0.413-0.365-0.961-0.668-1.58-0.897c-0.612-0.223-1.336-0.398-2.045-0.443
		c-0.793-0.036-1.558,0.034-2.352,0.254c-0.78,0.22-1.552,0.62-2.15,1.213c-0.618,0.584-1.029,1.35-1.12,2.237
		c-0.054,0.869,0.268,1.794,0.911,2.435c0.613,0.665,1.456,1.073,2.284,1.252c0.413,0.093,0.838,0.145,1.225,0.152
		c0.187,0.017,0.418-0.01,0.621-0.009c0.191-0.014,0.38-0.029,0.566-0.043c0.758-0.081,1.45-0.271,2.07-0.505
		c0.618-0.238,1.164-0.544,1.576-0.912c0.411-0.366,0.718-0.761,0.885-1.131C156.771,287.664,156.694,287.161,156.72,287.168z"/>
</g>
</svg>
