<?xml version="1.0" encoding="utf-8"?>
<!-- Generator: Adobe Illustrator 18.0.0, SVG Export Plug-In . SVG Version: 6.00 Build 0)  -->
<!DOCTYPE svg PUBLIC "-//W3C//DTD SVG 1.1//EN" "http://www.w3.org/Graphics/SVG/1.1/DTD/svg11.dtd">
<svg version="1.1" id="Layer_1" xmlns="http://www.w3.org/2000/svg" xmlns:xlink="http://www.w3.org/1999/xlink" x="0px" y="0px"
	 viewBox="0 0 50 50" enable-background="new 0 0 50 50" xml:space="preserve">
<g>
	<g>
		<path fill="#FFFFFF" d="M25,49.9c-6.7,0-12.9-2.6-17.7-7.3C2.6,37.9,0,31.6,0,25S2.6,12,7.3,7.3C12,2.6,18.3,0,25,0
			s12.9,2.6,17.7,7.3c4.7,4.7,7.3,11,7.3,17.7s-2.6,12.9-7.3,17.7C37.9,47.3,31.6,49.9,25,49.9z M25,3.3C13,3.3,3.3,13,3.3,25
			c0,12,9.7,21.7,21.7,21.7c12,0,21.7-9.7,21.7-21.7C46.7,13,36.9,3.3,25,3.3z"/>
	</g>
	<path fill="#FFFFFF" d="M37.2,18.8c-0.7-0.6-0.6-1.1-0.6-1.1s-0.6,0.7-1.3,0.9s-0.4-0.5-0.6-0.7c-0.3-0.2-0.8-0.9-1-1.3
		c-0.2-0.4,0.4-1,0.9,0.1c0.5,1.1,1.9,0.8,2.2,0.8c0.2-0.1,9.8-0.2,9.8-0.2l-4.1-7.2c0,0-6.1-4.6-6.3-4.6c-0.2,0-7-3.1-7.7-2.8
		c-0.7,0.3-1.6-0.5-1.6-0.5s1.5-0.2,1.8-0.8S27.1,1,26.6,0.9C26.1,0.8,24,0.4,23,0.6c-1,0.3-1.1,0.4-1.6,1c-0.5,0.6-1,1.2-1,1.2
		S19.5,3.1,19,3.4c-0.5,0.3-0.2,1,0.1,1.5s1.1-0.3,1.4-0.2c0.3,0.1,0.1,0.3,0.4,0.9c0.3,0.6-0.5,0-0.6-0.5c-0.1-0.5-0.5,0.3-0.7,0.6
		c-0.2,0.3,0.1,0.6-0.1,1c-0.2,0.4-0.7-0.2-1,0.3c-0.3,0.5-1,0.9-1.2,1.1s-0.8,0.1-0.9,0.1c-0.1,0,0,0.4-0.1,0.4
		c-0.1,0-1.7-0.1-0.7,0.4c1,0.5,0.8,0.7,0.8,1.4c0,0.7-1.1,0.3-1.9,0.2c-0.8-0.1-0.6,0.1-0.6,1.1c-0.1,1-0.2,1,0.6,1.6
		c0.8,0.6,0.7,0.2,1,0.1c0.3-0.1,1.3-0.8,1.3-0.9c0-0.1,0.2-0.7,0.6-1c0.4-0.3,0.5-0.5,0.7-0.9c0.2-0.4,0.4,0.4,1.1-0.1
		c0.7-0.4,1,0,1.2,0.4c0.3,0.4,0.6,0.4,1.5,1.1c0.9,0.6-0.5,0.3-1,0.8c-0.4,0.5,0.9,0.3,1.2,0c0.3-0.4,0.3-0.3,0.2-0.7
		c0-0.4,0-0.2,0.5-0.1c0.5,0.1-0.9-0.8-1.3-0.9c-0.4-0.2-0.6-0.7-0.5-1.3c0-0.7,1.5,1.2,2,1.4c0.5,0.3,0.9,1.9,1.3,2.2
		c0.4,0.3,0.7-0.6,0.5-0.7c-0.1-0.1-0.6-0.7,0.2-1c0.7-0.3,0.5,0.9,0.8,1.6c0.3,0.7,1.6,0.2,2.8,0.1c1.2,0,0.3,0.6-0.1,1.9
		c-0.3,1.4-0.6,1.2-1.6,1.4c-1,0.2-2.3-0.4-3.1-0.5c-0.8,0-0.2,0.7-0.7,0.9c-0.5,0.2-2.6-1.9-4-2.6c-1.3-0.8-3.8,0.4-4.9,1.2
		c-1.1,0.8-3.2,3.3-3.5,6.1c-0.3,2.8,0.5,4.2,1.3,4.9c0.8,0.7,3,1.1,4.2,0.8c1.2-0.3,1.5-0.1,2.7,0.4c1.1,0.5,1.1,0.8,0.8,1.7
		c-0.3,0.8,1.1,2.3,1.5,3.1c0.3,0.9,0.3,1.6-0.2,2.8c-0.5,1.2,0,1.6,0.4,2.7c0.5,1,0.8,3,1.6,4.7c0.8,1.8,1.4,1.1,2.8,0.5
		c1.4-0.6,2.7-3,3.3-4.2c0.6-1.1,0.8-1.8,1.8-2.9c0.9-1.1-0.3-3.5-0.3-4.3c0.1-0.8,1.9-2.8,2.7-3.1c0.8-0.3,1.7-3.6,1.7-4.2
		c-0.1-0.6-2.1,0.6-3-0.2c-1-0.7-4.1-7.2-4.1-7.2s0.8-0.4,1.1-0.3c0.2,0.1,0.9,1.4,1.3,2c0.4,0.6,1,1.7,1.7,3.5
		c0.7,1.8,2.1,0.1,2.8-0.3c0.7-0.3,1.7-1.1,2.1-1.5c0.4-0.4,0.8-1.1,0.9-1.6C38,19,37.9,19.4,37.2,18.8z M25.4,4.4
		c-0.6,0.2-0.9,0-1.4,0.3c-0.5,0.3,1,0.1,0.3,0.7C23.8,6,24,4.7,23.6,5.4c-0.4,0.7,0.5,1-0.4,1c-0.9,0-1.5,0.2-1.7,0.2
		c-0.2,0-0.9,0-0.9,0s0.3-0.4,0.8-0.5c0.5-0.1,1-0.2,0.9-0.6c-0.1-0.3,0.6-0.6,0.5-1.1c-0.1-0.5-0.9-0.7-0.3-1.1
		c0.7-0.4,0.9-1.3,1.6-1c0.7,0.2-0.3,0.3-0.6,0.8c-0.3,0.5-0.3,0.8,0.2,1c0.5,0.2,1-0.1,1.5,0C25.7,4.3,26.1,4.2,25.4,4.4z"/>
	<path fill="#FFFFFF" d="M3.3,26c0,0,1.3,5.4,2.1,6.1c0.8,0.7,1.2,2.3,1.4,3.6C7,37,9.7,38.9,9.9,39.3c0.2,0.4,0.5,2.6,0.5,2.6
		s-4.7-5.8-5.5-7.3S3.3,26,3.3,26z"/>
	<path fill="#FFFFFF" d="M38.9,16c0,0,1.2,1.2,1.7,1.3c0.5,0.1-0.2,0.2-0.2,0.4s0.4,0.6,0.6,0.6c0.2,0,0.6-0.4,0.6-0.4
		s0.1,0.9,0.3,1.6c0.2,0.7,1.2,3.8,1.9,4c0.6,0.1,0.7-0.7,0.7-0.9c0.1-0.2,0.1-1,0.1-1.3c0-0.4-0.2-0.7,0-0.9s0.8-0.7,1.1-1.1
		c0.3-0.4,0.9-0.9,1-1.1c0.1-0.2,0.5-1.4,0.7-1.5c0.2-0.1-8.5-0.7-8.5-0.7H38.9z"/>
</g>
</svg>
