<?xml version="1.0" encoding="utf-8"?>
<!-- Generator: Adobe Illustrator 18.0.0, SVG Export Plug-In . SVG Version: 6.00 Build 0)  -->
<!DOCTYPE svg PUBLIC "-//W3C//DTD SVG 1.1//EN" "http://www.w3.org/Graphics/SVG/1.1/DTD/svg11.dtd">
<svg version="1.1" id="Layer_1" xmlns="http://www.w3.org/2000/svg" xmlns:xlink="http://www.w3.org/1999/xlink" x="0px" y="0px"
	 viewBox="0 0 50 50" enable-background="new 0 0 50 50" xml:space="preserve">
<radialGradient id="SVGID_1_" cx="39" cy="20" r="40.3744" gradientUnits="userSpaceOnUse">
	<stop  offset="0" style="stop-color:#6FB4E3"/>
	<stop  offset="1" style="stop-color:#1C75BC"/>
</radialGradient>
<circle fill="url(#SVGID_1_)" cx="25" cy="25" r="25"/>
<radialGradient id="SVGID_2_" cx="7.5169" cy="27.3839" r="20.2376" gradientUnits="userSpaceOnUse">
	<stop  offset="0" style="stop-color:#8DC63F"/>
	<stop  offset="1" style="stop-color:#006838"/>
</radialGradient>
<path fill="url(#SVGID_2_)" d="M9.9,39.3C9.7,38.9,7,37,6.8,35.7c-0.2-1.3-0.6-2.8-1.4-3.6C4.6,31.4,3.3,26,3.3,26s0,0.1,0,0.2
	c-0.2-0.1-1.2-1-1.8-1.2C0.8,24.8,0,24.6,0,24.6s-0.1,4.8,1,7.7c1.1,2.9,2,5,3.1,6.5s2.8,3.5,3.5,4.2c0.8,0.7,1.8,1.6,1.8,1.6
	l0.8-2.7C10.3,41.9,10.1,39.8,9.9,39.3z M3.3,26.4c0,0.4,0.1,1.2,0.3,2.2l-0.3-1L3.3,26.4z"/>
<path fill="#FFFFFF" d="M25,50c2.7,0,5.4-0.4,7.9-1.3c-0.1,0-4.4-1.2-5.1-1.1c-0.7,0.1-4.2,0.7-4.6,0.6c-0.4-0.1-4.4-0.8-4.7-0.4
	c-0.2,0.3-1.2,0.6-1.9,0.8C19.3,49.5,22.1,50,25,50z"/>
<radialGradient id="SVGID_3_" cx="46.3333" cy="8.6563" r="44.3669" gradientUnits="userSpaceOnUse">
	<stop  offset="0" style="stop-color:#ABD037"/>
	<stop  offset="1" style="stop-color:#006838"/>
</radialGradient>
<path fill="url(#SVGID_3_)" d="M41.1,5.9c-5-4.1-8.5-4.7-8.5-4.7s-2.4,0.6-2.1,0.7s0.7,0.5,0.2,0.6s-2.2,0.2-2.2,0.2l0,0
	c-0.1,0-0.1,0-0.2,0c-0.7,0.3-1.6-0.5-1.6-0.5s1.5-0.2,1.8-0.8c0.3-0.6-1.5-0.5-1.9-0.6C26.1,0.8,24,0.4,23,0.6
	c-1,0.3-1.1,0.4-1.6,1c-0.5,0.6-1,1.2-1,1.2S19.5,3.1,19,3.4c-0.5,0.3-0.2,1,0.1,1.5c0.3,0.6,1.1-0.3,1.4-0.2s0.1,0.3,0.4,0.9
	c0.3,0.6-0.5,0-0.6-0.5c-0.1-0.5-0.5,0.3-0.7,0.6c-0.2,0.3,0.1,0.6-0.1,1s-0.7-0.2-1,0.3c-0.3,0.5-1,0.9-1.2,1.1
	c-0.2,0.3-0.8,0.1-0.9,0.1s0,0.4-0.1,0.4c-0.1,0-1.7-0.1-0.7,0.4c1,0.5,0.8,0.7,0.8,1.4c0,0.7-1.1,0.3-1.9,0.2
	c-0.8-0.1-0.6,0.1-0.6,1.1s-0.2,1,0.6,1.6s0.7,0.2,1,0.1c0.3-0.1,1.3-0.8,1.3-0.9s0.2-0.7,0.6-1c0.4-0.3,0.5-0.5,0.7-0.9
	c0.2-0.4,0.4,0.4,1.1-0.1c0.7-0.4,1,0,1.2,0.4c0.3,0.4,0.6,0.4,1.5,1.1c0.9,0.6-0.5,0.3-1,0.8c-0.4,0.5,0.9,0.3,1.2,0
	c0.3-0.4,0.3-0.3,0.2-0.7c0-0.4,0-0.2,0.5-0.1c0.5,0.1-0.9-0.8-1.3-0.9c-0.4-0.2-0.6-0.7-0.5-1.3c0-0.7,1.5,1.2,2,1.4
	c0.5,0.3,0.9,1.9,1.3,2.2c0.4,0.3,0.7-0.6,0.5-0.7c-0.1-0.1-0.6-0.7,0.2-1c0.7-0.3,0.5,0.9,0.8,1.6c0.3,0.7,1.6,0.2,2.8,0.1
	c1.2,0,0.3,0.6-0.1,1.9c-0.3,1.4-0.6,1.2-1.6,1.4s-2.3-0.4-3.1-0.5c-0.8,0-0.2,0.7-0.7,0.9c-0.5,0.2-2.6-1.9-4-2.6
	c-1.3-0.8-3.8,0.4-4.9,1.2c-1.1,0.8-3.2,3.3-3.5,6.1c-0.3,2.8,0.5,4.2,1.3,4.9c0.8,0.7,3,1.1,4.2,0.8c1.2-0.3,1.5-0.1,2.7,0.4
	s1.1,0.8,0.8,1.7s1.1,2.3,1.5,3.1s0.3,1.6-0.2,2.8c-0.5,1.2,0,1.6,0.4,2.7c0.5,1,0.8,3,1.6,4.7s1.4,1.1,2.8,0.5s2.7-3,3.3-4.2
	c0.6-1.1,0.8-1.8,1.8-2.9c0.9-1.1-0.3-3.5-0.3-4.3c0.1-0.8,1.9-2.8,2.7-3.1s1.7-3.6,1.7-4.2c-0.1-0.6-2.1,0.6-3-0.2
	c-1-0.7-4.1-7.2-4.1-7.2s0.8-0.4,1.1-0.3s0.9,1.4,1.3,2c0.4,0.6,1,1.7,1.7,3.5c0.7,1.8,2.1,0.1,2.8-0.3c0.7-0.3,1.7-1.1,2.1-1.5
	c0.4-0.4,0.8-1.1,0.9-1.6s0,0-0.7-0.6c-0.7-0.6-0.6-1.1-0.6-1.1s-0.6,0.7-1.3,0.9c-0.7,0.2-0.4-0.5-0.6-0.7c-0.3-0.2-0.8-0.9-1-1.3
	c-0.2-0.4,0.4-1,0.9,0.1c0.5,1.1,1.9,0.8,2.2,0.8c0.1,0,1.9-0.1,4-0.1c-0.1,0.1-0.3,0.2-0.2,0.2c0.1,0.1,0.4,0.6,0.6,0.6
	c0.2,0,0.6-0.4,0.6-0.4s0.1,0.9,0.3,1.6c0.2,0.7,1.2,3.8,1.9,4c0.6,0.1,0.7-0.7,0.7-0.9c0.1-0.2,0.1-1,0.1-1.3c0-0.4-0.2-0.7,0-0.9
	c0.2-0.1,0.8-0.7,1.1-1.1c0.3-0.4,0.9-0.9,1-1.1c0.1-0.2,0.5-1.4,0.7-1.5l0.8-0.6C48.4,16.2,46.1,10,41.1,5.9z M25.4,4.4
	c-0.6,0.2-0.9,0-1.4,0.3c-0.5,0.3,1,0.1,0.3,0.7C23.8,6,24,4.7,23.6,5.4c-0.4,0.7,0.5,1-0.4,1c-0.9,0-1.5,0.2-1.7,0.2
	c-0.2,0-0.9,0-0.9,0s0.3-0.4,0.8-0.5c0.5-0.1,1-0.2,0.9-0.6c-0.1-0.3,0.6-0.6,0.5-1.1c-0.1-0.5-0.9-0.7-0.3-1.1
	c0.7-0.4,0.9-1.3,1.6-1c0.7,0.2-0.3,0.3-0.6,0.8c-0.3,0.5-0.3,0.8,0.2,1c0.5,0.2,1-0.1,1.5,0C25.7,4.3,26.1,4.2,25.4,4.4z"/>
</svg>
