<?xml version="1.0" encoding="utf-8"?>
<!-- Generator: Adobe Illustrator 18.0.0, SVG Export Plug-In . SVG Version: 6.00 Build 0)  -->
<!DOCTYPE svg PUBLIC "-//W3C//DTD SVG 1.1//EN" "http://www.w3.org/Graphics/SVG/1.1/DTD/svg11.dtd">
<svg version="1.1" id="Layer_1" xmlns="http://www.w3.org/2000/svg" xmlns:xlink="http://www.w3.org/1999/xlink" x="0px" y="0px"
	 viewBox="0 0 50 50" enable-background="new 0 0 50 50" xml:space="preserve">
<radialGradient id="SVGID_1_" cx="36.9375" cy="8.25" r="46.3836" gradientUnits="userSpaceOnUse">
	<stop  offset="0" style="stop-color:#D1BEA3"/>
	<stop  offset="0.1768" style="stop-color:#CCB89D"/>
	<stop  offset="0.3455" style="stop-color:#C1AA8E"/>
	<stop  offset="0.5111" style="stop-color:#B09578"/>
	<stop  offset="0.6747" style="stop-color:#9A7B5D"/>
	<stop  offset="0.8368" style="stop-color:#7F5D3E"/>
	<stop  offset="0.9958" style="stop-color:#623D1F"/>
	<stop  offset="1" style="stop-color:#613D1E"/>
</radialGradient>
<circle fill="url(#SVGID_1_)" cx="25" cy="25" r="25"/>
<path fill="#5A2D1D" d="M0.2,21.7c0,0,1.9-0.9,2-0.9c0.1,0,0.2-0.1,0.4-0.1c0.2-0.1,0.3-0.1,0.6-0.2c0.1,0,0.2-0.1,0.4-0.1
	c0.1,0,0.3-0.1,0.4-0.1c0.1,0,0.3-0.1,0.4-0.1c0.2,0,0.3-0.1,0.5-0.1c0.3-0.1,0.7-0.2,1.1-0.3c0.4-0.1,0.8-0.2,1.3-0.3
	c0.4-0.1,0.9-0.2,1.4-0.3c0.2,0,0.5-0.1,0.8-0.1c0.3,0,0.5-0.1,0.8-0.1c0.3,0,0.5-0.1,0.8-0.1c0.3,0,0.6-0.1,0.8-0.1
	c1.1-0.2,2.3-0.3,3.6-0.4c0.6-0.1,1.2-0.1,1.9-0.2c0.6-0.1,1.3-0.1,1.9-0.1c0.3,0,0.7,0,1-0.1c0.3,0,0.7,0,1,0c0.7,0,1.3-0.1,2-0.1
	c0.7,0,1.3,0,2,0c0.3,0,0.7,0,1,0c0.3,0,0.7,0,1,0c0.6,0,1.3,0,1.9,0c0.6,0,1.3,0,1.9,0c0.6,0,1.2,0,1.8,0c0.6,0,1.2,0,1.7,0
	c0.6,0,1.1,0,1.7,0.1c0.5,0,1,0,1.5,0.1c0.5,0,1,0.1,1.4,0.1c0.5,0,0.9,0.1,1.3,0.1c0.4,0,0.8,0.1,1.1,0.1c0.3,0,0.7,0.1,0.9,0.1
	c0.6,0.1,1,0.2,1.3,0.3c0.1,0,0.1,0,0.2,0.1c0.1,0,0.1,0,0.1,0.1c0.1,0,0.1,0.1,0.1,0.1s0,0-0.1-0.1c0,0-0.1,0-0.1-0.1
	c-0.1,0-0.1,0-0.2-0.1c-0.3-0.1-0.7-0.2-1.3-0.2c-0.3,0-0.6-0.1-0.9-0.1c-0.3,0-0.7-0.1-1.1-0.1c-0.4,0-0.8,0-1.3-0.1
	c-0.4,0-0.9,0-1.4,0c-0.5,0-1,0-1.5,0c-0.5,0-1.1,0-1.6,0c-0.6,0-1.1,0-1.7,0c-0.6,0-1.2,0-1.8,0c-0.6,0-1.2,0-1.9,0.1
	c-0.6,0-1.3,0-1.9,0.1c-0.3,0-0.6,0-1,0c-0.3,0-0.7,0-1,0.1c-0.7,0-1.3,0.1-2,0.1c-0.7,0-1.3,0.1-2,0.1c-0.3,0-0.7,0.1-1,0.1
	c-0.3,0-0.6,0.1-1,0.1c-0.6,0.1-1.3,0.1-1.9,0.2c-0.6,0.1-1.2,0.2-1.9,0.2c-1.2,0.2-2.4,0.3-3.5,0.6c-0.3,0-0.5,0.1-0.8,0.1
	c-0.3,0.1-0.5,0.1-0.8,0.2c-0.3,0.1-0.5,0.1-0.8,0.2c-0.2,0.1-0.5,0.1-0.7,0.2c-0.5,0.1-0.9,0.2-1.4,0.3c-0.4,0.1-0.8,0.2-1.2,0.3
	c-0.4,0.1-0.7,0.2-1.1,0.3c-0.2,0.1-0.3,0.1-0.5,0.1c-0.1,0-0.3,0.1-0.4,0.1c-0.1,0-0.3,0.1-0.4,0.1c-0.1,0-0.2,0.1-0.3,0.1
	C3.4,21.9,3.3,22,3.1,22c-0.1,0.1-0.2,0.1-0.3,0.1c-0.1,0-2.8,1.3-2.8,1.3L0.2,21.7z"/>
<path fill="#5A2D1D" d="M0.4,29.2c0,0,2.1-1.2,2.2-1.3c0.1,0,0.2-0.1,0.4-0.1c0.2-0.1,0.3-0.1,0.6-0.2c0.1,0,0.2-0.1,0.4-0.1
	c0.1,0,0.3-0.1,0.4-0.1c0.1,0,0.3-0.1,0.4-0.1c0.2,0,0.3-0.1,0.5-0.1c0.3-0.1,0.7-0.2,1.1-0.3c0.4-0.1,0.8-0.2,1.3-0.3
	c0.4-0.1,0.9-0.2,1.4-0.3c0.2,0,0.5-0.1,0.8-0.1c0.3,0,0.5-0.1,0.8-0.1c0.3,0,0.5-0.1,0.8-0.1c0.3,0,0.6-0.1,0.8-0.1
	c1.1-0.2,2.3-0.3,3.6-0.4c0.6-0.1,1.2-0.1,1.9-0.2c0.6-0.1,1.3-0.1,1.9-0.1c0.3,0,0.7,0,1-0.1c0.3,0,0.7,0,1,0c0.7,0,1.3-0.1,2-0.1
	c0.7,0,1.3,0,2,0c0.3,0,0.7,0,1,0c0.3,0,0.7,0,1,0c0.6,0,1.3,0,1.9,0c0.6,0,1.3,0,1.9,0c0.6,0,1.2,0,1.8,0c0.6,0,1.2,0,1.7,0
	c0.6,0,1.1,0,1.7,0.1c0.5,0,1,0,1.5,0.1c0.5,0,1,0.1,1.4,0.1c0.5,0,0.9,0.1,1.3,0.1c0.4,0,0.8,0.1,1.1,0.1c0.3,0,0.7,0.1,0.9,0.1
	c0.6,0.1,1,0.2,1.3,0.3c0.1,0,0.1,0,0.2,0.1c0.1,0,0.1,0,0.1,0.1c0.1,0,0.1,0.1,0.1,0.1s0,0-0.1-0.1c0,0-0.1,0-0.1-0.1
	c-0.1,0-0.1,0-0.2-0.1c-0.3-0.1-0.7-0.2-1.3-0.2c-0.3,0-0.6-0.1-0.9-0.1c-0.3,0-0.7-0.1-1.1-0.1c-0.4,0-0.8,0-1.3-0.1
	c-0.4,0-0.9,0-1.4,0c-0.5,0-1,0-1.5,0c-0.5,0-1.1,0-1.6,0c-0.6,0-1.1,0-1.7,0c-0.6,0-1.2,0-1.8,0c-0.6,0-1.2,0-1.9,0.1
	c-0.6,0-1.3,0-1.9,0.1c-0.3,0-0.6,0-1,0c-0.3,0-0.7,0-1,0.1c-0.7,0-1.3,0.1-2,0.1c-0.7,0-1.3,0.1-2,0.1c-0.3,0-0.7,0.1-1,0.1
	c-0.3,0-0.6,0.1-1,0.1c-0.6,0.1-1.3,0.1-1.9,0.2c-0.6,0.1-1.2,0.2-1.9,0.2c-1.2,0.2-2.4,0.3-3.5,0.6c-0.3,0-0.5,0.1-0.8,0.1
	c-0.3,0.1-0.5,0.1-0.8,0.2c-0.3,0.1-0.5,0.1-0.8,0.2c-0.2,0.1-0.5,0.1-0.7,0.2c-0.5,0.1-0.9,0.2-1.4,0.3C7.4,28,7,28.1,6.6,28.2
	c-0.4,0.1-0.7,0.2-1.1,0.3c-0.2,0.1-0.3,0.1-0.5,0.1c-0.1,0-0.3,0.1-0.4,0.1c-0.1,0-0.3,0.1-0.4,0.1C4.2,29,4.1,29,4,29
	c-0.2,0.1-0.4,0.1-0.5,0.2c-0.1,0.1-0.2,0.1-0.3,0.1c-0.1,0-2.5,1.2-2.5,1.2L0.4,29.2z"/>
<path fill="#5A2D1D" d="M48.1,34.5c0.1,0.2-1.8-0.1-2.2-0.2c-0.4,0-0.9-0.1-1.5-0.2c-0.6-0.2-1.3-0.4-2.1-0.8
	c-0.8-0.4-1.6-1-2.4-1.6c-0.8-0.6-1.6-1.3-2.6-2C37,29.4,36.5,29,36,28.7c-0.5-0.3-1-0.6-1.6-0.7c-0.3-0.1-0.6-0.2-0.8-0.2
	c-0.1,0-0.1,0-0.2,0l-0.2,0l-0.1,0c0,0-0.1,0-0.1,0c-0.1,0-0.1,0-0.2,0c-0.6,0-1.2,0.2-1.7,0.4c-0.6,0.2-1.2,0.5-1.7,0.8
	c-0.6,0.3-1.2,0.6-1.8,1c-1.2,0.7-2.4,1.3-3.7,1.7c-0.6,0.2-1.3,0.4-1.9,0.5c-0.3,0.1-0.7,0.1-1,0.1c-0.2,0-0.3,0-0.5,0
	c-0.2,0-0.3,0-0.5,0c-2.5,0-4.9,0.1-6.9,0.2c-2,0.1-3.7,0.3-4.8,0.6c-0.3,0.1-0.5,0.1-0.7,0.2c-0.2,0.1-0.4,0.2-0.5,0.3
	C7,33.7,7,33.8,7,33.9C7,33.9,7,34,7,34c0,0,0,0.1,0.1,0.1c0,0,0,0,0,0s0,0,0,0c0,0,0,0-0.1-0.1c0,0,0-0.1-0.1-0.1
	c0-0.1,0-0.1,0.1-0.2c0.1-0.1,0.3-0.2,0.5-0.3c0.2-0.1,0.5-0.2,0.7-0.3c1.1-0.3,2.8-0.6,4.8-0.8c2-0.2,4.3-0.4,6.9-0.5
	c0.2,0,0.3,0,0.5,0c0.2,0,0.3,0,0.5,0c0.3,0,0.6-0.1,0.9-0.1c0.6-0.1,1.2-0.3,1.8-0.5c1.2-0.5,2.4-1.1,3.5-1.8
	c0.6-0.3,1.1-0.7,1.7-1c0.6-0.3,1.2-0.7,1.8-0.9c0.6-0.3,1.3-0.5,2-0.6c0.1,0,0.2,0,0.3,0c0,0,0.1,0,0.1,0l0.1,0l0,0l0,0l0,0l0.1,0
	l0.1,0c0.1,0,0.2,0,0.3,0c0.3,0.1,0.7,0.1,1,0.2c0.3,0.1,0.6,0.2,0.9,0.3c0.3,0.1,0.6,0.3,0.9,0.4c0.6,0.3,1.1,0.6,1.6,1
	c1,0.7,1.8,1.3,2.6,1.9c0.4,0.3,0.8,0.6,1.2,0.8c0.4,0.2,0.7,0.4,1.1,0.6c0.7,0.3,1.3,0.5,1.8,0.6c0.5,0.1,0.9,0.1,1.2,0.2
	c0.3,0,2.7,0,2.7,0L48.1,34.5z"/>
<path fill="#5A2D1D" d="M48.9,17.7c0,0-2.8-0.6-3.2-0.6c-0.2,0-0.5-0.1-0.8-0.1c-0.3,0-0.6-0.1-1-0.2c-0.4-0.1-0.8-0.1-1.2-0.2
	c-0.4-0.1-0.9-0.1-1.3-0.2c-0.5-0.1-1-0.1-1.4-0.2c-0.5-0.1-1-0.1-1.5-0.2c-0.5-0.1-1-0.1-1.5-0.2c-0.2,0-0.5-0.1-0.7-0.1
	c-0.1,0-0.2,0-0.4,0c-0.1,0-0.2,0-0.4,0c-0.5,0-0.9-0.1-1.4-0.1c-0.4,0-0.8-0.1-1.2-0.1c-1.5-0.1-2.5-0.2-2.5-0.2s1,0,2.5-0.1
	c0.4,0,0.8,0,1.2,0c0.4,0,0.9,0,1.4,0c0.1,0,0.2,0,0.4,0c0.1,0,0.2,0,0.4,0c0.2,0,0.5,0,0.7,0c0.5,0,1,0,1.5,0c0.5,0,1,0,1.5,0.1
	c0.5,0,1,0,1.5,0.1c0.5,0,0.9,0.1,1.4,0.1c0.4,0,0.8,0,1.2,0.1c0.4,0,0.7,0,1,0.1c0.3,0,0.6,0,0.8,0.1c0.4,0,2.3,0.1,2.3,0.1
	L48.9,17.7z"/>
<path fill="#5A2D1D" d="M47.2,13.5c0,0-3.5-0.6-3.7-0.7c-0.2,0-0.5-0.1-0.8-0.2c-0.4-0.1-0.8-0.2-1.3-0.3c-0.3,0-0.5-0.1-0.8-0.1
	c-0.1,0-0.3-0.1-0.4-0.1c-0.1,0-0.3,0-0.5-0.1c-0.3,0-0.6-0.1-1-0.2c-0.2,0-0.3-0.1-0.5-0.1c-0.2,0-0.3,0-0.5-0.1
	c-0.7-0.1-1.5-0.2-2.2-0.3c-0.4,0-0.8-0.1-1.2-0.1c-0.2,0-0.4,0-0.6,0c-0.2,0-0.4,0-0.6,0c-0.4,0-0.8,0-1.2-0.1l-0.1,0l-0.1,0
	l-0.2,0l-0.3,0c-0.2,0-0.4,0-0.6,0c-0.4,0-0.8,0-1.2,0c-0.2,0-0.4,0-0.6,0c-0.2,0-0.4,0-0.6,0c-0.8,0-1.6,0.1-2.4,0.2
	c-0.8,0.1-1.5,0.1-2.3,0.2c-0.7,0.1-1.4,0.1-2,0.2c-0.3,0-0.6,0.1-0.9,0.1c-0.3,0-0.6,0-0.8,0.1c-0.3,0-0.5,0-0.7,0
	c-0.2,0-0.4,0-0.6,0c-0.2,0-0.3,0-0.5,0c-0.1,0-0.3,0-0.4,0c-0.2,0-0.3,0-0.3,0s0.1,0,0.3,0c0.1,0,0.2,0,0.4,0c0.1,0,0.3,0,0.5,0
	c0.2,0,0.4,0,0.6-0.1c0.2,0,0.5-0.1,0.7-0.1c0.3,0,0.5-0.1,0.8-0.1c0.3,0,0.6-0.1,0.9-0.1c0.6-0.1,1.3-0.2,2-0.3
	c0.7-0.1,1.5-0.2,2.3-0.3c0.8-0.1,1.6-0.2,2.4-0.3c0.2,0,0.4,0,0.6-0.1c0.2,0,0.4,0,0.6-0.1c0.4,0,0.8-0.1,1.3-0.1
	c0.2,0,0.4,0,0.6,0l0.3,0l0.2,0l0.1,0l0.1,0c0.4,0,0.8,0,1.3,0c0.2,0,0.4,0,0.6,0c0.2,0,0.4,0,0.6,0c0.4,0,0.8,0,1.2,0
	c0.8,0,1.6,0.1,2.3,0.1c0.2,0,0.4,0,0.5,0c0.2,0,0.4,0,0.5,0c0.3,0,0.7,0.1,1,0.1c0.2,0,0.3,0,0.5,0c0.2,0,0.3,0,0.4,0.1
	c0.3,0,0.6,0.1,0.8,0.1c0.5,0.1,1,0.1,1.3,0.2c0.4,0.1,0.7,0.1,0.9,0.1c0.2,0,2.4,0.4,2.4,0.4L47.2,13.5z"/>
<path fill="#5A2D1D" d="M4.9,39.9c0,0,0.4-1.7,0.4-1.7c0,0,0.1-0.1,0.1-0.1c0,0,0.2,0,0.2,0c0,0-0.5-0.1,0-0.1c0-0.1,0-0.2,0-0.4
	c0-0.2,0.1-0.3,0.2-0.5c0.1-0.2,0.2-0.4,0.3-0.5c0.1-0.2,0.3-0.3,0.5-0.5c0.2-0.1,0.4-0.3,0.6-0.4c0.5-0.3,1-0.5,1.5-0.6
	c0.6-0.2,1.2-0.3,1.8-0.4c0.7-0.1,1.3-0.2,2.1-0.3c0.4,0,0.7-0.1,1.1-0.1l0.1,0l0.1,0c0.1,0,0.2,0,0.3,0c0.2,0,0.4,0,0.6,0
	c0.2,0,0.4,0,0.6,0c0.2,0,0.4,0,0.6,0c0.4,0,0.8,0,1.1,0c0.4,0,0.8,0,1.1,0c0.4,0,0.7,0,1.1,0c0.7,0,1.5,0.1,2.2,0.2
	c0.2,0,0.4,0,0.5,0c0.2,0,0.3,0,0.5,0.1c0.3,0,0.7,0.1,1,0.1c0.3,0,0.6,0.1,0.9,0.1c0.3,0,0.6,0.1,0.9,0.1c0.6,0.1,1.1,0.2,1.5,0.3
	c0.5,0.1,0.8,0.2,1.2,0.2c0.6,0.1,1,0.2,1,0.2s-0.4-0.1-1-0.2c-0.3,0-0.7-0.1-1.2-0.2c-0.5-0.1-1-0.1-1.5-0.2c-0.3,0-0.6,0-0.9-0.1
	c-0.3,0-0.6,0-0.9-0.1c-0.3,0-0.7,0-1-0.1c-0.2,0-0.3,0-0.5,0c-0.2,0-0.3,0-0.5,0c-0.7,0-1.4,0-2.2,0c-0.4,0-0.7,0-1.1,0
	c-0.4,0-0.7,0-1.1,0.1c-0.4,0-0.7,0-1.1,0.1c-0.2,0-0.4,0-0.5,0c-0.2,0-0.4,0-0.6,0.1c-0.2,0-0.4,0-0.5,0.1c-0.1,0-0.2,0-0.3,0
	l-0.1,0l-0.1,0c-0.4,0.1-0.7,0.1-1,0.2c-0.7,0.1-1.3,0.2-1.9,0.4c-0.6,0.2-1.2,0.3-1.7,0.5c-0.5,0.2-0.9,0.4-1.3,0.6
	c-0.2,0.1-0.3,0.2-0.4,0.3c-0.1,0.1-1.8,3.6-1.9,3.7L4.9,39.9z"/>
<path fill="#5A2D1D" d="M24.4,33.1c0.1,0,0.2,0,0.3-0.1l0.1,0l0.1-0.1c0.1,0,0.2-0.1,0.3-0.1l0.2-0.1c0.2-0.1,0.3-0.2,0.5-0.3
	l0.2-0.1l0.2-0.1l0.5-0.3l0.5-0.3l0.9-0.6c0.6-0.4,1.3-0.8,1.9-1.1c0.7-0.3,1.4-0.6,2.1-0.7c0.4-0.1,0.8-0.1,1.1-0.1
	c0.1,0,0.2,0,0.3,0c0.1,0,0.2,0,0.3,0l0.1,0l0.1,0l0.1,0c0,0,0.1,0,0.1,0l0.2,0c0.4,0.1,0.7,0.3,1,0.5c0.3,0.2,0.6,0.5,0.9,0.7
	c0.6,0.5,1.1,1.1,1.6,1.6c0.3,0.3,0.5,0.5,0.8,0.8c0.1,0.1,0.3,0.2,0.4,0.3l0.1,0.1l0.1,0.1l0.1,0l0,0l0,0c0.1,0,0.1,0.1,0.1,0.1
	c0.1,0.1,0.2,0.2,0.3,0.3c0.1,0.1,0.1,0.3,0.1,0.4c0,0.1,0,0.3-0.1,0.4c-0.1,0.1-0.1,0.2-0.2,0.3c-0.3,0.3-0.7,0.5-1.1,0.6
	c-0.2,0.1-0.4,0.1-0.6,0.1c0,0-0.1,0-0.1,0l-0.1,0l-0.3,0c-0.3,0.1-0.7,0.2-1,0.2c-0.4,0.1-0.7,0.2-1.1,0.3c-0.2,0-0.4,0.1-0.6,0.1
	c-0.2,0-0.4,0.1-0.6,0.1c-0.4,0-0.8,0-1.2,0c-0.1,0-0.2,0-0.3-0.1c-0.1,0-0.2,0-0.3-0.1l-0.3-0.1L32,36.1c-0.7-0.3-1.3-0.6-2-0.9
	c-0.7-0.3-1.4-0.5-2.1-0.7c-0.7-0.2-1.4-0.3-2.2-0.4c-0.7-0.1-1.5-0.3-2.2-0.4l-0.3-0.1l0.3-0.1C23.8,33.4,24.1,33.2,24.4,33.1
	L24.4,33.1L24.4,33.1z M24.4,33.2c-0.3,0.2-0.5,0.3-0.8,0.5l0-0.2c0.7,0.1,1.5,0.1,2.2,0.2c0.7,0.1,1.5,0.1,2.2,0.3l0.6,0.1l0.6,0.1
	c0.2,0,0.4,0.1,0.5,0.2l0.3,0.1l0.3,0.1c0.7,0.2,1.4,0.5,2.1,0.8l0.3,0.1l0.2,0.1c0.1,0,0.2,0,0.2,0.1c0.1,0,0.2,0,0.2,0.1
	c0.3,0.1,0.7,0.1,1,0c0.7,0,1.4-0.2,2.1-0.4c0.4-0.1,0.7-0.2,1.1-0.2l0.3,0l0.1,0c0,0,0.1,0,0.1,0c0.2,0,0.3-0.1,0.5-0.1
	c0.3-0.1,0.6-0.2,0.8-0.4c0.1-0.1,0.2-0.2,0.2-0.3c0,0,0-0.1,0-0.1c0,0-0.1-0.1-0.1-0.1c0,0-0.1,0-0.1-0.1c0,0,0,0,0,0l0,0l-0.1,0
	l-0.1-0.1l-0.1-0.1c-0.2-0.1-0.3-0.3-0.4-0.4c-0.3-0.3-0.5-0.5-0.8-0.8c-0.5-0.6-1-1.1-1.5-1.6c-0.3-0.3-0.5-0.5-0.8-0.7
	c-0.3-0.2-0.6-0.4-0.9-0.5l-0.1,0c0,0-0.1,0-0.1,0l-0.1,0l-0.1,0l-0.1,0c-0.1,0-0.2,0-0.3,0c-0.1,0-0.2,0-0.3,0
	c-0.4,0-0.7,0-1.1,0.1c-0.7,0.1-1.4,0.3-2.1,0.6c-0.7,0.3-1.3,0.6-1.9,1l-0.9,0.6L27,32.1l-0.5,0.3l-0.2,0.1L26,32.6
	c-0.2,0.1-0.3,0.2-0.5,0.2l-0.3,0.1C25.1,33,25,33,25,33l-0.1,0l-0.1,0C24.6,33.1,24.5,33.2,24.4,33.2z"/>
<g>
	<path fill="#5A2D1D" d="M26.6,34.2c0.7-0.1,1.4-0.4,2.1-0.8c0.9-0.4,1.5-1.1,2.3-1.6c1-0.6,2.1-1,3.2-0.6c0.9,0.3,2,0.9,2.5,1.7
		c0.4,0.7-2,1.6-2.3,1.6c-0.8,0.2-2.3-0.1-2.7-1.1c-0.2-0.5,0.5-0.9,0.9-1.1c0.4-0.2,0.9-0.2,1.3-0.1c0.2,0,1.2,0.5,0.9,0.8
		c-0.2,0.2-0.6,0.3-0.8,0.3c-0.1,0-0.2,0-0.3,0c-0.1,0-0.6-0.2-0.1-0.2c0.3,0,0.3-0.4,0-0.4c-0.3,0-0.7,0.2-0.7,0.5
		c0.1,0.4,0.6,0.5,0.9,0.5c0.8,0,2-0.5,1.2-1.4c-0.7-0.8-1.9-0.7-2.7-0.4c-0.8,0.3-1.4,1.3-0.7,2c0.8,0.8,2,1,3.1,0.8
		c0.6-0.1,1.1-0.4,1.6-0.8c0.3-0.2,0.9-0.6,0.9-1c0-0.5-0.4-0.8-0.7-1.1c-0.5-0.4-0.9-0.7-1.5-1c-0.6-0.2-1.2-0.5-1.8-0.4
		c-0.7,0.1-1.4,0.4-2,0.7c-0.4,0.2-0.8,0.4-1.2,0.7c-0.4,0.3-0.7,0.6-1.1,0.9c-0.7,0.4-1.6,0.8-2.4,0.9
		C26.2,33.9,26.3,34.3,26.6,34.2L26.6,34.2z"/>
</g>
<g>
	<path fill="#5A2D1D" d="M4.3,24.1c0,0,0,0,0.1,0.1c0.1,0,0.2,0.1,0.4,0.1c0.2,0,0.4,0.1,0.6,0.1c0.2,0,0.5,0,0.8,0
		c0.1,0,0.1,0,0.2,0c0.1,0,0.2,0,0.2,0c0.2,0,0.3-0.1,0.5-0.1c0.1,0,0.2,0,0.2-0.1c0.1,0,0.2-0.1,0.2-0.1c0,0,0.1,0,0.1,0l0,0l0,0
		l0.1,0c0.1,0,0.2-0.1,0.3-0.1c0.3-0.2,0.6-0.3,0.9-0.6l0.1-0.1c0,0,0.1-0.1,0.1-0.1c0.1-0.1,0.1-0.1,0.2-0.2
		c0.1-0.2,0.2-0.3,0.4-0.5l0.1-0.1c0,0,0.1-0.1,0.1-0.1c0.1-0.1,0.2-0.1,0.2-0.2c0.2-0.1,0.4-0.2,0.5-0.3c0,0,0.1,0,0.1-0.1l0.1,0
		c0.1,0,0.2-0.1,0.3-0.1c0.1,0,0.2,0,0.3-0.1c0,0,0.1,0,0.1,0c0,0,0.1,0,0.1,0c0.1,0,0.2,0,0.3,0c0.1,0,0.2,0,0.3,0
		c0.2,0,0.4,0,0.6,0.1c0.1,0,0.2,0.1,0.3,0.2c0.1,0.1,0.2,0.2,0.2,0.3c0,0,0,0.1,0,0.2c0,0.1,0,0.1,0,0.2c0,0.1,0,0.1,0,0.1
		c0,0,0,0.1,0,0.1c-0.1,0.2-0.2,0.3-0.3,0.4C13.1,22.9,13,23,12.9,23c-0.2,0.1-0.4,0.2-0.6,0.2c-0.2,0-0.3,0-0.4,0
		c-0.1,0-0.1,0-0.1,0l0,0c0,0,0,0,0.1,0c0,0,0.1,0,0.2,0c0.1,0,0.1,0,0.2-0.1c0.2-0.1,0.3-0.2,0.5-0.3c0.2-0.1,0.3-0.3,0.4-0.6
		c0-0.1,0-0.2,0-0.3c0,0-0.1-0.1-0.1-0.1c0,0-0.1-0.1-0.2-0.1c-0.1,0-0.3-0.1-0.4-0.1c-0.1,0-0.2,0-0.2,0c-0.1,0-0.2,0-0.3,0
		c0,0-0.1,0-0.1,0c0,0-0.1,0-0.1,0c-0.1,0-0.2,0-0.3,0c-0.1,0-0.2,0-0.3,0.1l-0.1,0c0,0-0.1,0-0.1,0c-0.3,0.1-0.6,0.3-0.9,0.6
		c-0.1,0.1-0.2,0.3-0.4,0.4c-0.1,0.1-0.1,0.2-0.2,0.2c0,0-0.1,0.1-0.1,0.1l-0.1,0.1c-0.3,0.3-0.6,0.5-1,0.6c-0.1,0-0.2,0.1-0.3,0.1
		l-0.1,0l0,0l0,0c0,0-0.1,0-0.1,0c-0.1,0-0.2,0.1-0.3,0.1c-0.1,0-0.2,0-0.3,0.1c-0.2,0-0.3,0.1-0.5,0.1c-0.1,0-0.2,0-0.2,0
		c-0.1,0-0.2,0-0.2,0c-0.3,0-0.6,0-0.8,0c-0.2,0-0.4-0.1-0.6-0.1C4.4,24.2,4.3,24.1,4.3,24.1L4.3,24.1z"/>
	<path fill="#5A2D1D" d="M12.6,20.2c0,0,0.1-0.1,0.3-0.2c0.1,0,0.3-0.1,0.4-0.1c0.2,0,0.4,0,0.6,0c0.2,0,0.4,0,0.7,0.1
		c0.1,0,0.1,0,0.2,0c0.1,0,0.1,0,0.2,0.1l0.1,0l0,0l0,0l0,0c0.1,0,0.1,0,0.2,0.1c0.2,0.1,0.5,0.2,0.7,0.4c0.2,0.2,0.4,0.4,0.5,0.6
		c0.2,0.2,0.4,0.3,0.6,0.4c0.1,0,0.1,0,0.2,0.1c0.1,0,0.1,0,0.2,0c0.1,0,0.1,0,0.2,0l0.1,0l0.1,0c0.2,0,0.5,0,0.6,0c0,0,0.1,0,0.1,0
		c0,0,0,0,0.1-0.1c0,0,0-0.1,0-0.2c0-0.1-0.1-0.3-0.3-0.4c-0.1-0.1-0.2-0.2-0.3-0.2c-0.1,0-0.2-0.1-0.3-0.1c-0.1,0-0.1,0-0.1,0l0,0
		c0,0,0,0,0.1,0c0.1,0,0.2,0,0.3,0c0.1,0,0.3,0.1,0.4,0.2c0.1,0,0.2,0.1,0.2,0.2c0.1,0.1,0.1,0.2,0.2,0.3c0,0.1,0,0.1,0,0.2
		c0,0,0,0.1,0,0.1c0,0,0,0.1,0,0.1c0,0.1-0.1,0.1-0.2,0.2c-0.1,0.1-0.1,0.1-0.2,0.1c-0.1,0.1-0.3,0.1-0.4,0.1c-0.1,0-0.1,0-0.2,0
		c-0.1,0-0.1,0-0.2,0l-0.1,0c0,0-0.1,0-0.1,0c-0.1,0-0.1,0-0.2,0c-0.1,0-0.1,0-0.2-0.1c-0.1,0-0.1,0-0.2-0.1
		c-0.1-0.1-0.3-0.1-0.4-0.2c-0.1,0-0.1-0.1-0.2-0.1c0,0-0.1-0.1-0.1-0.1l-0.1-0.1c-0.2-0.2-0.3-0.5-0.5-0.6
		c-0.2-0.2-0.4-0.3-0.6-0.4c-0.1,0-0.1-0.1-0.2-0.1l0,0c0,0,0,0,0,0l0,0l-0.1,0c-0.1,0-0.1,0-0.2-0.1c-0.1,0-0.1,0-0.2,0
		c-0.2-0.1-0.4-0.1-0.6-0.1c-0.2,0-0.4,0-0.5,0c-0.2,0-0.3,0-0.4,0.1c-0.1,0-0.2,0.1-0.3,0.1C12.6,20.2,12.6,20.2,12.6,20.2
		L12.6,20.2z"/>
	<path fill="#5A2D1D" d="M10.1,24.6c0,0,0.1-0.1,0.2-0.2c0.1-0.1,0.2-0.1,0.3-0.2c0.1-0.1,0.3-0.1,0.4-0.2c0.2,0,0.3-0.1,0.5-0.1
		c0.1,0,0.2,0,0.3,0c0.1,0,0.2,0,0.3,0c0.2,0,0.5,0.1,0.7,0.2c0.2,0.1,0.4,0.2,0.6,0.3c0.2,0.1,0.4,0.1,0.6,0c0.1,0,0.2,0,0.3-0.1
		c0.1,0,0.2,0,0.3-0.1c0.2-0.1,0.3-0.2,0.4-0.3c0.1-0.1,0.1-0.3,0.2-0.4c0-0.1,0-0.3-0.1-0.4C15,23.1,14.9,23,14.9,23
		c-0.1,0-0.1,0-0.2,0c0,0-0.1,0-0.1,0l0,0c0,0,0,0,0.1,0c0.1,0,0.1,0,0.2,0c0.1,0,0.3,0.1,0.4,0.2c0.1,0.1,0.2,0.3,0.2,0.5
		c0,0.2,0,0.4-0.1,0.6c-0.1,0.2-0.3,0.4-0.5,0.5c-0.1,0-0.2,0.1-0.3,0.1c-0.1,0-0.2,0-0.3,0c-0.2,0-0.5,0-0.7-0.1
		c-0.2-0.1-0.4-0.3-0.6-0.4c-0.2-0.1-0.4-0.2-0.5-0.2c-0.1,0-0.2,0-0.3,0c-0.1,0-0.2,0-0.3,0c-0.2,0-0.4,0-0.5,0.1
		c-0.2,0-0.3,0.1-0.4,0.1c-0.1,0.1-0.2,0.1-0.3,0.2C10.3,24.5,10.3,24.5,10.1,24.6C10.2,24.6,10.2,24.6,10.1,24.6L10.1,24.6z"/>
	<path fill="#5A2D1D" d="M5.2,25.7c0,0,0,0,0.1-0.1c0.1-0.1,0.2-0.1,0.3-0.2c0.1,0,0.2,0,0.2-0.1c0,0,0.1,0,0.1,0c0,0,0.1,0,0.1,0
		c0.1,0,0.2,0,0.3,0.1c0.1,0.1,0.2,0.1,0.2,0.1c0.1,0,0.1,0,0.2,0c0,0,0,0,0.1,0c0,0,0,0,0.1,0c0,0,0,0,0,0c0,0,0,0,0,0c0,0,0,0,0,0
		c0.1,0,0.1,0,0.1-0.1c0,0,0.1-0.1,0.1-0.1c0,0,0-0.1,0-0.1c0,0,0-0.1,0-0.1c0,0-0.1,0-0.1,0c0,0,0,0,0,0l0,0c0,0,0,0,0,0
		c0,0,0.1,0,0.1,0c0.1,0,0.1,0,0.2,0.1c0.1,0.1,0.1,0.2,0.1,0.3c0,0.1,0,0.2-0.1,0.3c-0.1,0.1-0.2,0.2-0.3,0.3c0,0-0.1,0-0.1,0l0,0
		c0,0,0,0,0,0c-0.1,0-0.1,0-0.2,0c-0.1,0-0.2,0-0.4-0.1c-0.1-0.1-0.2-0.1-0.3-0.2c-0.1,0-0.1-0.1-0.2-0.1c0,0-0.1,0-0.1,0
		c0,0-0.1,0-0.1,0c-0.1,0-0.2,0-0.2,0c-0.1,0-0.2,0.1-0.3,0.1C5.3,25.7,5.3,25.8,5.2,25.7L5.2,25.7z"/>
	<path fill="#5A2D1D" d="M5.3,22c0,0,0,0,0.1,0.1c0.1,0,0.2,0.1,0.3,0.1c0.1,0,0.1,0,0.2,0c0,0,0.1,0,0.1,0c0,0,0.1,0,0.1,0
		c0.1,0,0.1,0,0.2-0.1c0.1,0,0.1-0.1,0.3-0.2c0.1-0.1,0.3-0.1,0.4-0.1c0.1,0,0.1,0,0.2,0c0,0,0,0,0,0l0,0c0,0,0.1,0,0.1,0
		c0.1,0.1,0.2,0.1,0.3,0.3c0.1,0.1,0.1,0.2,0.1,0.3c0,0.1-0.1,0.2-0.1,0.3c-0.1,0.1-0.1,0.1-0.2,0.1c-0.1,0-0.1,0-0.1,0c0,0,0,0,0,0
		l0,0c0,0,0,0,0,0c0,0,0.1,0,0.1,0c0,0,0,0,0-0.1c0,0,0-0.1,0-0.1c0,0,0-0.1-0.1-0.1c0,0-0.1-0.1-0.1-0.1c0,0,0,0,0,0c0,0,0,0,0,0
		c0,0,0,0,0,0c0,0,0,0-0.1,0c0,0,0,0-0.1,0c-0.1,0-0.1,0-0.2,0c-0.1,0-0.1,0.1-0.2,0.1c-0.1,0.1-0.2,0.1-0.3,0.1c-0.1,0-0.1,0-0.1,0
		c-0.1,0-0.1,0-0.1,0c-0.1,0-0.2,0-0.2-0.1c-0.1-0.1-0.3-0.1-0.3-0.2C5.3,22.1,5.2,22.1,5.3,22L5.3,22z"/>
</g>
<g>
	<path fill="#5A2D1D" d="M19.8,22.7c0,0,0,0,0.1,0.1c0.1,0,0.2,0.1,0.4,0.1c0.2,0,0.4,0.1,0.6,0.1c0.2,0,0.5,0,0.8,0
		c0.1,0,0.1,0,0.2,0c0.1,0,0.2,0,0.2,0c0.2,0,0.3-0.1,0.5-0.1c0.1,0,0.2,0,0.2-0.1c0.1,0,0.2-0.1,0.2-0.1c0,0,0.1,0,0.1,0l0,0l0,0
		l0.1,0c0.1,0,0.2-0.1,0.3-0.1c0.3-0.2,0.6-0.3,0.9-0.6l0.1-0.1c0,0,0.1-0.1,0.1-0.1c0.1-0.1,0.1-0.1,0.2-0.2
		c0.1-0.2,0.2-0.3,0.4-0.5l0.1-0.1c0,0,0.1-0.1,0.1-0.1c0.1-0.1,0.2-0.1,0.2-0.2c0.2-0.1,0.4-0.2,0.5-0.3c0,0,0.1,0,0.1-0.1l0.1,0
		c0.1,0,0.2-0.1,0.3-0.1c0.1,0,0.2,0,0.3-0.1c0,0,0.1,0,0.1,0c0,0,0.1,0,0.1,0c0.1,0,0.2,0,0.3,0c0.1,0,0.2,0,0.3,0
		c0.2,0,0.4,0,0.6,0.1c0.1,0,0.2,0.1,0.3,0.2c0.1,0.1,0.2,0.2,0.2,0.3c0,0,0,0.1,0,0.2c0,0.1,0,0.1,0,0.2c0,0.1,0,0.1,0,0.1
		c0,0,0,0.1,0,0.1c-0.1,0.2-0.2,0.3-0.3,0.4c-0.1,0.1-0.2,0.2-0.3,0.3c-0.2,0.1-0.4,0.2-0.6,0.2c-0.2,0-0.3,0-0.4,0
		c-0.1,0-0.1,0-0.1,0l0,0c0,0,0,0,0.1,0c0,0,0.1,0,0.2,0c0.1,0,0.1,0,0.2-0.1c0.2-0.1,0.3-0.2,0.5-0.3c0.2-0.1,0.3-0.3,0.4-0.6
		c0-0.1,0-0.2,0-0.3c0,0-0.1-0.1-0.1-0.1c0,0-0.1-0.1-0.2-0.1c-0.1,0-0.3-0.1-0.4-0.1c-0.1,0-0.2,0-0.2,0c-0.1,0-0.2,0-0.3,0
		c0,0-0.1,0-0.1,0c0,0-0.1,0-0.1,0c-0.1,0-0.2,0-0.3,0c-0.1,0-0.2,0-0.3,0.1l-0.1,0c0,0-0.1,0-0.1,0c-0.3,0.1-0.6,0.3-0.9,0.6
		c-0.1,0.1-0.2,0.3-0.4,0.4c-0.1,0.1-0.1,0.2-0.2,0.2c0,0-0.1,0.1-0.1,0.1L24.7,22c-0.3,0.3-0.6,0.5-1,0.6c-0.1,0-0.2,0.1-0.3,0.1
		l-0.1,0l0,0l0,0c0,0-0.1,0-0.1,0c-0.1,0-0.2,0.1-0.3,0.1c-0.1,0-0.2,0-0.3,0.1c-0.2,0-0.3,0.1-0.5,0.1c-0.1,0-0.2,0-0.2,0
		c-0.1,0-0.2,0-0.2,0c-0.3,0-0.6,0-0.8,0c-0.2,0-0.4-0.1-0.6-0.1C19.9,22.8,19.8,22.7,19.8,22.7L19.8,22.7z"/>
	<path fill="#5A2D1D" d="M28.1,18.8c0,0,0.1-0.1,0.3-0.2c0.1,0,0.3-0.1,0.4-0.1c0.2,0,0.4,0,0.6,0c0.2,0,0.4,0,0.7,0.1
		c0.1,0,0.1,0,0.2,0c0.1,0,0.1,0,0.2,0.1l0.1,0l0,0l0,0l0,0c0.1,0,0.1,0,0.2,0.1c0.2,0.1,0.5,0.2,0.7,0.4c0.2,0.2,0.4,0.4,0.5,0.6
		c0.2,0.2,0.4,0.3,0.6,0.4c0.1,0,0.1,0,0.2,0.1c0.1,0,0.1,0,0.2,0c0.1,0,0.1,0,0.2,0l0.1,0l0.1,0c0.2,0,0.5,0,0.6,0c0,0,0.1,0,0.1,0
		c0,0,0,0,0.1-0.1c0,0,0-0.1,0-0.2c0-0.1-0.1-0.3-0.3-0.4c-0.1-0.1-0.2-0.2-0.3-0.2c-0.1,0-0.2-0.1-0.3-0.1c-0.1,0-0.1,0-0.1,0l0,0
		c0,0,0,0,0.1,0c0.1,0,0.2,0,0.3,0c0.1,0,0.3,0.1,0.4,0.2c0.1,0,0.2,0.1,0.2,0.2c0.1,0.1,0.1,0.2,0.2,0.3c0,0.1,0,0.1,0,0.2
		c0,0,0,0.1,0,0.1c0,0,0,0.1,0,0.1c0,0.1-0.1,0.1-0.2,0.2c-0.1,0.1-0.1,0.1-0.2,0.1c-0.1,0.1-0.3,0.1-0.4,0.1c-0.1,0-0.1,0-0.2,0
		c-0.1,0-0.1,0-0.2,0l-0.1,0c0,0-0.1,0-0.1,0c-0.1,0-0.1,0-0.2,0c-0.1,0-0.1,0-0.2-0.1c-0.1,0-0.1,0-0.2-0.1
		c-0.1-0.1-0.3-0.1-0.4-0.2c-0.1,0-0.1-0.1-0.2-0.1c0,0-0.1-0.1-0.1-0.1l-0.1-0.1c-0.2-0.2-0.3-0.5-0.5-0.6
		c-0.2-0.2-0.4-0.3-0.6-0.4c-0.1,0-0.1-0.1-0.2-0.1l0,0c0,0,0,0,0,0l0,0l-0.1,0c-0.1,0-0.1,0-0.2-0.1c-0.1,0-0.1,0-0.2,0
		c-0.2-0.1-0.4-0.1-0.6-0.1c-0.2,0-0.4,0-0.5,0c-0.2,0-0.3,0-0.4,0.1c-0.1,0-0.2,0.1-0.3,0.1C28.2,18.8,28.1,18.8,28.1,18.8
		L28.1,18.8z"/>
	<path fill="#5A2D1D" d="M25.6,23.2c0,0,0.1-0.1,0.2-0.2c0.1-0.1,0.2-0.1,0.3-0.2c0.1-0.1,0.3-0.1,0.4-0.2c0.2,0,0.3-0.1,0.5-0.1
		c0.1,0,0.2,0,0.3,0c0.1,0,0.2,0,0.3,0c0.2,0,0.5,0.1,0.7,0.2c0.2,0.1,0.4,0.2,0.6,0.3c0.2,0.1,0.4,0.1,0.6,0c0.1,0,0.2,0,0.3-0.1
		c0.1,0,0.2,0,0.3-0.1c0.2-0.1,0.3-0.2,0.4-0.3c0.1-0.1,0.1-0.3,0.2-0.4c0-0.1,0-0.3-0.1-0.4c-0.1-0.1-0.1-0.2-0.2-0.2
		c-0.1,0-0.1,0-0.2,0c0,0-0.1,0-0.1,0l0,0c0,0,0,0,0.1,0c0.1,0,0.1,0,0.2,0c0.1,0,0.3,0.1,0.4,0.2c0.1,0.1,0.2,0.3,0.2,0.5
		c0,0.2,0,0.4-0.1,0.6c-0.1,0.2-0.3,0.4-0.5,0.5c-0.1,0-0.2,0.1-0.3,0.1c-0.1,0-0.2,0-0.3,0c-0.2,0-0.5,0-0.7-0.1
		c-0.2-0.1-0.4-0.3-0.6-0.4c-0.2-0.1-0.4-0.2-0.5-0.2c-0.1,0-0.2,0-0.3,0c-0.1,0-0.2,0-0.3,0c-0.2,0-0.4,0-0.5,0.1
		c-0.2,0-0.3,0.1-0.4,0.1C26.1,22.9,26,23,25.9,23C25.8,23.1,25.8,23.1,25.6,23.2C25.7,23.2,25.7,23.2,25.6,23.2L25.6,23.2z"/>
	<path fill="#5A2D1D" d="M20.7,24.3c0,0,0,0,0.1-0.1c0.1-0.1,0.2-0.1,0.3-0.2c0.1,0,0.2,0,0.2-0.1c0,0,0.1,0,0.1,0c0,0,0.1,0,0.1,0
		c0.1,0,0.2,0,0.3,0.1c0.1,0.1,0.2,0.1,0.2,0.1c0.1,0,0.1,0,0.2,0c0,0,0,0,0.1,0c0,0,0,0,0.1,0c0,0,0,0,0,0c0,0,0,0,0,0c0,0,0,0,0,0
		c0.1,0,0.1,0,0.1-0.1c0,0,0.1-0.1,0.1-0.1c0,0,0-0.1,0-0.1c0,0,0-0.1,0-0.1c0,0-0.1,0-0.1,0c0,0,0,0,0,0l0,0c0,0,0,0,0,0
		c0,0,0.1,0,0.1,0c0.1,0,0.1,0,0.2,0.1c0.1,0.1,0.1,0.2,0.1,0.3c0,0.1,0,0.2-0.1,0.3c-0.1,0.1-0.2,0.2-0.3,0.3c0,0-0.1,0-0.1,0l0,0
		c0,0,0,0,0,0c-0.1,0-0.1,0-0.2,0c-0.1,0-0.2,0-0.4-0.1c-0.1-0.1-0.2-0.1-0.3-0.2c-0.1,0-0.1-0.1-0.2-0.1c0,0-0.1,0-0.1,0
		c0,0-0.1,0-0.1,0c-0.1,0-0.2,0-0.2,0c-0.1,0-0.2,0.1-0.3,0.1C20.8,24.3,20.8,24.4,20.7,24.3L20.7,24.3z"/>
	<path fill="#5A2D1D" d="M20.8,20.6c0,0,0,0,0.1,0.1c0.1,0,0.2,0.1,0.3,0.1c0.1,0,0.1,0,0.2,0c0,0,0.1,0,0.1,0c0,0,0.1,0,0.1,0
		c0.1,0,0.1,0,0.2-0.1c0.1,0,0.1-0.1,0.3-0.2c0.1-0.1,0.3-0.1,0.4-0.1c0.1,0,0.1,0,0.2,0c0,0,0,0,0,0l0,0c0,0,0.1,0,0.1,0
		c0.1,0.1,0.2,0.1,0.3,0.3c0.1,0.1,0.1,0.2,0.1,0.3c0,0.1-0.1,0.2-0.1,0.3c-0.1,0.1-0.1,0.1-0.2,0.1c-0.1,0-0.1,0-0.1,0c0,0,0,0,0,0
		l0,0c0,0,0,0,0,0c0,0,0.1,0,0.1,0c0,0,0,0,0-0.1c0,0,0-0.1,0-0.1c0,0,0-0.1-0.1-0.1c0,0-0.1-0.1-0.1-0.1c0,0,0,0,0,0c0,0,0,0,0,0
		c0,0,0,0,0,0c0,0,0,0-0.1,0c0,0,0,0-0.1,0c-0.1,0-0.1,0-0.2,0c-0.1,0-0.1,0.1-0.2,0.1c-0.1,0.1-0.2,0.1-0.3,0.1c-0.1,0-0.1,0-0.1,0
		c-0.1,0-0.1,0-0.1,0c-0.1,0-0.2,0-0.2-0.1c-0.1-0.1-0.3-0.1-0.3-0.2C20.8,20.7,20.7,20.7,20.8,20.6L20.8,20.6z"/>
</g>
<path fill="#5A2D1D" d="M35,21.2c0,0,0,0,0.1,0.1c0.1,0.1,0.2,0.1,0.3,0.2c0.2,0.1,0.3,0.2,0.6,0.2c0.2,0.1,0.5,0.1,0.8,0.2
	c0.1,0,0.1,0,0.2,0c0.1,0,0.2,0,0.2,0c0.2,0,0.3,0,0.5,0c0.1,0,0.2,0,0.3,0c0.1,0,0.2,0,0.3,0c0,0,0.1,0,0.1,0l0,0l0,0l0.1,0
	c0.1,0,0.2,0,0.3,0c0.3-0.1,0.7-0.2,1-0.4l0.1-0.1c0,0,0.1-0.1,0.1-0.1c0.1-0.1,0.1-0.1,0.2-0.2c0.1-0.1,0.3-0.3,0.5-0.4l0.1-0.1
	c0,0,0.1-0.1,0.1-0.1c0.1-0.1,0.2-0.1,0.3-0.1c0.2-0.1,0.4-0.1,0.6-0.2c0.1,0,0.1,0,0.2,0l0.2,0c0.1,0,0.2,0,0.3,0
	c0.1,0,0.2,0,0.3,0c0.1,0,0.1,0,0.1,0c0,0,0.1,0,0.1,0c0.1,0,0.2,0,0.3,0c0.1,0,0.2,0,0.3,0.1c0.2,0,0.4,0.1,0.5,0.2
	c0.1,0.1,0.2,0.1,0.2,0.2c0.1,0.1,0.1,0.2,0.1,0.3c0,0.1,0,0.1,0,0.2c0,0.1,0,0.1,0,0.2c0,0,0,0.1-0.1,0.1c0,0,0,0.1-0.1,0.1
	c-0.1,0.1-0.2,0.3-0.3,0.3c-0.1,0.1-0.2,0.1-0.4,0.2c-0.2,0.1-0.5,0.1-0.6,0.1c-0.2,0-0.3,0-0.4-0.1c-0.1,0-0.1,0-0.1,0l0,0
	c0,0,0,0,0.1,0c0,0,0.1,0,0.2,0c0.1,0,0.1,0,0.2,0c0.2,0,0.4-0.1,0.6-0.2c0.2-0.1,0.4-0.3,0.5-0.5c0.1-0.1,0.1-0.2,0-0.3
	c0,0,0-0.1-0.1-0.1c0,0-0.1-0.1-0.1-0.1c-0.1-0.1-0.3-0.1-0.4-0.2c-0.1,0-0.2,0-0.2,0c-0.1,0-0.2,0-0.3,0c0,0-0.1,0-0.1,0
	c0,0-0.1,0-0.1,0c-0.1,0-0.2,0-0.3,0c-0.1,0-0.2,0-0.3,0l-0.1,0c0,0-0.1,0-0.1,0c-0.4,0-0.7,0.2-1,0.4c-0.2,0.1-0.3,0.2-0.5,0.4
	c-0.1,0.1-0.2,0.1-0.2,0.2c0,0-0.1,0.1-0.1,0.1l-0.1,0.1c-0.4,0.2-0.7,0.3-1.1,0.4c-0.1,0-0.2,0-0.3,0l-0.1,0l0,0l0,0
	c0,0-0.1,0-0.1,0c-0.1,0-0.2,0-0.3,0c-0.1,0-0.2,0-0.3,0c-0.2,0-0.3,0-0.5,0c-0.1,0-0.2,0-0.2,0c-0.1,0-0.2,0-0.2,0
	c-0.3,0-0.6-0.1-0.8-0.2c-0.2-0.1-0.4-0.2-0.6-0.3C35.1,21.4,34.9,21.3,35,21.2L35,21.2z"/>
<path fill="#5A2D1D" d="M40.6,23c0,0,0.1-0.1,0.3-0.2c0.1,0,0.2-0.1,0.3-0.1c0.1,0,0.3-0.1,0.5-0.1c0.2,0,0.4,0,0.6,0
	c0.1,0,0.2,0,0.3,0c0.1,0,0.2,0,0.3,0.1c0.2,0.1,0.4,0.2,0.6,0.3c0.2,0.2,0.3,0.3,0.5,0.4c0.2,0.1,0.4,0.1,0.6,0.1
	c0.1,0,0.2,0,0.3,0c0.1,0,0.2,0,0.3,0c0.2,0,0.3-0.1,0.4-0.2c0.1-0.1,0.2-0.2,0.2-0.4c0-0.1,0-0.3,0-0.4c0-0.1-0.1-0.2-0.2-0.2
	c-0.1,0-0.1-0.1-0.2-0.1c0,0-0.1,0-0.1,0l0,0c0,0,0,0,0.1,0c0.1,0,0.1,0,0.3,0c0.1,0,0.2,0.1,0.3,0.3C46,22.8,46,23,46,23.2
	c0,0.2-0.1,0.4-0.3,0.6c-0.2,0.2-0.4,0.3-0.6,0.3c-0.1,0-0.2,0-0.4,0c-0.1,0-0.2,0-0.3,0c-0.2,0-0.5-0.1-0.7-0.3
	c-0.2-0.2-0.4-0.3-0.5-0.5c-0.1-0.1-0.3-0.2-0.5-0.3c-0.1,0-0.2-0.1-0.3-0.1c-0.1,0-0.2,0-0.3-0.1c-0.2,0-0.4-0.1-0.5-0.1
	c-0.2,0-0.3,0-0.4,0c-0.1,0-0.2,0.1-0.3,0.1C40.8,22.9,40.7,23,40.6,23C40.6,23,40.6,23,40.6,23L40.6,23z"/>
<path fill="#5A2D1D" d="M35.5,23.1c0,0,0,0,0.1-0.1c0.1,0,0.2-0.1,0.4-0.1c0.1,0,0.2,0,0.3,0c0,0,0.1,0,0.1,0c0,0,0.1,0,0.1,0
	c0.1,0,0.2,0.1,0.3,0.2c0.1,0.1,0.2,0.1,0.2,0.2c0.1,0,0.1,0,0.2,0c0,0,0,0,0.1,0c0,0,0,0,0.1,0c0,0,0,0,0,0c0,0,0,0,0,0
	c0,0,0,0,0,0c0.1,0,0.1,0,0.1,0c0,0,0.1-0.1,0.1-0.1c0,0,0-0.1,0-0.1c0,0,0-0.1,0-0.1c0,0,0,0-0.1-0.1c0,0,0,0,0,0l0,0c0,0,0,0,0,0
	c0,0,0.1,0,0.1,0c0.1,0,0.1,0.1,0.2,0.1C38,23,38,23.1,38,23.2c0,0.1-0.1,0.2-0.1,0.3c-0.1,0.1-0.2,0.2-0.3,0.2c0,0-0.1,0-0.1,0
	l-0.1,0c0,0,0,0,0,0c-0.1,0-0.1,0-0.2,0c-0.1,0-0.2-0.1-0.3-0.2c-0.1-0.1-0.2-0.2-0.2-0.2c-0.1-0.1-0.1-0.1-0.2-0.1c0,0-0.1,0-0.1,0
	c0,0-0.1,0-0.1,0c-0.1,0-0.1,0-0.2,0c-0.1,0-0.3,0-0.3,0C35.6,23.1,35.6,23.1,35.5,23.1L35.5,23.1z"/>
<path fill="#5A2D1D" d="M36.4,19.5C36.4,19.5,36.4,19.5,36.4,19.5c0.1,0.1,0.2,0.2,0.4,0.3c0.1,0,0.1,0,0.2,0.1c0,0,0.1,0,0.1,0
	c0,0,0.1,0,0.1,0c0.1,0,0.1,0,0.2,0c0.1,0,0.2-0.1,0.3-0.1c0.1,0,0.3,0,0.4,0c0.1,0,0.1,0,0.2,0.1c0,0,0,0,0,0l0,0
	c0,0,0.1,0,0.1,0.1c0.1,0.1,0.2,0.2,0.2,0.3c0,0.1,0,0.2,0,0.3c0,0.1-0.1,0.2-0.2,0.2c-0.1,0-0.2,0.1-0.2,0c-0.1,0-0.1,0-0.1-0.1
	c0,0,0,0,0,0l0,0c0,0,0,0,0,0c0,0,0.1,0,0.1,0c0,0,0,0,0.1-0.1c0,0,0-0.1,0-0.1c0,0,0-0.1,0-0.1c0,0-0.1-0.1-0.1-0.1c0,0,0,0,0,0
	c0,0,0,0,0,0c0,0,0,0,0,0c0,0,0,0,0,0c0,0,0,0-0.1,0c-0.1,0-0.1-0.1-0.2-0.1c-0.1,0-0.1,0-0.3,0.1c-0.1,0-0.2,0-0.3,0
	c-0.1,0-0.1,0-0.1,0c-0.1,0-0.1,0-0.1,0c-0.1,0-0.2-0.1-0.2-0.1c-0.1-0.1-0.2-0.2-0.3-0.3C36.3,19.5,36.3,19.5,36.4,19.5L36.4,19.5z
	"/>
<g>
	<path fill="#5A2D1D" d="M7.6,39.6c1.4,0.6,2.8-0.5,3.9-1.1c0.9-0.6,1.8-1.1,2.8-1.5c1-0.4,2.3-0.8,3.4-0.4c0.7,0.3,1.7,0.7,1.8,1.6
		c0.1,0.9-0.9,1.5-1.6,1.8c-0.8,0.3-2,0.2-2.3-0.7c-0.4-1.1,0.9-0.9,1.4-0.7c0.3,0.1,0.4-0.3,0.1-0.4c-0.5-0.1-1.4-0.4-1.8,0.2
		c-0.5,0.7,0,1.6,0.7,2c1.4,0.9,4-0.3,4-2.1c0-1-1-1.5-1.8-1.9c-1.2-0.6-2.4-0.3-3.5,0.1c-1.2,0.4-2.4,1.1-3.5,1.8
		c-0.9,0.5-2.2,1.5-3.3,1C7.5,39.2,7.3,39.5,7.6,39.6L7.6,39.6z"/>
</g>
<g>
	<path fill="#5A2D1D" d="M19.7,35.9c0.9,0,1.8,0.4,2.7,0.6c1,0.3,2,0.4,3,1c0.8,0.5,1.5,1,2.3,1.4c0.9,0.4,1.8,0.8,2.7,1.1
		c1.4,0.4,3.5,0.5,4.8-0.4c0.5-0.3,1.6-1.4,0.5-1.7c-0.3-0.1-0.4,0.3-0.1,0.4c0.5,0.1-0.3,0.8-0.5,0.9c-0.6,0.4-1.3,0.6-2,0.6
		c-1.8,0.1-3.4-0.5-5-1.2c-1.3-0.6-2.4-1.6-3.8-2.1c-0.8-0.2-1.6-0.4-2.4-0.6c-0.7-0.2-1.4-0.4-2.1-0.4
		C19.4,35.5,19.4,35.9,19.7,35.9L19.7,35.9z"/>
</g>
<g>
	<path fill="#5A2D1D" d="M27.2,36.5c2,0.4,3.7,1.9,5.8,1.9c0.3,0,0.3-0.4,0-0.4c-2.1-0.1-3.7-1.5-5.7-1.9C27.1,36,27,36.4,27.2,36.5
		L27.2,36.5z"/>
</g>
<g>
	<path fill="#5A2D1D" d="M37.4,37.8c0.8-0.2,1.6-0.5,2.3-0.9c0.7-0.4,1.4-1,2.2-1.3c0.4-0.1,2.5-0.6,2.4,0c0,0.3,0.4,0.3,0.4,0
		c0.1-1.1-1.9-0.7-2.5-0.5c-0.7,0.1-1.3,0.4-1.9,0.8c-0.5,0.3-1,0.7-1.5,0.9c-0.5,0.2-1.1,0.4-1.6,0.5C37,37.4,37.1,37.8,37.4,37.8
		L37.4,37.8z"/>
</g>
<path fill="#5A2D1D" d="M1.6,33.8c0,0,2.5-1.5,2.5-1.5c0,0,0.1-0.1,0.2-0.1c0.1-0.1,0.4-0.2,0.6-0.3c0.3-0.1,0.6-0.3,1-0.4
	c0.2-0.1,0.4-0.2,0.6-0.2C6.8,31.1,7,31,7.3,31c0.2-0.1,0.5-0.2,0.8-0.3c0.3-0.1,0.5-0.2,0.8-0.3c0.3-0.1,0.6-0.2,0.9-0.3
	c0.3-0.1,0.6-0.2,0.9-0.2c0.3-0.1,0.6-0.2,0.9-0.2c0.2,0,0.3-0.1,0.5-0.1c0.2,0,0.3-0.1,0.5-0.1c0.3-0.1,0.7-0.1,1-0.2
	c0.3-0.1,0.7-0.1,1-0.2c0.3-0.1,0.7-0.1,1-0.2c0.3,0,0.7-0.1,1-0.1c0.7-0.1,1.3-0.2,2-0.2c1.3-0.1,2.5-0.3,3.5-0.3
	c1-0.1,1.9-0.1,2.5-0.1c0.1,0,0.3,0,0.4,0c0.1,0,0.2,0,0.3,0c0,0,0,0,0,0c0,0,0,0,0,0c0,0,0,0-0.1,0c0,0-0.1,0-0.1,0s0,0,0.1,0
	c0,0,0,0,0.1,0c0,0,0,0,0,0c0,0,0,0,0,0c-0.1,0-0.2,0-0.3,0c-0.1,0-0.2,0-0.4,0c-0.6,0-1.4,0.1-2.5,0.2c-1,0.1-2.2,0.3-3.5,0.5
	c-0.6,0.1-1.3,0.2-1.9,0.3c-0.3,0.1-0.7,0.1-1,0.2c-0.3,0.1-0.7,0.1-1,0.2c-0.3,0.1-0.7,0.1-1,0.2c-0.3,0.1-0.7,0.2-1,0.2
	c-0.2,0-0.3,0.1-0.5,0.1c-0.2,0-0.3,0.1-0.5,0.1c-0.3,0.1-0.6,0.2-0.9,0.3c-0.3,0.1-0.6,0.2-0.9,0.3C9.6,30.9,9.3,31,9,31.1
	c-0.3,0.1-0.5,0.2-0.8,0.3c-0.3,0.1-0.5,0.2-0.7,0.3c-0.2,0.1-0.5,0.2-0.7,0.3c-0.2,0.1-0.4,0.2-0.6,0.3c-0.4,0.2-0.7,0.3-1,0.5
	C5,32.8,4.8,32.9,4.7,33C4.6,33,4.6,33,4.5,33c0,0-2.5,1.8-2.5,1.8L1.6,33.8z"/>
<path fill="#5A2D1D" d="M1,18c0,0,1.9-0.9,1.9-0.9c0,0,0.1,0,0.2-0.1c0.2-0.1,0.4-0.1,0.7-0.2c0.3-0.1,0.6-0.2,1-0.3
	c0.2-0.1,0.4-0.1,0.6-0.2c0.2-0.1,0.5-0.1,0.7-0.2C6.4,16.1,6.7,16.1,7,16c0.3-0.1,0.6-0.1,0.8-0.2c0.3-0.1,0.6-0.1,0.9-0.2
	c0.3,0,0.6-0.1,0.9-0.1c0.3,0,0.6-0.1,1-0.1c0.2,0,0.3,0,0.5-0.1c0.2,0,0.3,0,0.5,0c0.3,0,0.7-0.1,1-0.1c0.3,0,0.7,0,1-0.1
	c0.3,0,0.7,0,1,0c0.3,0,0.7,0,1,0c0.7,0,1.3,0,2,0c1.3,0,2.5,0,3.5,0.1c1,0,1.9,0.1,2.5,0.1c0.1,0,0.3,0,0.4,0.1
	c0.1,0,0.2,0,0.3,0.1c0,0,0,0,0,0c0,0,0,0,0,0c0,0-0.1,0-0.1,0c0,0-0.1,0-0.1,0s0,0,0.1,0c0,0,0,0,0.1,0c0,0,0,0,0,0c0,0,0,0,0,0
	c-0.1,0-0.2-0.1-0.3-0.1c-0.1,0-0.2,0-0.4,0c-0.6,0-1.4-0.1-2.5,0c-1,0-2.2,0-3.5,0.1c-0.6,0-1.3,0.1-2,0.1c-0.3,0-0.7,0-1,0.1
	c-0.3,0-0.7,0-1,0.1c-0.3,0-0.7,0.1-1,0.1c-0.3,0-0.7,0.1-1,0.1c-0.2,0-0.3,0-0.5,0.1c-0.2,0-0.3,0.1-0.5,0.1
	c-0.3,0.1-0.6,0.1-1,0.2c-0.3,0.1-0.6,0.1-0.9,0.2c-0.3,0.1-0.6,0.1-0.9,0.2c-0.3,0.1-0.6,0.1-0.8,0.2c-0.3,0.1-0.5,0.1-0.8,0.2
	C6.1,17,5.9,17,5.7,17.1c-0.2,0.1-0.4,0.1-0.6,0.2c-0.4,0.1-0.7,0.2-1,0.3c-0.3,0.1-0.5,0.2-0.6,0.2c-0.1,0-0.1,0.1-0.2,0.1
	c0,0-2.6,1.2-2.6,1.2L1,18z"/>
<path fill="#5A2D1D" d="M3.5,12.3c0,0,4.1-1.3,4.5-1.4c0.4-0.1,1-0.3,1.8-0.5c0.4-0.1,0.8-0.2,1.2-0.3c0.4-0.1,0.9-0.2,1.3-0.3
	c0.5-0.1,0.9-0.2,1.4-0.3c0.5-0.1,1-0.2,1.5-0.3c0.5-0.1,1-0.2,1.5-0.3c0.5-0.1,1-0.2,1.4-0.2c0.1,0,0.2,0,0.3-0.1
	c0.1,0,0.2,0,0.3,0c0.2,0,0.4-0.1,0.7-0.1c0.4,0,0.8-0.1,1.2-0.1c0.4,0,0.7-0.1,1-0.1c0.3,0,0.6-0.1,0.8-0.1c0.2,0,0.4,0,0.5,0
	c0.1,0,0.2,0,0.2,0s-0.1,0-0.2,0c-0.1,0-0.3,0-0.5,0.1c-0.2,0-0.5,0.1-0.8,0.1c-0.3,0-0.6,0.1-1,0.2c-0.4,0.1-0.8,0.1-1.2,0.2
	c-0.2,0-0.4,0.1-0.7,0.1c-0.1,0-0.2,0-0.3,0.1c-0.1,0-0.2,0-0.3,0.1C17.6,9,17.1,9,16.6,9.2c-0.5,0.1-1,0.2-1.4,0.4
	c-0.5,0.1-1,0.3-1.4,0.4c-0.5,0.1-0.9,0.3-1.4,0.4c-0.4,0.1-0.9,0.3-1.3,0.4c-0.4,0.1-0.8,0.3-1.2,0.4c-0.7,0.2-1.3,0.4-1.7,0.6
	c-0.4,0.1-5.4,1.8-5.4,1.8L3.5,12.3z"/>
</svg>
