<?xml version="1.0" encoding="utf-8"?>
<!-- Generator: Adobe Illustrator 18.0.0, SVG Export Plug-In . SVG Version: 6.00 Build 0)  -->
<!DOCTYPE svg PUBLIC "-//W3C//DTD SVG 1.1//EN" "http://www.w3.org/Graphics/SVG/1.1/DTD/svg11.dtd">
<svg version="1.1" id="Layer_1" xmlns="http://www.w3.org/2000/svg" xmlns:xlink="http://www.w3.org/1999/xlink" x="0px" y="0px"
	 viewBox="0 0 50 50" enable-background="new 0 0 50 50" xml:space="preserve">
<g>
	<path fill="#FFFFFF" d="M25,49.9c-6.7,0-12.9-2.6-17.7-7.3C2.6,37.9,0,31.6,0,25S2.6,12,7.3,7.3C12,2.6,18.3,0,25,0
		s12.9,2.6,17.7,7.3c4.7,4.7,7.3,11,7.3,17.7s-2.6,12.9-7.3,17.7C37.9,47.3,31.6,49.9,25,49.9z M25,3.3C13,3.3,3.3,13,3.3,25
		c0,12,9.7,21.7,21.7,21.7c12,0,21.7-9.7,21.7-21.7C46.7,13,36.9,3.3,25,3.3z"/>
</g>
<path fill="#FFFFFF" d="M32.8,2.9c0,0-4.3,3.2-5.8,3.4s-4,0.1-5.6,0.5C20.2,7.2,17,8.2,16,7.3s-5.8-0.2-5.8-0.2l11.1-5L32.8,2.9z"/>
<path fill="#FFFFFF" d="M17.1,47c0,0,4.5-3,6-3.2c1.5-0.2,4,0.1,5.6-0.3c1.2-0.3,4.4-1.2,5.4-0.2c0.9,0.9,5.7,0.5,5.7,0.5l-11.3,4.5
	L17.1,47z"/>
<g>
	<path fill="#FFFFFF" d="M5.3,25.8c1.1,0.1,2.1-1.2,2.8-1.9c0.4-0.5,0.8-0.9,1.3-1.3c0.6-0.5,1.2-0.5,2-0.5c0.4,0,1.2-0.3,1.6,0
		c0,0,0.1-0.1-0.1,0c-0.1,0.1-0.1,0.2-0.1,0.3c0,0.3,0,0.5-0.1,0.8c-0.2,0.6,0.3,1.1,0.6,1.5c0.4,0.6,1,1.2,1.8,1.5
		c0.1,0,0.3,0,0.3-0.1c0.8-1.5,3.4-1.1,4.8-1.1c0.1,0,0.2-0.1,0.3-0.2c0.2-0.9,1.5-1.2,2.2-1.4c0.8-0.3,1.8-0.4,2.5-0.9
		c1.1-0.7,0.7-2,0.4-3.1c-0.1-0.3-0.3-0.8,0-1c0.5-0.3,1.1-0.5,1.6-0.9c0.4-0.3,0.8-0.7,1.1-1.1c0.4-0.5,0.7-1.1,1.1-1.6
		c0.8-0.9,2.5-0.3,3.4,0.2c0.9,0.4,1.2,1.1,1.3,2c0.1,0.9,0,1.9-0.2,2.8c-0.2,0.9-0.7,2.8-1.9,2.6c-0.2,0-0.5,0.2-0.3,0.4
		c1.2,1.6,2.8,2.8,4.6,3.7c0.5,0.2,1.1,0.5,1.6,0.3c0.6-0.2,0.9-0.9,1.2-1.4c0.6-1.1,1.3-2.4,1.3-3.7c0-1.5-2.1-1.3-2.8-2.2
		c-0.1,0.1-0.2,0.3-0.2,0.4c0.6,0,1.3,0.2,1.9,0.4c0.7,0.2,1.5,0.5,2.3,0.6c0.5,0.1,1.1,0.1,1.5-0.2c0.5-0.5,0.4-1.4,0.8-1.9
		c-0.1,0-0.3,0-0.4,0c0.5,0.4,0.3,1.3,0.8,1.8c0.6,0.6,1.2-0.5,1.7-0.7c0.3-0.1,0-0.6-0.3-0.5c-0.3,0.1-0.4,0.3-0.6,0.5
		c-0.1,0.1-0.3,0.3-0.4,0.3c-0.1-0.1-0.1-0.3-0.2-0.4c-0.1-0.5-0.2-1.1-0.6-1.4c-0.1-0.1-0.3-0.1-0.4,0c-0.4,0.5-0.5,1.2-0.7,1.7
		c-0.2,0.5-1.1,0.3-1.5,0.2c-1.3-0.3-2.5-1-3.8-0.9c-0.2,0-0.4,0.2-0.2,0.4c0.3,0.4,0.7,0.6,1.1,0.8c0.5,0.2,1.2,0.4,1.5,0.8
		c0.3,0.4,0,1.1-0.2,1.5c-0.2,0.6-0.5,1.2-0.8,1.8c-0.2,0.5-0.5,1-0.8,1.4c-0.5,0.5-1.1,0.2-1.6,0c-1.6-0.8-3.1-2-4.3-3.5
		c-0.1,0.1-0.2,0.3-0.3,0.4c1.6,0.2,2.3-1.7,2.6-3c0.2-0.9,0.3-1.8,0.2-2.7c0-0.6-0.1-1.5-0.6-2C33.2,14.4,32,14,31,13.9
		c-1-0.2-1.8,0.1-2.4,1c-0.3,0.5-0.6,1.1-1.1,1.6c-0.5,0.5-1,0.9-1.6,1.2c-0.3,0.2-0.7,0.3-0.9,0.6c-0.2,0.3-0.1,0.6-0.1,0.9
		c0.2,0.9,0.8,2.2-0.1,2.9c-0.5,0.4-1.3,0.5-1.9,0.7c-1.1,0.3-2.8,0.7-3.1,1.9c0.1-0.1,0.2-0.1,0.3-0.2c-1.6,0-4.4-0.4-5.3,1.4
		c0.1,0,0.2-0.1,0.3-0.1c-0.8-0.3-1.5-1.1-1.9-1.9c-0.1-0.2-0.1-0.4,0-0.6c0.1-0.3,0-0.6,0.1-0.8c0.3-0.4-0.1-0.8-0.4-0.9
		c-0.5-0.2-1.1,0-1.6,0c-0.6,0-1.2,0-1.7,0.2c-0.5,0.2-0.9,0.7-1.3,1.1c-0.4,0.5-0.9,1-1.3,1.5c-0.4,0.4-1,1-1.6,1
		C5,25.2,5,25.8,5.3,25.8L5.3,25.8z"/>
</g>
<g>
	<path fill="#FFFFFF" d="M43.4,27.6c-0.8,0-1.7-0.4-2.4,0.2c-0.4,0.3-0.4,0.8-0.5,1.3c-0.1,0.8-1,0.7-1.5,1c-0.3,0.2,0,0.6,0.3,0.5
		c0.4-0.2,0.9-0.2,1.3-0.5c0.4-0.2,0.4-0.6,0.5-1c0.1-0.6,0.2-1.1,0.9-1c0.5,0,0.9,0.2,1.4,0.1C43.7,28.2,43.7,27.6,43.4,27.6
		L43.4,27.6z"/>
</g>
<g>
	<path fill="#FFFFFF" d="M36.5,34.5c-1.2,0-2.3,0.5-3.1,1.4c-0.4,0.4-0.7,1-1,1.5c-0.3,0.5-0.7,0.9-1.2,1.2c-1.2,0.9-2.6,1.7-4.1,2
		c-1.1,0.2-2.4-0.2-3.4-0.5c-0.5-0.2-1-0.4-1.4-0.7c-0.5-0.4-0.6-1.1-0.5-1.7c0.2-1.2,0.8-2.4,1.3-3.4c0.3-0.5,0.7-1,1.2-1.3
		c0.6-0.4,1.3-0.2,1.9,0.2c0.6,0.4,0.8,1.1,1.3,1.5c0.2,0.2,0.4,0.3,0.6,0.4c0.4,0.2,0.4,0.7,0.3,1c-0.2,0.7-1.1,0.9-1.7,0.8
		c-0.4,0-0.3,0.5,0,0.5c1,0.1,2-0.4,2.2-1.4c0.1-0.4,0-1-0.3-1.3c-0.1-0.2-0.3-0.2-0.5-0.3c-0.4-0.2-0.6-0.5-0.8-0.9
		c-0.6-0.9-1.6-1.7-2.8-1.4c-1,0.3-1.7,1.3-2.1,2.2c-0.5,1-1,2.1-1.2,3.3c-0.1,1.1,0.2,1.9,1.1,2.4c1,0.6,2.1,0.8,3.2,1
		c1.3,0.2,2.4-0.1,3.6-0.6c1.3-0.6,2.7-1.4,3.6-2.6c0.5-0.6,0.8-1.4,1.4-1.9c0.6-0.6,1.5-0.9,2.4-0.9C36.9,35.1,36.9,34.5,36.5,34.5
		L36.5,34.5z"/>
</g>
<g>
	<path fill="#FFFFFF" d="M17.7,36.7c-0.8-0.1-1.6,0.1-2.3,0.6c-0.3,0.3-0.5,0.7-0.6,1.1c-0.1,0.4,0,0.9-0.3,1.2
		c-0.5,0.6-1.4,0.7-2.1,0.8c-0.7,0.1-1.5,0.1-2.2,0.1c-0.4,0-0.4,0.5,0,0.5c1.4,0,2.9,0,4.2-0.7c0.6-0.3,0.9-0.9,1-1.6
		c0.1-0.6,0.2-1.1,0.8-1.4c0.5-0.3,1.1-0.3,1.6-0.3C18,37.3,18,36.7,17.7,36.7L17.7,36.7z"/>
</g>
<g>
	<path fill="#FFFFFF" d="M40.6,9.6c-0.8,0-1.4,0.4-2,0.9c-0.7,0.6-1.4,0.9-2.3,0.6c-0.3-0.1-0.5,0.4-0.1,0.5
		c0.8,0.3,1.6,0.2,2.4-0.3c0.7-0.5,1.3-1.2,2.2-1.2C40.9,10.2,40.9,9.6,40.6,9.6L40.6,9.6z"/>
</g>
<g>
	<path fill="#FFFFFF" d="M25.1,12.5c-0.9-0.3-1.7-0.8-2.7-0.7c-0.9,0.1-1.4,0.8-2,1.4c-0.7,0.8-1.8,1.2-2.7,1.6
		c-1,0.4-2,0.8-2.9,1.4c-0.4,0.2-0.8,0.5-1.2,0.6c-0.5,0.1-1.1-0.2-1.5-0.3c-0.9-0.4-1.8-0.6-2.7-0.3c-0.9,0.2-1.8,0.7-2.7,1
		c-1,0.4-1.9,0.2-2.9-0.4c-0.3-0.2-0.6,0.3-0.3,0.5c0.7,0.5,1.5,0.8,2.4,0.7c0.9-0.1,1.7-0.6,2.5-0.9c1.1-0.4,2.1-0.5,3.2-0.1
		c0.8,0.3,1.6,0.7,2.5,0.3c0.8-0.3,1.6-0.9,2.4-1.3c1.1-0.5,2.1-0.9,3.2-1.5c0.4-0.2,0.8-0.5,1.1-0.8c0.3-0.3,0.6-0.7,1-1
		c1-0.7,2.2,0.1,3.2,0.4C25.3,13.1,25.5,12.6,25.1,12.5L25.1,12.5z"/>
</g>
<g>
	<path fill="#FFFFFF" d="M5.9,13.5c1.3,0,2.5-0.3,3.8-0.1c0.4,0.1,0.8,0.4,1.3,0.5c0.5,0.1,0.9-0.1,1.3-0.3c0.3-0.2,0-0.7-0.3-0.5
		c-0.5,0.3-0.9,0.3-1.4,0.1c-0.4-0.2-0.7-0.3-1.2-0.3c-1.2-0.1-2.4,0.1-3.5,0.1C5.5,12.9,5.5,13.5,5.9,13.5L5.9,13.5z"/>
</g>
<g>
	<path fill="#FFFFFF" d="M6.4,37.3c0.9-0.2,1.8-0.5,2.8-0.4c0.4,0,0.3-0.5,0-0.5c-1-0.1-1.9,0.2-2.9,0.4C5.9,36.9,6.1,37.4,6.4,37.3
		L6.4,37.3z"/>
</g>
<g>
	<path fill="#FFFFFF" d="M38.2,6c-1.5,0.1-2.8,1-4.3,1.1c-0.7,0-0.7,1.1,0,1.1c1.5-0.1,2.8-1,4.3-1.1C38.9,7,38.9,5.9,38.2,6L38.2,6
		z"/>
</g>
</svg>
