<?xml version="1.0" encoding="utf-8"?>
<!-- Generator: Adobe Illustrator 17.0.0, SVG Export Plug-In . SVG Version: 6.00 Build 0)  -->
<!DOCTYPE svg PUBLIC "-//W3C//DTD SVG 1.1//EN" "http://www.w3.org/Graphics/SVG/1.1/DTD/svg11.dtd">
<svg version="1.1" id="Layer_1" xmlns="http://www.w3.org/2000/svg" xmlns:xlink="http://www.w3.org/1999/xlink" x="0px" y="0px"
	 width="50px" height="50px" viewBox="0 0 50 50" enable-background="new 0 0 50 50" xml:space="preserve">
<g>
	<radialGradient id="SVGID_1_" cx="39.8177" cy="8.3736" r="38.7983" gradientUnits="userSpaceOnUse">
		<stop  offset="0" style="stop-color:#D9BD9D"/>
		<stop  offset="0.1811" style="stop-color:#D5B897"/>
		<stop  offset="0.4117" style="stop-color:#CBAB88"/>
		<stop  offset="0.6692" style="stop-color:#BE9872"/>
		<stop  offset="0.9444" style="stop-color:#AD8156"/>
		<stop  offset="1" style="stop-color:#A97C50"/>
	</radialGradient>
	<circle fill="url(#SVGID_1_)" cx="25" cy="25.054" r="24.927"/>
	<circle fill="#785936" cx="39.98" cy="25.644" r="1.895"/>
	<circle fill="#785936" cx="35.006" cy="31.578" r="1.895"/>
	<circle fill="#785936" cx="36.19" cy="12.812" r="1.895"/>
	<circle fill="#785936" cx="16.65" cy="43.514" r="1.895"/>
	<circle fill="#785936" cx="5.9" cy="18.756" r="1.895"/>
	<circle fill="#785936" cx="9.689" cy="28.761" r="1.895"/>
	<g>
		<path fill="#785936" d="M31.808,11.968c-1.115-0.066-2.181-0.353-3.237-0.7c-0.364-0.12-0.518,0.452-0.157,0.571
			c1.107,0.364,2.227,0.652,3.395,0.721C32.19,12.582,32.188,11.99,31.808,11.968L31.808,11.968z"/>
	</g>
	<g>
		<path fill="#785936" d="M34.31,9.846c-1.757-0.605-3.205-1.787-4.737-2.8c-1.51-0.998-3.165-1.759-4.885-2.316
			c-1.75-0.567-3.587-0.868-5.373-1.308c-1.745-0.43-3.526-0.847-5.335-0.811c-0.381,0.008-0.382,0.6,0,0.592
			c1.829-0.037,3.617,0.405,5.381,0.84c1.787,0.44,3.611,0.753,5.364,1.321c1.739,0.563,3.366,1.398,4.882,2.415
			c1.465,0.983,2.859,2.056,4.546,2.638C34.514,10.542,34.669,9.97,34.31,9.846L34.31,9.846z"/>
	</g>
	<g>
		<path fill="#785936" d="M33.762,16.053c0.019,1.22-0.239,2.4-0.463,3.592c-0.07,0.373,0.501,0.532,0.571,0.157
			c0.234-1.244,0.504-2.478,0.484-3.75C34.349,15.672,33.756,15.671,33.762,16.053L33.762,16.053z"/>
	</g>
	<g>
		<path fill="#785936" d="M38.085,14.455c0.81-0.052,1.321,0.691,1.731,1.286c0.47,0.682,0.942,1.311,1.491,1.934
			c1.481,1.679,3.001,3.312,4.101,5.279c0.186,0.333,0.698,0.035,0.511-0.299c-1.157-2.069-2.772-3.787-4.33-5.554
			c-0.614-0.696-1.074-1.475-1.652-2.194c-0.47-0.585-1.057-1.095-1.852-1.044C37.706,13.887,37.703,14.479,38.085,14.455
			L38.085,14.455z"/>
	</g>
	<g>
		<path fill="#785936" d="M41.105,28.606c0.122,1.979-0.693,3.842-1.174,5.724c-0.095,0.37,0.477,0.527,0.571,0.157
			c0.494-1.935,1.32-3.847,1.195-5.882C41.673,28.227,41.081,28.225,41.105,28.606L41.105,28.606z"/>
	</g>
	<g>
		<path fill="#785936" d="M39.91,22.37c-0.53-1.67-1.023-3.36-1.303-5.092c-0.061-0.376-0.631-0.216-0.571,0.157
			c0.28,1.732,0.773,3.422,1.303,5.092C39.454,22.89,40.026,22.735,39.91,22.37L39.91,22.37z"/>
	</g>
	<g>
		<path fill="#785936" d="M34.828,33.935c0.012,2.602,0.486,5.307-0.226,7.856c-0.103,0.368,0.468,0.525,0.571,0.157
			c0.728-2.606,0.259-5.354,0.247-8.013C35.419,33.554,34.826,33.554,34.828,33.935L34.828,33.935z"/>
	</g>
	<g>
		<path fill="#785936" d="M32.4,32.337c-1.55,0.18-3.092,0.48-4.579,0.958c-0.362,0.116-0.207,0.688,0.157,0.571
			c1.435-0.461,2.925-0.763,4.421-0.937C32.775,32.885,32.779,32.293,32.4,32.337L32.4,32.337z"/>
	</g>
	<g>
		<path fill="#785936" d="M12.386,28.784c3.237,0.003,6.474,0.11,9.711,0.118c0.382,0.001,0.382-0.591,0-0.592
			c-3.237-0.008-6.473-0.116-9.711-0.118C12.005,28.192,12.005,28.784,12.386,28.784L12.386,28.784z"/>
	</g>
	<g>
		<path fill="#785936" d="M12.414,30.592c2.614,2.586,6.169,3.702,9.297,5.494c0.332,0.19,0.63-0.322,0.299-0.511
			c-3.08-1.764-6.605-2.856-9.177-5.401C12.561,29.905,12.142,30.323,12.414,30.592L12.414,30.592z"/>
	</g>
	<g>
		<path fill="#785936" d="M9.071,32.81c0.96,0.098,1.175,1.529,1.372,2.27c0.098,0.369,0.669,0.212,0.571-0.157
			c-0.288-1.079-0.609-2.567-1.943-2.704C8.691,32.179,8.695,32.772,9.071,32.81L9.071,32.81z"/>
	</g>
	<g>
		<path fill="#785936" d="M17.527,39.66c-0.351-1.446-0.848-2.848-1.303-4.263c-0.116-0.362-0.688-0.207-0.571,0.157
			c0.455,1.415,0.952,2.817,1.303,4.263C17.046,40.188,17.617,40.031,17.527,39.66L17.527,39.66z"/>
	</g>
	<g>
		<path fill="#785936" d="M19.579,42.007c2.799,1.201,6.156,0.293,8.992-0.325c0.373-0.081,0.215-0.652-0.157-0.571
			c-1.404,0.306-2.808,0.613-4.238,0.77c-1.417,0.155-2.963,0.188-4.297-0.384C19.531,41.347,19.229,41.857,19.579,42.007
			L19.579,42.007z"/>
	</g>
	<g>
		<path fill="#785936" d="M20.203,44.771c1.008,0.118,1.971,0.597,2.811,1.144c0.321,0.209,0.617-0.304,0.299-0.511
			c-0.935-0.609-1.994-1.094-3.11-1.225C19.824,44.135,19.828,44.727,20.203,44.771L20.203,44.771z"/>
	</g>
	<g>
		<path fill="#785936" d="M9.11,20.01c1.691,0.506,3.391,0.949,4.725,2.174c0.281,0.258,0.7-0.16,0.419-0.419
			c-1.415-1.3-3.189-1.788-4.986-2.326C8.901,19.329,8.745,19.901,9.11,20.01L9.11,20.01z"/>
	</g>
	<g>
		<path fill="#785936" d="M9.681,16.558c0.877-1.212,2.277-1.907,3.488-2.73c1.316-0.893,2.556-1.898,3.985-2.612
			c0.342-0.171,0.042-0.681-0.299-0.511c-1.54,0.769-2.87,1.871-4.296,2.821c-1.216,0.81-2.515,1.525-3.389,2.733
			C8.946,16.569,9.46,16.864,9.681,16.558L9.681,16.558z"/>
	</g>
	<g>
		<path fill="#785936" d="M27.723,24.461c-0.015-1.121-0.852-2.068-1.589-2.829c-0.822-0.847-1.766-1.569-2.702-2.282
			c-0.304-0.231-0.598,0.283-0.299,0.511c0.816,0.621,1.619,1.257,2.359,1.968c0.697,0.669,1.625,1.595,1.639,2.632
			C27.136,24.843,27.728,24.843,27.723,24.461L27.723,24.461z"/>
	</g>
	<g>
		<path fill="#785936" d="M24.615,16.271c-0.595-0.379-1.079-0.901-1.658-1.303c-0.315-0.218-0.61,0.295-0.299,0.511
			c0.579,0.402,1.062,0.923,1.658,1.303C24.639,16.988,24.936,16.476,24.615,16.271L24.615,16.271z"/>
	</g>
</g>
</svg>
