<?xml version="1.0" encoding="utf-8"?>
<!-- Generator: Adobe Illustrator 17.0.0, SVG Export Plug-In . SVG Version: 6.00 Build 0)  -->
<!DOCTYPE svg PUBLIC "-//W3C//DTD SVG 1.1//EN" "http://www.w3.org/Graphics/SVG/1.1/DTD/svg11.dtd">
<svg version="1.1" id="Layer_1" xmlns="http://www.w3.org/2000/svg" xmlns:xlink="http://www.w3.org/1999/xlink" x="0px" y="0px"
	 width="50px" height="50px" viewBox="0 0 50 50" enable-background="new 0 0 50 50" xml:space="preserve">
<g>
	<g>
		<path fill="#FFFFFF" d="M25.054,50.107c-6.692,0-12.984-2.606-17.716-7.338S0,31.746,0,25.054S2.606,12.07,7.338,7.338
			S18.362,0,25.054,0S38.038,2.606,42.77,7.338s7.338,11.023,7.338,17.716S47.502,38.038,42.77,42.77
			C38.037,47.501,31.746,50.107,25.054,50.107z M25.054,3.282c-12.005,0-21.771,9.767-21.771,21.771
			c0,12.005,9.767,21.771,21.771,21.771c12.005,0,21.771-9.767,21.771-21.771S37.058,3.282,25.054,3.282z"/>
	</g>
	<circle fill="#FFFFFF" cx="38.839" cy="25.599" r="1.75"/>
	<circle fill="#FFFFFF" cx="34.244" cy="31.081" r="1.75"/>
	<circle fill="#FFFFFF" cx="35.338" cy="13.744" r="1.75"/>
	<circle fill="#FFFFFF" cx="17.286" cy="42.108" r="1.75"/>
	<circle fill="#FFFFFF" cx="7.355" cy="19.236" r="1.75"/>
	<circle fill="#FFFFFF" cx="10.856" cy="28.479" r="1.75"/>
	<g>
		<path fill="#FFFFFF" d="M31.29,12.964c-1.03-0.061-2.015-0.326-2.991-0.647c-0.336-0.111-0.479,0.418-0.145,0.527
			c1.023,0.337,2.057,0.603,3.136,0.666C31.642,13.532,31.64,12.985,31.29,12.964L31.29,12.964z"/>
	</g>
	<g>
		<path fill="#FFFFFF" d="M33.222,11.005c-1.623-0.559-2.961-1.651-4.376-2.586c-1.395-0.922-2.924-1.625-4.513-2.14
			c-1.617-0.524-3.314-0.802-4.963-1.208c-1.612-0.397-3.258-0.783-4.929-0.749c-0.352,0.007-0.353,0.554,0,0.547
			c1.689-0.034,3.342,0.375,4.971,0.776c1.651,0.407,3.336,0.696,4.956,1.22c1.607,0.52,3.11,1.291,4.51,2.231
			c1.353,0.908,2.641,1.9,4.199,2.437C33.411,11.648,33.554,11.119,33.222,11.005L33.222,11.005z"/>
	</g>
	<g>
		<path fill="#FFFFFF" d="M33.095,16.739c0.017,1.127-0.221,2.217-0.428,3.319c-0.065,0.345,0.462,0.492,0.527,0.145
			c0.216-1.149,0.465-2.289,0.447-3.464C33.636,16.386,33.089,16.386,33.095,16.739L33.095,16.739z"/>
	</g>
	<g>
		<path fill="#FFFFFF" d="M37.088,15.262c0.748-0.048,1.221,0.638,1.6,1.188c0.434,0.63,0.87,1.211,1.378,1.786
			c1.368,1.551,2.773,3.06,3.788,4.876c0.172,0.308,0.645,0.032,0.472-0.276c-1.069-1.912-2.561-3.499-4.001-5.131
			c-0.567-0.643-0.993-1.363-1.527-2.027c-0.434-0.541-0.977-1.012-1.711-0.964C36.738,14.738,36.736,15.285,37.088,15.262
			L37.088,15.262z"/>
	</g>
	<g>
		<path fill="#FFFFFF" d="M39.878,28.336c0.112,1.828-0.64,3.549-1.084,5.288c-0.087,0.342,0.44,0.487,0.527,0.145
			c0.456-1.787,1.219-3.554,1.104-5.434C40.403,27.985,39.856,27.983,39.878,28.336L39.878,28.336z"/>
	</g>
	<g>
		<path fill="#FFFFFF" d="M38.774,22.574c-0.489-1.543-0.945-3.104-1.203-4.704c-0.056-0.348-0.583-0.2-0.527,0.145
			c0.259,1.6,0.714,3.162,1.203,4.704C38.353,23.054,38.881,22.911,38.774,22.574L38.774,22.574z"/>
	</g>
	<g>
		<path fill="#FFFFFF" d="M34.079,33.259c0.011,2.403,0.449,4.903-0.209,7.257c-0.095,0.34,0.433,0.485,0.527,0.145
			c0.672-2.407,0.24-4.946,0.229-7.403C34.625,32.906,34.078,32.906,34.079,33.259L34.079,33.259z"/>
	</g>
	<g>
		<path fill="#FFFFFF" d="M31.837,31.782c-1.432,0.166-2.856,0.444-4.23,0.885c-0.334,0.107-0.191,0.636,0.145,0.527
			c1.326-0.426,2.702-0.705,4.085-0.865C32.183,32.289,32.187,31.741,31.837,31.782L31.837,31.782z"/>
	</g>
	<g>
		<path fill="#FFFFFF" d="M13.347,28.5c2.991,0.002,5.98,0.102,8.971,0.109c0.353,0.001,0.353-0.546,0-0.547
			c-2.991-0.008-5.98-0.107-8.971-0.109C12.995,27.953,12.995,28.5,13.347,28.5L13.347,28.5z"/>
	</g>
	<g>
		<path fill="#FFFFFF" d="M13.373,30.17c2.415,2.389,5.699,3.42,8.589,5.075c0.307,0.176,0.582-0.297,0.276-0.472
			c-2.845-1.63-6.102-2.638-8.478-4.99C13.509,29.535,13.122,29.922,13.373,30.17L13.373,30.17z"/>
	</g>
	<g>
		<path fill="#FFFFFF" d="M10.284,32.22c0.887,0.091,1.086,1.413,1.268,2.097c0.091,0.341,0.618,0.196,0.527-0.145
			c-0.266-0.997-0.562-2.372-1.795-2.498C9.933,31.637,9.937,32.184,10.284,32.22L10.284,32.22z"/>
	</g>
	<g>
		<path fill="#FFFFFF" d="M18.097,38.547c-0.324-1.336-0.783-2.631-1.203-3.939c-0.107-0.334-0.636-0.191-0.527,0.145
			c0.42,1.308,0.879,2.603,1.203,3.939C17.652,39.035,18.18,38.89,18.097,38.547L18.097,38.547z"/>
	</g>
	<g>
		<path fill="#FFFFFF" d="M19.992,40.716c2.586,1.109,5.687,0.271,8.307-0.301c0.345-0.075,0.198-0.602-0.145-0.527
			c-1.297,0.283-2.594,0.566-3.915,0.711c-1.309,0.143-2.737,0.174-3.97-0.355C19.948,40.106,19.669,40.577,19.992,40.716
			L19.992,40.716z"/>
	</g>
	<g>
		<path fill="#FFFFFF" d="M20.568,43.269c0.931,0.109,1.82,0.551,2.597,1.057c0.297,0.193,0.57-0.281,0.276-0.472
			c-0.864-0.563-1.842-1.01-2.873-1.131C20.218,42.681,20.222,43.229,20.568,43.269L20.568,43.269z"/>
	</g>
	<g>
		<path fill="#FFFFFF" d="M10.321,20.394c1.562,0.468,3.133,0.877,4.365,2.008c0.259,0.238,0.647-0.148,0.387-0.387
			c-1.307-1.201-2.946-1.652-4.606-2.149C10.127,19.765,9.984,20.293,10.321,20.394L10.321,20.394z"/>
	</g>
	<g>
		<path fill="#FFFFFF" d="M10.848,17.205c0.81-1.12,2.103-1.762,3.222-2.522c1.215-0.825,2.361-1.753,3.681-2.413
			c0.316-0.158,0.038-0.629-0.276-0.472c-1.422,0.71-2.651,1.729-3.969,2.606c-1.123,0.748-2.324,1.409-3.131,2.525
			C10.169,17.215,10.644,17.488,10.848,17.205L10.848,17.205z"/>
	</g>
	<g>
		<path fill="#FFFFFF" d="M27.515,24.507c-0.014-1.035-0.787-1.911-1.468-2.613c-0.759-0.783-1.631-1.449-2.497-2.108
			c-0.281-0.214-0.553,0.262-0.276,0.472c0.754,0.574,1.496,1.161,2.18,1.818c0.644,0.618,1.501,1.474,1.514,2.431
			C26.973,24.859,27.52,24.859,27.515,24.507L27.515,24.507z"/>
	</g>
	<g>
		<path fill="#FFFFFF" d="M24.645,16.94c-0.549-0.35-0.997-0.832-1.532-1.203c-0.291-0.202-0.564,0.273-0.276,0.472
			c0.535,0.371,0.981,0.853,1.532,1.203C24.667,17.603,24.941,17.129,24.645,16.94L24.645,16.94z"/>
	</g>
</g>
</svg>
