<?xml version="1.0" encoding="utf-8"?>
<!-- Generator: Adobe Illustrator 18.0.0, SVG Export Plug-In . SVG Version: 6.00 Build 0)  -->
<!DOCTYPE svg PUBLIC "-//W3C//DTD SVG 1.1//EN" "http://www.w3.org/Graphics/SVG/1.1/DTD/svg11.dtd">
<svg version="1.1" id="Layer_1" xmlns="http://www.w3.org/2000/svg" xmlns:xlink="http://www.w3.org/1999/xlink" x="0px" y="0px"
	 viewBox="0 0 50 50" enable-background="new 0 0 50 50" xml:space="preserve">
<radialGradient id="SVGID_1_" cx="37" cy="12.4375" r="39.4743" gradientUnits="userSpaceOnUse">
	<stop  offset="0" style="stop-color:#27AAE1"/>
	<stop  offset="1" style="stop-color:#2B3990"/>
</radialGradient>
<circle fill="url(#SVGID_1_)" cx="25" cy="25" r="25"/>
<path fill="#262262" d="M49.7,21.3c0,0-3-1.2-3-1.2c0,0-0.1,0-0.2-0.1c-0.2-0.1-0.4-0.1-0.7-0.2c-0.2,0-0.3-0.1-0.5-0.1
	c-0.2-0.1-0.4-0.1-0.6-0.1c-0.2-0.1-0.5-0.1-0.7-0.2c-0.3,0-0.5-0.1-0.8-0.1c-0.1,0-0.3-0.1-0.4-0.1c-0.1,0-0.3-0.1-0.4-0.1
	C42,19,41.7,19,41.4,19c-0.2,0-0.3,0-0.5-0.1c-0.1,0-0.2,0-0.3,0c-0.1,0-0.2,0-0.3,0c-0.3,0-0.7-0.1-1.1-0.1c-0.4,0-0.7-0.1-1.1-0.1
	c-0.4,0-0.7,0-1.1,0c-0.4,0-0.8,0-1.1,0l-0.3,0l-0.3,0l-0.6,0c-0.8,0-1.6,0-2.3,0.1c-0.8,0-1.5,0-2.2,0.1c-1.5,0.1-2.8,0.1-4,0.2
	c-1.2,0.1-2.1,0.1-2.8,0.2c-0.7,0.1-1.1,0.1-1.1,0.1s0.4-0.1,1.1-0.2c0.7-0.1,1.6-0.2,2.8-0.4c1.2-0.1,2.5-0.3,4-0.5
	c0.7-0.1,1.5-0.2,2.2-0.2c0.8-0.1,1.5-0.2,2.3-0.2l0.6-0.1l0.3,0l0.3,0c0.4,0,0.8,0,1.2-0.1c0.4,0,0.8,0,1.1-0.1c0.4,0,0.8,0,1.1,0
	c0.4,0,0.7,0,1.1,0c0.1,0,0.2,0,0.3,0c0.1,0,0.2,0,0.3,0c0.2,0,0.3,0,0.5,0c0.3,0,0.7,0,1,0c0.2,0,0.3,0,0.5,0c0.2,0,0.3,0,0.5,0
	c0.3,0,0.6,0.1,0.9,0.1c0.3,0,0.5,0.1,0.8,0.1c0.2,0,0.5,0.1,0.7,0.1c0.2,0,0.4,0.1,0.6,0.1c0.3,0.1,0.6,0.2,0.8,0.2
	c0.1,0,0.2,0,0.2,0.1c0,0,1.9,0.5,1.9,0.5L49.7,21.3z"/>
<path fill="#262262" d="M2,34.8c0,0,2.4-1,2.9-1.2c0.5-0.2,1.3-0.5,2.3-0.8c0.9-0.3,2-0.7,3.2-1c0.6-0.2,1.2-0.4,1.8-0.5
	c0.3-0.1,0.6-0.2,0.9-0.3c0.2,0,0.3-0.1,0.5-0.1l0.5-0.1c0.3-0.1,0.6-0.2,1-0.2c0.3-0.1,0.6-0.1,1-0.2c0.2,0,0.3-0.1,0.5-0.1
	c0.2,0,0.3,0,0.5-0.1c0.2,0,0.3,0,0.5-0.1c0.2,0,0.3,0,0.5,0c1.2-0.1,2.4-0.2,3.3-0.3c0.5,0,0.9-0.1,1.3-0.1c0.4,0,0.7,0,1-0.1
	c0.6,0,0.9,0,0.9,0s-0.3,0-0.9,0.1c-0.3,0-0.6,0.1-1,0.2c-0.4,0.1-0.8,0.1-1.3,0.2c-1,0.2-2.1,0.4-3.3,0.6c-0.2,0-0.3,0.1-0.5,0.1
	c-0.1,0-0.3,0.1-0.4,0.1c-0.1,0-0.3,0.1-0.5,0.1c-0.2,0-0.3,0.1-0.5,0.1c-0.3,0.1-0.6,0.2-0.9,0.3c-0.3,0.1-0.6,0.2-0.9,0.3
	l-0.5,0.2c-0.2,0.1-0.3,0.1-0.5,0.2c-0.3,0.1-0.6,0.2-0.9,0.3c-0.6,0.2-1.2,0.5-1.7,0.7c-1.1,0.5-2.2,0.9-3.1,1.3
	c-0.9,0.4-1.6,0.7-2.1,1c-0.5,0.2-2.7,1.4-2.7,1.4L2,34.8z"/>
<ellipse transform="matrix(0.9994 -3.362111e-002 3.362111e-002 0.9994 -0.9556 1.1578)" fill="#262262" cx="33.9" cy="29" rx="6" ry="1.8"/>
<path fill="#262262" d="M5.9,41.2c0,0,2.3-1.2,2.4-1.3c0.1-0.1,0.3-0.1,0.5-0.2c0.2-0.1,0.5-0.2,0.7-0.3c0.3-0.1,0.6-0.3,1-0.4
	c0.4-0.1,0.7-0.3,1.1-0.5c0.2-0.1,0.4-0.2,0.6-0.2c0.1,0,0.2-0.1,0.3-0.1c0.1,0,0.2-0.1,0.3-0.1c0.5-0.2,0.9-0.3,1.4-0.5
	c0.2-0.1,0.5-0.2,0.7-0.2l0.1,0c0,0,0.1,0,0.1,0l0.2,0l0.4-0.1c0.2-0.1,0.5-0.1,0.7-0.2c0.3-0.1,0.5-0.1,0.7-0.2
	c0.2-0.1,0.5-0.1,0.7-0.1c0.2,0,0.5-0.1,0.7-0.1c0.2,0,0.5-0.1,0.7-0.1c0.2,0,0.5-0.1,0.7-0.1c0.4-0.1,0.8-0.1,1.2-0.2
	c0.4,0,0.7-0.1,1-0.1c0.3,0,0.6-0.1,0.8-0.1c0.4,0,0.7-0.1,0.7-0.1s-0.3,0-0.7,0.1c-0.2,0-0.5,0.1-0.8,0.1c-0.3,0-0.7,0.1-1,0.2
	c-0.4,0.1-0.8,0.1-1.2,0.2c-0.2,0-0.4,0.1-0.7,0.1c-0.2,0-0.5,0.1-0.7,0.1c-0.2,0-0.5,0.1-0.7,0.1c-0.2,0.1-0.5,0.1-0.7,0.2
	c-0.2,0.1-0.5,0.1-0.7,0.2c-0.2,0.1-0.5,0.1-0.7,0.2l-0.4,0.1l-0.2,0.1c0,0-0.1,0-0.1,0l-0.1,0c-0.2,0.1-0.5,0.2-0.7,0.3
	c-0.5,0.2-0.9,0.4-1.4,0.5c-0.1,0-0.2,0.1-0.3,0.1c-0.1,0-0.2,0.1-0.3,0.1c-0.2,0.1-0.4,0.2-0.6,0.3c-0.4,0.2-0.8,0.4-1.1,0.5
	c-0.3,0.2-0.7,0.3-0.9,0.5c-0.3,0.1-0.5,0.3-0.7,0.4c-0.2,0.1-0.3,0.2-0.4,0.2c-0.1,0.1-2.2,1.3-2.2,1.3L5.9,41.2z"/>
<path fill="#262262" d="M30.9,12.7c0,0-1.3,0.2-3.3,0.4c-0.5,0.1-1,0.1-1.6,0.2c-0.6,0.1-1.2,0.2-1.8,0.3c-0.6,0.1-1.3,0.2-1.9,0.3
	c-0.6,0.1-1.3,0.2-2,0.3c-0.3,0.1-0.7,0.1-1,0.2c-0.3,0.1-0.6,0.1-1,0.2c-0.3,0.1-0.6,0.1-0.9,0.2c-0.3,0.1-0.6,0.2-0.9,0.2
	c-0.3,0.1-0.6,0.2-0.9,0.2c-0.1,0-0.3,0.1-0.4,0.1c-0.1,0-0.3,0.1-0.4,0.1c-0.3,0.1-0.5,0.2-0.8,0.3c-0.3,0.1-0.5,0.2-0.7,0.3
	c-0.5,0.2-0.9,0.3-1.3,0.5c-0.4,0.1-0.7,0.3-1,0.4c-0.3,0.1-0.5,0.2-0.6,0.3c-0.1,0.1-0.2,0.1-0.2,0.1l0-0.1c0,0,0.3-0.2,0.8-0.5
	c0.2-0.2,0.6-0.3,0.9-0.5c0.4-0.2,0.8-0.4,1.2-0.6c0.5-0.2,1-0.4,1.5-0.6c0.3-0.1,0.6-0.2,0.8-0.3c0.3-0.1,0.6-0.2,0.9-0.3
	c0.2,0,0.3-0.1,0.5-0.1c0.2,0,0.3-0.1,0.5-0.1c0.3-0.1,0.6-0.1,1-0.2c0.3-0.1,0.7-0.1,1-0.2c0.3,0,0.7-0.1,1-0.1
	c0.7-0.1,1.3-0.2,2-0.3c0.7-0.1,1.3-0.2,1.9-0.2c1.2-0.1,2.4-0.2,3.4-0.3C29.6,12.7,30.9,12.7,30.9,12.7L30.9,12.7z"/>
</svg>
