<?xml version="1.0" encoding="utf-8"?>
<!-- Generator: Adobe Illustrator 18.0.0, SVG Export Plug-In . SVG Version: 6.00 Build 0)  -->
<!DOCTYPE svg PUBLIC "-//W3C//DTD SVG 1.1//EN" "http://www.w3.org/Graphics/SVG/1.1/DTD/svg11.dtd">
<svg version="1.1" id="Layer_1" xmlns="http://www.w3.org/2000/svg" xmlns:xlink="http://www.w3.org/1999/xlink" x="0px" y="0px"
	 viewBox="0 0 50 50" enable-background="new 0 0 50 50" xml:space="preserve">
<g>
	<path fill="#FFFFFF" d="M25,50c-6.7,0-12.9-2.6-17.7-7.3C2.6,37.9,0,31.7,0,25S2.6,12,7.3,7.3C12,2.6,18.3,0,25,0
		s12.9,2.6,17.7,7.3C47.4,12,50,18.3,50,25s-2.6,12.9-7.3,17.7C37.9,47.4,31.7,50,25,50z M25,3.3C13,3.3,3.3,13,3.3,25
		C3.3,37,13,46.7,25,46.7c12,0,21.7-9.7,21.7-21.7C46.7,13,37,3.3,25,3.3z"/>
</g>
<path fill="#FFFFFF" d="M46.8,20.1C46.8,20.1,46.8,20.1,46.8,20.1c-0.1,0-0.2-0.1-0.3-0.1c-0.2-0.1-0.4-0.1-0.7-0.2
	c-0.2,0-0.3-0.1-0.5-0.1c-0.2-0.1-0.4-0.1-0.6-0.1c-0.2-0.1-0.5-0.1-0.7-0.2c-0.3,0-0.5-0.1-0.8-0.1c-0.1,0-0.3-0.1-0.4-0.1
	c-0.1,0-0.3-0.1-0.4-0.1C42,19,41.7,19,41.4,19c-0.2,0-0.3,0-0.5-0.1c-0.1,0-0.2,0-0.3,0c-0.1,0-0.2,0-0.3,0c-0.3,0-0.7-0.1-1.1-0.1
	c-0.4,0-0.7-0.1-1.1-0.1c-0.4,0-0.7,0-1.1,0c-0.4,0-0.8,0-1.1,0l-0.3,0l-0.3,0l-0.6,0c-0.8,0-1.6,0-2.3,0.1c-0.8,0-1.5,0-2.2,0.1
	c-1.5,0.1-2.8,0.1-4,0.2c-1.2,0.1-2.1,0.1-2.8,0.2c-0.7,0.1-1.1,0.1-1.1,0.1s0.4-0.1,1.1-0.2c0.7-0.1,1.6-0.2,2.8-0.4
	c1.2-0.1,2.5-0.3,4-0.5c0.7-0.1,1.5-0.2,2.2-0.2c0.8-0.1,1.5-0.2,2.3-0.2l0.6-0.1l0.3,0l0.3,0c0.4,0,0.8,0,1.2-0.1
	c0.4,0,0.8,0,1.1-0.1c0.4,0,0.8,0,1.1,0c0.4,0,0.7,0,1.1,0c0.1,0,0.2,0,0.3,0c0.1,0,0.2,0,0.3,0c0.2,0,0.3,0,0.5,0c0.3,0,0.7,0,1,0
	c0.2,0,0.3,0,0.5,0c0.2,0,0.3,0,0.5,0c0.3,0,0.6,0.1,0.9,0.1c0.3,0,0.5,0.1,0.8,0.1c0.2,0,0.5,0.1,0.7,0.1c0.2,0,0.4,0.1,0.6,0.1
	c0.3,0.1,0.6,0.2,0.8,0.2c0.1,0,0.2,0,0.2,0.1c0,0,0.1,0,0.1,0L46.8,20.1z"/>
<path fill="#FFFFFF" d="M4,33.9c0,0,0.3-0.1,0.9-0.3c0.5-0.2,1.3-0.5,2.3-0.8c0.9-0.3,2-0.7,3.2-1c0.6-0.2,1.2-0.4,1.8-0.5
	c0.3-0.1,0.6-0.2,0.9-0.3c0.2,0,0.3-0.1,0.5-0.1l0.5-0.1c0.3-0.1,0.6-0.2,1-0.2c0.3-0.1,0.6-0.1,1-0.2c0.2,0,0.3-0.1,0.5-0.1
	c0.2,0,0.3,0,0.5-0.1c0.2,0,0.3,0,0.5-0.1c0.2,0,0.3,0,0.5,0c1.2-0.1,2.4-0.2,3.3-0.3c0.5,0,0.9-0.1,1.3-0.1c0.4,0,0.7,0,1-0.1
	c0.6,0,0.9,0,0.9,0s-0.3,0-0.9,0.1c-0.3,0-0.6,0.1-1,0.2c-0.4,0.1-0.8,0.1-1.3,0.2c-1,0.2-2.1,0.4-3.3,0.6c-0.2,0-0.3,0.1-0.5,0.1
	c-0.1,0-0.3,0.1-0.4,0.1c-0.1,0-0.3,0.1-0.5,0.1c-0.2,0-0.3,0.1-0.5,0.1c-0.3,0.1-0.6,0.2-0.9,0.3c-0.3,0.1-0.6,0.2-0.9,0.3
	l-0.5,0.2c-0.2,0.1-0.3,0.1-0.5,0.2c-0.3,0.1-0.6,0.2-0.9,0.3c-0.6,0.2-1.2,0.5-1.7,0.7c-1.1,0.5-2.2,0.9-3.1,1.3
	c-0.9,0.4-1.6,0.7-2.1,1c-0.5,0.2-0.8,0.4-0.8,0.4L4,33.9z"/>
<ellipse transform="matrix(0.9994 -3.362111e-002 3.362111e-002 0.9994 -0.9556 1.1578)" fill="#FFFFFF" cx="33.9" cy="29" rx="6" ry="1.8"/>
<path fill="#FFFFFF" d="M8.2,40c0,0,0.1,0,0.2-0.1c0.1-0.1,0.3-0.1,0.5-0.2c0.2-0.1,0.5-0.2,0.7-0.3c0.3-0.1,0.6-0.3,1-0.4
	c0.4-0.1,0.7-0.3,1.1-0.5c0.2-0.1,0.4-0.2,0.6-0.2c0.1,0,0.2-0.1,0.3-0.1c0.1,0,0.2-0.1,0.3-0.1c0.5-0.2,0.9-0.3,1.4-0.5
	c0.2-0.1,0.5-0.2,0.7-0.2l0.1,0c0,0,0.1,0,0.1,0l0.2,0l0.4-0.1c0.2-0.1,0.5-0.1,0.7-0.2c0.3-0.1,0.5-0.1,0.7-0.2
	c0.2-0.1,0.5-0.1,0.7-0.1c0.2,0,0.5-0.1,0.7-0.1c0.2,0,0.5-0.1,0.7-0.1c0.2,0,0.5-0.1,0.7-0.1c0.4-0.1,0.8-0.1,1.2-0.2
	c0.4,0,0.7-0.1,1-0.1c0.3,0,0.6-0.1,0.8-0.1c0.4,0,0.7-0.1,0.7-0.1s-0.3,0-0.7,0.1c-0.2,0-0.5,0.1-0.8,0.1c-0.3,0-0.7,0.1-1,0.2
	c-0.4,0.1-0.8,0.1-1.2,0.2c-0.2,0-0.4,0.1-0.7,0.1c-0.2,0-0.5,0.1-0.7,0.1c-0.2,0-0.5,0.1-0.7,0.1c-0.2,0.1-0.5,0.1-0.7,0.2
	c-0.2,0.1-0.5,0.1-0.7,0.2c-0.2,0.1-0.5,0.1-0.7,0.2l-0.4,0.1l-0.2,0.1c0,0-0.1,0-0.1,0l-0.1,0c-0.2,0.1-0.5,0.2-0.7,0.3
	c-0.5,0.2-0.9,0.4-1.4,0.5c-0.1,0-0.2,0.1-0.3,0.1c-0.1,0-0.2,0.1-0.3,0.1c-0.2,0.1-0.4,0.2-0.6,0.3c-0.4,0.2-0.8,0.4-1.1,0.5
	c-0.3,0.2-0.7,0.3-0.9,0.5c-0.3,0.1-0.5,0.3-0.7,0.4c-0.2,0.1-0.3,0.2-0.4,0.2c-0.1,0.1-0.2,0.1-0.2,0.1L8.2,40z"/>
<path fill="#FFFFFF" d="M30.9,12.7c0,0-1.3,0.2-3.3,0.4c-0.5,0.1-1,0.1-1.6,0.2c-0.6,0.1-1.2,0.2-1.8,0.3c-0.6,0.1-1.3,0.2-1.9,0.3
	c-0.6,0.1-1.3,0.2-2,0.3c-0.3,0.1-0.7,0.1-1,0.2c-0.3,0.1-0.6,0.1-1,0.2c-0.3,0.1-0.6,0.1-0.9,0.2c-0.3,0.1-0.6,0.2-0.9,0.2
	c-0.3,0.1-0.6,0.2-0.9,0.2c-0.1,0-0.3,0.1-0.4,0.1c-0.1,0-0.3,0.1-0.4,0.1c-0.3,0.1-0.5,0.2-0.8,0.3c-0.3,0.1-0.5,0.2-0.7,0.3
	c-0.5,0.2-0.9,0.3-1.3,0.5c-0.4,0.1-0.7,0.3-1,0.4c-0.3,0.1-0.5,0.2-0.6,0.3c-0.1,0.1-0.2,0.1-0.2,0.1l0-0.1c0,0,0.3-0.2,0.8-0.5
	c0.2-0.2,0.6-0.3,0.9-0.5c0.4-0.2,0.8-0.4,1.2-0.6c0.5-0.2,1-0.4,1.5-0.6c0.3-0.1,0.6-0.2,0.8-0.3c0.3-0.1,0.6-0.2,0.9-0.3
	c0.2,0,0.3-0.1,0.5-0.1c0.2,0,0.3-0.1,0.5-0.1c0.3-0.1,0.6-0.1,1-0.2c0.3-0.1,0.7-0.1,1-0.2c0.3,0,0.7-0.1,1-0.1
	c0.7-0.1,1.3-0.2,2-0.3c0.7-0.1,1.3-0.2,1.9-0.2c1.2-0.1,2.4-0.2,3.4-0.3C29.6,12.7,30.9,12.7,30.9,12.7L30.9,12.7z"/>
</svg>
