<?xml version="1.0" encoding="utf-8"?>
<!-- Generator: Adobe Illustrator 18.0.0, SVG Export Plug-In . SVG Version: 6.00 Build 0)  -->
<!DOCTYPE svg PUBLIC "-//W3C//DTD SVG 1.1//EN" "http://www.w3.org/Graphics/SVG/1.1/DTD/svg11.dtd">
<svg version="1.1" id="Layer_1" xmlns="http://www.w3.org/2000/svg" xmlns:xlink="http://www.w3.org/1999/xlink" x="0px" y="0px"
	 viewBox="0 0 50 50" enable-background="new 0 0 50 50" xml:space="preserve">
<g>
	<g>
		<path fill="#FFFFFF" d="M26,40c-3.9,0-7.6-1.5-10.4-4.3c-2.8-2.8-4.3-6.4-4.3-10.4s1.5-7.6,4.3-10.4c2.8-2.8,6.4-4.3,10.4-4.3
			s7.6,1.5,10.4,4.3c2.8,2.8,4.3,6.4,4.3,10.4s-1.5,7.6-4.3,10.4C33.6,38.5,29.9,40,26,40z M26,12.7c-7,0-12.7,5.7-12.7,12.7
			c0,7,5.7,12.7,12.7,12.7c7,0,12.7-5.7,12.7-12.7C38.8,18.4,33,12.7,26,12.7z"/>
	</g>
	<path fill="#FFFFFF" d="M49.9,38.2c0.6-1.2-3.6-4.8-11.1-9.4c-0.1,0.3-0.3,1.8-0.4,2.1c3.7,2.5,5.6,3.5,5.4,4.3
		c-0.4,1.8-10-2-20.3-7.2s-17.8-9.9-17-11.6c0.5-1,2.6,0.2,7.5,1.9c0.2-0.3,1.6-1,1.8-1.2c-9.1-3.8-15.2-5.3-15.8-4
		c-0.8,1.7,8.3,8.5,23.2,16S49.1,39.9,49.9,38.2z"/>
	<path fill="#FFFFFF" d="M13.2,23.8c0,0,0.2,0,0.7,0.1c0.2,0,0.5,0.1,0.8,0.1c0.3,0,0.6,0.1,1,0.1c0.4,0.1,0.8,0.1,1.2,0.2
		c0.4,0.1,0.9,0.1,1.4,0.2c0.1,0,0.2,0,0.4,0c0.1,0,0.2,0,0.4,0c0.2,0,0.5,0,0.7,0.1c0.1,0,0.2,0,0.4,0c0.1,0,0.3,0,0.4,0
		c0.3,0,0.5,0,0.8,0l0.4,0c0.1,0,0.3,0,0.4,0c0.3,0,0.5,0,0.8,0c0.5,0,1,0,1.5,0c0.9,0,1.8,0,2.6,0.1c0.4,0,0.7,0,1,0
		c0.3,0,0.6,0,0.8,0c0.4,0,0.7,0,0.7,0s-0.3,0-0.7,0c-0.2,0-0.5,0-0.8,0c-0.3,0-0.7,0-1,0c-0.8,0-1.6,0-2.6,0c-0.5,0-1,0-1.5,0
		c-0.2,0-0.5,0-0.8,0c-0.1,0-0.3,0-0.4,0l-0.4,0c-0.3,0-0.5,0-0.8,0c-0.1,0-0.3,0-0.4,0c-0.1,0-0.3,0-0.4,0c-0.2,0-0.5,0-0.7,0
		c-0.1,0-0.2,0-0.4,0c-0.1,0-0.2,0-0.4,0c-0.5,0-0.9-0.1-1.4-0.1c-0.4,0-0.8-0.1-1.2-0.1c-0.4,0-0.7-0.1-1-0.1
		c-0.3,0-0.6-0.1-0.8-0.1c-0.4-0.1-0.7-0.1-0.7-0.1L13.2,23.8z"/>
	<path fill="#FFFFFF" d="M13,30.5c0,0,0.1,0,0.2,0.1c0.1,0,0.3,0.1,0.6,0.2c0.3,0.1,0.6,0.1,0.9,0.2c0.4,0.1,0.8,0.2,1.2,0.3
		c0.4,0.1,0.9,0.2,1.4,0.3c0.5,0.1,1.1,0.2,1.6,0.2c0.3,0,0.6,0.1,0.9,0.1c0.3,0,0.6,0.1,0.9,0.1c0.6,0,1.2,0.1,1.8,0.1
		c0.3,0,0.6,0,0.9,0c0.3,0,0.6,0,0.9,0c0.6,0,1.2,0,1.8,0c1.1,0,2.2-0.1,3.1-0.1c1.8-0.1,3-0.2,3-0.2s-1.2,0.1-3,0.2
		c-0.9,0.1-2,0.1-3.1,0.2c-0.6,0-1.2,0.1-1.8,0.1c-0.3,0-0.6,0-0.9,0c-0.3,0-0.6,0-0.9,0c-0.6,0-1.2,0-1.8,0c-0.3,0-0.6,0-0.9,0
		c-0.3,0-0.6,0-0.9-0.1c-0.6-0.1-1.1-0.1-1.6-0.2c-0.5-0.1-1-0.1-1.5-0.2c-0.5-0.1-0.9-0.2-1.2-0.2c-0.4-0.1-0.7-0.1-0.9-0.2
		c-0.3-0.1-0.5-0.1-0.6-0.1c-0.1,0-0.2-0.1-0.2-0.1L13,30.5z"/>
	<path fill="#FFFFFF" d="M39.3,27c0,0-0.1,0-0.2,0c-0.1,0-0.3,0-0.6,0.1c-0.3,0-0.6,0.1-0.9,0.1c-0.3,0-0.7,0.1-1.2,0.1
		c-0.4,0-0.9,0.1-1.4,0.1c-0.5,0-1,0.1-1.5,0.1c-0.5,0-1.1,0-1.7,0.1c-0.6,0-1.1,0-1.7,0c-0.6,0-1.1,0-1.7,0c-0.6,0-1.1,0-1.7,0
		c-1.1,0-2.1,0-2.9,0c-0.2,0-0.4,0-0.6,0c-0.2,0-0.4,0-0.6,0c-0.3,0-0.7,0-0.9,0c-0.5,0-0.8,0-0.8,0s0.3,0,0.8,0c0.3,0,0.6,0,0.9,0
		c0.2,0,0.4,0,0.6,0c0.2,0,0.4,0,0.6,0c0.9,0,1.9,0,2.9-0.1c0.5,0,1.1,0,1.7,0c0.6,0,1.1,0,1.7-0.1c0.6,0,1.1-0.1,1.7-0.1
		c0.6,0,1.1-0.1,1.6-0.1c0.5,0,1-0.1,1.5-0.1c0.5,0,0.9-0.1,1.4-0.1c0.4,0,0.8-0.1,1.2-0.1c0.3,0,0.6-0.1,0.9-0.1
		c0.2,0,0.4-0.1,0.6-0.1c0.1,0,0.2,0,0.2,0L39.3,27z"/>
	<path fill="#FFFFFF" d="M39,21.5C39,21.5,39,21.5,39,21.5C39,21.5,39,21.5,39,21.5c0.1,0.1,0.1,0.2,0.2,0.2c0,0.1,0,0.2,0,0.2
		c-0.1,0.1-0.2,0.2-0.3,0.2c-0.1,0-0.2,0.1-0.3,0.1c-0.4,0.1-1,0.2-1.6,0.2c-0.7,0-1.4,0.1-2.3,0.1c-0.4,0-0.8,0-1.3,0
		c-0.4,0-0.9,0-1.3,0c-1.8,0-3.5,0-4.9-0.1c-0.3,0-0.6,0-0.9,0c-0.3,0-0.5,0-0.7,0c-0.4,0-0.6,0-0.6,0s0.2,0,0.6,0
		c0.2,0,0.4,0,0.7,0c0.3,0,0.6,0,0.9,0c1.3,0,3.1-0.1,4.9-0.1c0.4,0,0.9,0,1.3,0c0.4,0,0.9,0,1.3-0.1c0.8,0,1.6-0.1,2.2-0.2
		c0.6-0.1,1.2-0.2,1.5-0.3c0.1,0,0.2-0.1,0.2-0.1c0,0,0.1-0.1,0,0c0,0,0,0.1,0,0.1c0,0,0,0.1,0,0.1c0,0,0,0,0,0c0,0,0,0,0,0
		c0,0,0,0,0,0L39,21.5z"/>
</g>
</svg>
