<?xml version="1.0" encoding="utf-8"?>
<!-- Generator: Adobe Illustrator 18.0.0, SVG Export Plug-In . SVG Version: 6.00 Build 0)  -->
<!DOCTYPE svg PUBLIC "-//W3C//DTD SVG 1.1//EN" "http://www.w3.org/Graphics/SVG/1.1/DTD/svg11.dtd">
<svg version="1.1" id="Layer_1" xmlns="http://www.w3.org/2000/svg" xmlns:xlink="http://www.w3.org/1999/xlink" x="0px" y="0px"
	 viewBox="0 0 50 50" enable-background="new 0 0 50 50" xml:space="preserve">
<radialGradient id="SVGID_1_" cx="35.2917" cy="18.375" r="26.525" gradientUnits="userSpaceOnUse">
	<stop  offset="0" style="stop-color:#C5A682"/>
	<stop  offset="1" style="stop-color:#59472F"/>
</radialGradient>
<circle fill="url(#SVGID_1_)" cx="26" cy="25.4" r="14.6"/>
<path fill="#473926" d="M12.2,30.2c0,0,0.9,0.3,1,0.4c0.1,0,0.3,0.1,0.6,0.2c0.3,0.1,0.6,0.1,0.9,0.2c0.4,0.1,0.8,0.2,1.2,0.3
	c0.4,0.1,0.9,0.2,1.4,0.3c0.5,0.1,1.1,0.2,1.6,0.2c0.3,0,0.6,0.1,0.9,0.1c0.3,0,0.6,0.1,0.9,0.1c0.6,0,1.2,0.1,1.8,0.1
	c0.3,0,0.6,0,0.9,0c0.3,0,0.6,0,0.9,0c0.6,0,1.2,0,1.8,0c1.1,0,2.2-0.1,3.1-0.1c1.8-0.1,3-0.2,3-0.2s-1.2,0.1-3,0.2
	c-0.9,0.1-2,0.1-3.1,0.2c-0.6,0-1.2,0.1-1.8,0.1c-0.3,0-0.6,0-0.9,0c-0.3,0-0.6,0-0.9,0c-0.6,0-1.2,0-1.8,0c-0.3,0-0.6,0-0.9,0
	c-0.3,0-0.6,0-0.9-0.1c-0.6-0.1-1.1-0.1-1.6-0.2c-0.5-0.1-1-0.1-1.5-0.2c-0.5-0.1-0.9-0.2-1.2-0.2c-0.4-0.1-0.7-0.1-0.9-0.2
	c-0.3-0.1-0.5-0.1-0.6-0.1c-0.1,0-0.7-0.3-0.7-0.3L12.2,30.2z"/>
<path fill="#473926" d="M11.5,23.6c0,0,1.9,0.2,2.3,0.3c0.2,0,0.5,0.1,0.8,0.1c0.3,0,0.6,0.1,1,0.1c0.4,0.1,0.8,0.1,1.2,0.2
	c0.4,0.1,0.9,0.1,1.4,0.2c0.1,0,0.2,0,0.4,0c0.1,0,0.2,0,0.4,0c0.2,0,0.5,0,0.7,0.1c0.1,0,0.2,0,0.4,0c0.1,0,0.3,0,0.4,0
	c0.3,0,0.5,0,0.8,0l0.4,0c0.1,0,0.3,0,0.4,0c0.3,0,0.5,0,0.8,0c0.5,0,1,0,1.5,0c0.9,0,1.8,0,2.6,0.1c0.4,0,0.7,0,1,0
	c0.3,0,0.6,0,0.8,0c0.4,0,0.7,0,0.7,0s-0.3,0-0.7,0c-0.2,0-0.5,0-0.8,0c-0.3,0-0.7,0-1,0c-0.8,0-1.6,0-2.6,0c-0.5,0-1,0-1.5,0
	c-0.2,0-0.5,0-0.8,0c-0.1,0-0.3,0-0.4,0l-0.4,0c-0.3,0-0.5,0-0.8,0c-0.1,0-0.3,0-0.4,0c-0.1,0-0.3,0-0.4,0c-0.2,0-0.5,0-0.7,0
	c-0.1,0-0.2,0-0.4,0c-0.1,0-0.2,0-0.4,0c-0.5,0-0.9-0.1-1.4-0.1c-0.4,0-0.8-0.1-1.2-0.1c-0.4,0-0.7-0.1-1-0.1
	c-0.3,0-0.6-0.1-0.8-0.1c-0.4-0.1-2.3-0.3-2.3-0.3L11.5,23.6z"/>
<path fill="#473926" d="M40.6,26.8c0,0-1.4,0.2-1.5,0.2c-0.1,0-0.3,0-0.6,0.1c-0.3,0-0.6,0.1-0.9,0.1c-0.3,0-0.7,0.1-1.2,0.1
	c-0.4,0-0.9,0.1-1.4,0.1c-0.5,0-1,0.1-1.5,0.1c-0.5,0-1.1,0-1.7,0.1c-0.6,0-1.1,0-1.7,0c-0.6,0-1.1,0-1.7,0c-0.6,0-1.1,0-1.7,0
	c-1.1,0-2.1,0-2.9,0c-0.2,0-0.4,0-0.6,0c-0.2,0-0.4,0-0.6,0c-0.3,0-0.7,0-0.9,0c-0.5,0-0.8,0-0.8,0s0.3,0,0.8,0c0.3,0,0.6,0,0.9,0
	c0.2,0,0.4,0,0.6,0c0.2,0,0.4,0,0.6,0c0.9,0,1.9,0,2.9-0.1c0.5,0,1.1,0,1.7,0c0.6,0,1.1,0,1.7-0.1c0.6,0,1.1-0.1,1.7-0.1
	c0.6,0,1.1-0.1,1.6-0.1c0.5,0,1-0.1,1.5-0.1c0.5,0,0.9-0.1,1.4-0.1c0.4,0,0.8-0.1,1.2-0.1c0.3,0,0.6-0.1,0.9-0.1
	c0.2,0,0.4-0.1,0.6-0.1c0.1,0,1.6-0.3,1.6-0.3L40.6,26.8z"/>
<path fill="#473926" d="M49.9,38.2c0.6-1.2-2.3-4-9.9-8.6c-0.1,0.3-0.6,1.6-0.7,1.9c3.7,2.5,4.7,2.9,4.5,3.7c-0.4,1.8-10-2-20.3-7.2
	s-17.8-9.9-17-11.6c0.5-1,1.9-0.1,6.7,1.7c0.2-0.3,0.9-1.4,1.1-1.6c-9.1-3.8-13.7-4.6-14.3-3.4c-0.8,1.7,8.3,8.5,23.2,16
	S49.1,39.9,49.9,38.2z"/>
<path fill="#473926" d="M40,21.3C40,21.3,40,21.3,40,21.3C40,21.3,40,21.3,40,21.3c0.1,0.1,0.1,0.2,0.2,0.2c0,0.1,0,0.2,0,0.2
	c-0.1,0.1-0.2,0.2-0.3,0.2c-0.1,0-0.2,0.1-0.3,0.1c-0.4,0.1-1,0.2-1.6,0.2c-0.7,0-1.4,0.1-2.3,0.1c-0.4,0-0.8,0-1.3,0
	c-0.4,0-0.9,0-1.3,0c-1.8,0-3.5,0-4.9-0.1c-0.3,0-0.6,0-0.9,0c-0.3,0-0.5,0-0.7,0c-0.4,0-0.6,0-0.6,0s0.2,0,0.6,0c0.2,0,0.4,0,0.7,0
	c0.3,0,0.6,0,0.9,0c1.3,0,3.1-0.1,4.9-0.1c0.4,0,0.9,0,1.3,0c0.4,0,0.9,0,1.3-0.1c0.8,0,1.6-0.1,2.2-0.2c0.6-0.1,1.2-0.2,1.5-0.3
	c0.1,0,0.2-0.1,0.2-0.1c0,0,0.1-0.1,0,0L40,21.3z"/>
</svg>
