<?xml version="1.0" encoding="utf-8"?>
<!-- Generator: Adobe Illustrator 18.0.0, SVG Export Plug-In . SVG Version: 6.00 Build 0)  -->
<!DOCTYPE svg PUBLIC "-//W3C//DTD SVG 1.1//EN" "http://www.w3.org/Graphics/SVG/1.1/DTD/svg11.dtd">
<svg version="1.1" id="Layer_1" xmlns="http://www.w3.org/2000/svg" xmlns:xlink="http://www.w3.org/1999/xlink" x="0px" y="0px"
	 viewBox="0 0 50 50" enable-background="new 0 0 50 50" xml:space="preserve">
<radialGradient id="SVGID_1_" cx="34.25" cy="12.4375" r="44.1893" gradientUnits="userSpaceOnUse">
	<stop  offset="0" style="stop-color:#C2DCF3"/>
	<stop  offset="1" style="stop-color:#2FBAEC"/>
</radialGradient>
<circle fill="url(#SVGID_1_)" cx="23.8" cy="25.5" r="21.5"/>
<path fill="#FFFFFF" d="M49.7,5.6c-0.3-0.3-0.7-0.5-1.3-0.5c-2.1,0-6.4,2.2-10.1,4.5l0.5,0.4c5-3,7.6-4.3,9.6-4.3
	c0.4,0,0.7,0.1,0.9,0.3c0.6,0.7-0.4,3.2-4.8,8.3c-4,4.6-9.8,10-16.3,15.4C16.5,39.3,5.3,46.3,1.6,46.3c-0.4,0-0.7-0.1-0.9-0.3
	c-0.6-0.7,0.4-3.2,4.8-8.3c0.5-0.6-0.3,0.3,0.3-0.3l-0.3-0.5c-0.6,0.6,0.1-0.2-0.4,0.4c-4.2,4.8-5.9,7.9-4.9,9.1
	c0.3,0.3,0.7,0.5,1.3,0.5c3.8,0,15.1-7,26.8-16.7c6.5-5.4,12.4-10.9,16.4-15.5C49.1,9.9,50.7,6.8,49.7,5.6z"/>
</svg>
