<?xml version="1.0" encoding="utf-8"?>
<!-- Generator: Adobe Illustrator 18.0.0, SVG Export Plug-In . SVG Version: 6.00 Build 0)  -->
<!DOCTYPE svg PUBLIC "-//W3C//DTD SVG 1.1//EN" "http://www.w3.org/Graphics/SVG/1.1/DTD/svg11.dtd">
<svg version="1.1" id="Layer_1" xmlns="http://www.w3.org/2000/svg" xmlns:xlink="http://www.w3.org/1999/xlink" x="0px" y="0px"
	 viewBox="0 0 50 50" enable-background="new 0 0 50 50" xml:space="preserve">
<g>
	<path fill="#FFFFFF" d="M23.8,47c-5.7,0-11.1-2.2-15.2-6.3c-4.1-4.1-6.3-9.5-6.3-15.2s2.2-11.1,6.3-15.2C12.7,6.2,18.1,4,23.8,4
		S35,6.2,39,10.3c4.1,4.1,6.3,9.5,6.3,15.2S43.1,36.6,39,40.7C35,44.8,29.6,47,23.8,47z M23.8,6.8c-10.3,0-18.7,8.4-18.7,18.7
		c0,10.3,8.4,18.7,18.7,18.7c10.3,0,18.7-8.4,18.7-18.7C42.5,15.2,34.1,6.8,23.8,6.8z"/>
</g>
<path fill="#FFFFFF" d="M49.7,5.6c-0.3-0.3-0.7-0.5-1.3-0.5c-2.1,0-6.5,2.2-12,5.7l0.5,0.4c5.3-3.4,9.5-5.5,11.5-5.5
	c0.4,0,0.7,0.1,0.9,0.3c0.6,0.7-0.4,3.2-4.8,8.3c-4,4.6-9.8,10-16.3,15.4C16.5,39.3,5.3,46.3,1.6,46.3c-0.4,0-0.7-0.1-0.9-0.3
	c-0.6-0.7,0.4-3.2,4.8-8.3c0.5-0.6,1.1-1.2,1.7-1.8l-0.4-0.5c-0.6,0.6-1.2,1.3-1.7,1.9c-4.2,4.8-5.9,7.9-4.9,9.1
	c0.3,0.3,0.7,0.5,1.3,0.5c3.8,0,15.1-7,26.8-16.7c6.5-5.4,12.4-10.9,16.4-15.5C49.1,9.9,50.7,6.8,49.7,5.6z"/>
</svg>
