<?xml version="1.0" encoding="utf-8"?>
<!-- Generator: Adobe Illustrator 18.0.0, SVG Export Plug-In . SVG Version: 6.00 Build 0)  -->
<!DOCTYPE svg PUBLIC "-//W3C//DTD SVG 1.1//EN" "http://www.w3.org/Graphics/SVG/1.1/DTD/svg11.dtd">
<svg version="1.1" id="Layer_1" xmlns="http://www.w3.org/2000/svg" xmlns:xlink="http://www.w3.org/1999/xlink" x="0px" y="0px"
	 viewBox="0 0 50 50" enable-background="new 0 0 50 50" xml:space="preserve">
<radialGradient id="SVGID_1_" cx="37.875" cy="7.905" r="40.7686" gradientUnits="userSpaceOnUse">
	<stop  offset="0" style="stop-color:#F7941E"/>
	<stop  offset="1" style="stop-color:#F7771E"/>
</radialGradient>
<circle fill="url(#SVGID_1_)" cx="25" cy="25" r="21.4"/>
<path fill="#754C29" d="M42.4,7.6C37.8,2.9,31.6,0.3,25,0.3S12.2,2.9,7.6,7.6S0.3,18.4,0.3,25s2.6,12.8,7.2,17.4s10.9,7.2,17.4,7.2
	s12.8-2.6,17.4-7.2s7.2-10.9,7.2-17.4S47.1,12.2,42.4,7.6z M25,46.4c-4.4,0-8.5-1.3-11.9-3.6c0.4-0.3,0.8-0.6,1.3-0.9
	c0.3-0.2,0.5-0.4,0.8-0.6c0.3-0.2,0.5-0.4,0.8-0.6c0.1-0.1,0.3-0.2,0.4-0.3c0.1-0.1,0.3-0.2,0.4-0.4c0.1-0.1,0.1-0.1,0.2-0.2
	c0.1-0.1,0.1-0.1,0.2-0.2c0.1-0.1,0.3-0.3,0.4-0.4c0.1-0.1,0.3-0.3,0.4-0.4c0.1-0.1,0.3-0.3,0.4-0.5c0.1-0.2,0.3-0.3,0.4-0.5
	c0.1-0.2,0.3-0.3,0.4-0.5c0.5-0.6,1-1.2,1.5-1.8c1-1.2,2.1-2.4,3.2-3.4c0.5-0.5,1.1-1,1.6-1.4c0.5-0.4,1.1-0.8,1.6-1.1
	c0.5-0.3,1-0.6,1.4-0.8c0.2-0.1,0.4-0.2,0.6-0.3c0.2-0.1,0.4-0.1,0.5-0.2c0.3-0.1,0.6-0.2,0.8-0.3c0.2-0.1,0.3-0.1,0.3-0.1
	s-0.1,0-0.3,0c-0.2,0-0.5,0.1-0.8,0.2c-0.2,0-0.4,0.1-0.6,0.1c-0.2,0.1-0.4,0.1-0.7,0.2c-0.5,0.2-1,0.4-1.5,0.6
	c-0.6,0.3-1.1,0.6-1.8,0.9s-1.2,0.8-1.9,1.2c-1.3,0.9-2.5,1.9-3.7,3c-0.6,0.5-1.2,1.1-1.8,1.7c-0.1,0.1-0.3,0.3-0.4,0.4
	c-0.1,0.1-0.3,0.3-0.4,0.4c-0.1,0.1-0.3,0.2-0.4,0.3c-0.1,0.1-0.3,0.2-0.4,0.3c-0.1,0.1-0.3,0.2-0.4,0.3c-0.1,0.1-0.1,0.1-0.2,0.2
	c-0.1,0-0.1,0.1-0.2,0.1c-0.1,0.1-0.3,0.2-0.4,0.3c-0.1,0.1-0.3,0.2-0.4,0.3c-0.3,0.2-0.6,0.3-0.8,0.5c-0.3,0.2-0.5,0.3-0.8,0.4
	c-0.5,0.3-1,0.5-1.4,0.7c-0.3,0.2-0.7,0.3-0.9,0.5c-0.4-0.4-0.8-0.8-1.2-1.2c0.2-0.1,0.4-0.3,0.6-0.5c0.3-0.2,0.6-0.5,0.9-0.8
	c0.3-0.3,0.7-0.6,1-0.9c0.1-0.1,0.2-0.2,0.3-0.3c0.1-0.1,0.2-0.2,0.3-0.3c0.1-0.1,0.2-0.2,0.2-0.3c0.1-0.1,0.1-0.2,0.2-0.3
	c0.3-0.4,0.5-0.7,0.8-1.1c0.3-0.4,0.6-0.7,0.9-1c0.1-0.1,0.1-0.2,0.2-0.3c0.1-0.1,0.1-0.2,0.2-0.2c0.1-0.2,0.3-0.3,0.4-0.5
	c0.1-0.2,0.3-0.3,0.4-0.4c0.1-0.1,0.3-0.3,0.4-0.4c0.1-0.1,0.1-0.1,0.2-0.2c0.1-0.1,0.1-0.1,0.2-0.2c0.1-0.1,0.1-0.1,0.2-0.2
	s0.1-0.1,0.2-0.1c0.1-0.1,0.3-0.2,0.4-0.3c0.1-0.1,0.3-0.2,0.4-0.2c0.1-0.1,0.2-0.1,0.3-0.2c0.1-0.1,0.2-0.1,0.3-0.1
	c0.4-0.1,0.6-0.2,0.6-0.2s-0.2,0-0.6,0.1c-0.1,0-0.2,0-0.3,0.1c-0.1,0-0.3,0.1-0.4,0.1c-0.1,0-0.3,0.1-0.4,0.1
	c-0.2,0.1-0.3,0.1-0.5,0.2c-0.2,0.1-0.3,0.1-0.5,0.2c-0.1,0-0.2,0.1-0.3,0.1c-0.1,0-0.2,0.1-0.3,0.1c-0.2,0.1-0.4,0.2-0.6,0.3
	c-0.2,0.1-0.4,0.2-0.6,0.3c-0.2,0.1-0.4,0.2-0.6,0.4C14.1,32.9,14,33,13.9,33c-0.1,0.1-0.2,0.1-0.3,0.2c-0.4,0.3-0.8,0.6-1.1,0.9
	c-0.4,0.3-0.7,0.6-1.1,0.9c-0.1,0.1-0.2,0.2-0.3,0.2c-0.1,0.1-0.2,0.2-0.2,0.2c-0.1,0.1-0.1,0.1-0.2,0.2c-0.1,0.1-0.2,0.1-0.2,0.2
	c-0.3,0.2-0.7,0.4-1,0.6c-0.3,0.2-0.6,0.3-0.9,0.5c-0.4,0.2-0.7,0.3-1,0.5C5,33.9,3.6,29.6,3.6,25C3.6,13.2,13.2,3.6,25,3.6
	c2.1,0,4.2,0.3,6.1,0.9c-0.2,0.1-0.4,0.2-0.5,0.3c-1,0.5-2.1,1.1-3.3,1.6c-0.3,0.1-0.6,0.2-1,0.3c-0.3,0.1-0.6,0.2-1,0.3
	c-0.1,0-0.2,0-0.2,0.1L25,7c0,0-0.1,0-0.1,0c-0.2,0-0.4,0.1-0.5,0.1c-0.4,0.1-0.7,0.1-1.1,0.2c-0.7,0.1-1.5,0.3-2.2,0.5
	c-0.7,0.2-1.4,0.4-2,0.7c-0.6,0.3-1.2,0.6-1.8,0.9c-0.5,0.3-1,0.7-1.5,1s-0.8,0.7-1.1,1c-0.2,0.2-0.3,0.3-0.4,0.5
	c-0.1,0.1-0.2,0.3-0.3,0.4c-0.1,0.1-0.2,0.2-0.3,0.3c-0.1,0.1-0.1,0.2-0.2,0.3c-0.1,0.1-0.2,0.2-0.2,0.2s0.1-0.1,0.2-0.2
	c0.1-0.1,0.1-0.1,0.2-0.2c0.1-0.1,0.2-0.2,0.3-0.3c0.1-0.1,0.2-0.2,0.4-0.4c0.1-0.1,0.3-0.3,0.5-0.4c0.3-0.3,0.7-0.6,1.2-0.9
	s1-0.6,1.5-0.9c0.6-0.3,1.2-0.5,1.8-0.8c0.6-0.2,1.3-0.4,2-0.5c0.7-0.1,1.4-0.2,2.1-0.3c0.4,0,0.7-0.1,1.1-0.1c0.2,0,0.4,0,0.5,0
	l0.1,0l0.1,0c0.1,0,0.2,0,0.3,0c0.4-0.1,0.8-0.1,1.1-0.2c0.4-0.1,0.7-0.2,1-0.3c1.4-0.4,2.6-0.9,3.6-1.3c0.9-0.4,1.6-0.7,2.1-0.9
	c3.4,1.4,6.3,3.7,8.5,6.6c-0.4,0.2-0.8,0.4-1.2,0.6c-0.6,0.3-1.3,0.5-2,0.8c-0.8,0.3-1.6,0.5-2.5,0.7c-0.9,0.2-1.9,0.3-2.9,0.5
	c-1,0.1-2.1,0.3-3.3,0.5c-0.6,0.1-1.1,0.2-1.7,0.3c-0.6,0.1-1.1,0.2-1.7,0.4l-0.4,0.1L26,15.7l-0.2,0.1C25.5,15.9,25.3,16,25,16
	c-0.3,0.1-0.5,0.2-0.8,0.3c-0.1,0-0.3,0.1-0.4,0.1c-0.1,0-0.3,0.1-0.4,0.2c-0.3,0.1-0.5,0.2-0.8,0.3c-0.3,0.1-0.5,0.2-0.8,0.4
	c-0.1,0.1-0.3,0.1-0.4,0.2c-0.1,0.1-0.2,0.1-0.4,0.2c-0.2,0.1-0.5,0.3-0.7,0.4c-0.1,0-0.1,0.1-0.2,0.1L20,18.4
	c-0.1,0.1-0.2,0.1-0.3,0.2s-0.2,0.1-0.3,0.2l-0.2,0.1L19.1,19l0,0c0,0,0,0,0,0l0,0l0,0c-0.2,0.2-0.4,0.3-0.6,0.5
	c-0.2,0.1-0.4,0.3-0.6,0.5c-0.2,0.2-0.4,0.3-0.6,0.5l-0.1,0.1L17,20.6c-0.1,0.1-0.2,0.2-0.3,0.2s-0.2,0.2-0.3,0.2s-0.2,0.2-0.2,0.2
	c-0.2,0.2-0.3,0.3-0.5,0.5c-0.6,0.6-1.1,1.3-1.4,1.8c0,0.1-0.1,0.1-0.1,0.2c0,0.1-0.1,0.1-0.1,0.2c-0.1,0.1-0.2,0.3-0.2,0.4
	c-0.1,0.1-0.1,0.3-0.2,0.4c-0.1,0.1-0.1,0.2-0.1,0.4c-0.2,0.5-0.3,0.8-0.3,1.1c0,0.3,0,0.4,0,0.4s0-0.1,0.1-0.4
	c0.1-0.3,0.2-0.6,0.4-1.1c0.1-0.1,0.1-0.2,0.2-0.3c0.1-0.1,0.1-0.2,0.2-0.4c0.1-0.1,0.2-0.2,0.3-0.4c0-0.1,0.1-0.1,0.1-0.2
	c0.1-0.1,0.1-0.1,0.2-0.2c0.4-0.5,0.9-1.1,1.5-1.7c0.2-0.1,0.3-0.3,0.5-0.4c0.1-0.1,0.2-0.1,0.3-0.2s0.2-0.1,0.3-0.2
	s0.2-0.1,0.3-0.2l0.1-0.1c0,0,0.1-0.1,0.1-0.1c0.2-0.1,0.4-0.3,0.6-0.4c0.2-0.1,0.4-0.3,0.6-0.4s0.4-0.3,0.6-0.4l0,0l0,0
	c0,0,0,0,0,0l0,0l0.1,0l0.2-0.1c0.1-0.1,0.2-0.1,0.3-0.2s0.2-0.1,0.3-0.2l0.2-0.1c0.1,0,0.1-0.1,0.2-0.1c0.2-0.1,0.5-0.2,0.7-0.3
	c0.1-0.1,0.2-0.1,0.4-0.2c0.1,0,0.2-0.1,0.4-0.1c0.2-0.1,0.5-0.2,0.7-0.3c0.3-0.1,0.5-0.2,0.8-0.2c0.1,0,0.3-0.1,0.4-0.1
	c0.1,0,0.3-0.1,0.4-0.1c0.3-0.1,0.5-0.1,0.8-0.2c0.3-0.1,0.5-0.1,0.8-0.2l0.2,0l0.2,0l0.4-0.1c0.5-0.1,1.1-0.2,1.6-0.2
	c0.5-0.1,1.1-0.1,1.6-0.2c1.1-0.1,2.2-0.1,3.2-0.2c1,0,2.1-0.1,3.1-0.2c1-0.1,2-0.3,2.8-0.5c0.9-0.2,1.7-0.4,2.3-0.7
	c0.7-0.2,1.3-0.5,1.8-0.7c0,0,0.1,0,0.1-0.1c0.8,1.4,1.4,2.8,1.9,4.4c-0.2,0.1-0.3,0.2-0.5,0.3c-0.4,0.2-0.8,0.4-1.2,0.6
	c-0.4,0.2-0.9,0.4-1.4,0.6c-0.1,0-0.3,0.1-0.4,0.1c-0.1,0-0.3,0.1-0.4,0.1c-0.1,0-0.3,0.1-0.4,0.1c-0.1,0-0.1,0-0.2,0l-0.1,0l0,0
	c0,0,0,0,0,0l0,0l0,0l-0.1,0c-0.2,0-0.3,0-0.5,0c-0.1,0-0.1,0-0.2,0c-0.1,0-0.2,0-0.2,0c-0.3,0-0.6,0-1,0c-0.7,0-1.4,0-2.1,0
	c-0.4,0-0.7,0-1.1,0c-0.4,0-0.7,0-1.1,0c-0.3,0-0.7,0-1,0.1c-0.2,0-0.3,0-0.5,0.1c-0.2,0-0.3,0-0.5,0.1c-0.2,0-0.3,0.1-0.5,0.1
	c-0.2,0-0.3,0.1-0.5,0.1c-0.3,0.1-0.6,0.2-0.9,0.3l-0.1,0l0,0l0,0l-0.1,0c-0.1,0-0.1,0-0.2,0.1c-0.1,0-0.3,0.1-0.4,0.1
	c-0.3,0.1-0.5,0.2-0.8,0.3c-0.5,0.2-0.9,0.4-1.3,0.7c-0.4,0.2-0.7,0.4-0.9,0.7c-0.2,0.2-0.4,0.4-0.5,0.5c-0.1,0.1-0.1,0.2-0.1,0.2
	s0-0.1,0.2-0.2c0.1-0.1,0.3-0.3,0.5-0.4s0.6-0.3,1-0.5c0.4-0.2,0.8-0.3,1.3-0.5c0.2-0.1,0.5-0.1,0.8-0.2c0.1,0,0.3-0.1,0.4-0.1
	c0.1,0,0.1,0,0.2,0l0.1,0l0,0c0,0,0,0,0,0l0.1,0c0.3,0,0.6-0.1,0.9-0.1c0.2,0,0.3,0,0.5,0c0.2,0,0.3,0,0.5,0c0.2,0,0.3,0,0.5,0
	c0.2,0,0.3,0,0.5,0c0.3,0,0.7,0,1,0.1c0.3,0,0.7,0.1,1,0.1c0.3,0,0.7,0.1,1,0.1c0.7,0.1,1.3,0.2,2,0.3c0.3,0.1,0.7,0.1,1,0.2
	c0.1,0,0.2,0,0.3,0c0.1,0,0.2,0,0.3,0c0.2,0,0.4,0,0.5,0l0.1,0l0,0h0l0,0l0,0l0.1,0c0.1,0,0.2,0,0.3,0c0.2,0,0.4,0,0.5-0.1
	c0.2,0,0.3-0.1,0.5-0.1c0.2,0,0.3-0.1,0.5-0.1c0.6-0.1,1.2-0.3,1.7-0.5c0.5-0.2,1-0.3,1.4-0.5c0.2,1,0.2,2.1,0.2,3.2
	C46.4,36.8,36.8,46.4,25,46.4z"/>
<path fill="none" stroke="#49FC4D" stroke-linecap="round" stroke-miterlimit="10" d="M16.7,43.4c0,0,5.2-1.3,10.8-8.9
	S30.6,20,38.3,22.4c4.3,1.3,1.3,5.5-0.1,6c-1.3,0.5-2.9-0.9-2.3-3.4"/>
<path fill="none" stroke="#49FC4D" stroke-linecap="round" stroke-miterlimit="10" d="M16.1,36.2c0,0,4.2-0.8,7.9-4s5.5-7.8,5.5-7.8
	"/>
<path fill="none" stroke="#49FC4D" stroke-linecap="round" stroke-miterlimit="10" d="M22.8,44.2c0,0,6.3-2.3,9.1-6.6s3-6.1,3-6.1"
	/>
<path fill="none" stroke="#49FC4D" stroke-linecap="round" stroke-miterlimit="10" d="M6.6,23.1c0,0,6.3-2.3,9.1-6.6s3-6.1,3-6.1"/>
</svg>
