<?xml version="1.0" encoding="utf-8"?>
<!-- Generator: Adobe Illustrator 17.0.0, SVG Export Plug-In . SVG Version: 6.00 Build 0)  -->
<!DOCTYPE svg PUBLIC "-//W3C//DTD SVG 1.1//EN" "http://www.w3.org/Graphics/SVG/1.1/DTD/svg11.dtd">
<svg version="1.1" id="Layer_1" xmlns="http://www.w3.org/2000/svg" xmlns:xlink="http://www.w3.org/1999/xlink" x="0px" y="0px"
	 width="50px" height="50px" viewBox="0 0 50 50" enable-background="new 0 0 50 50" xml:space="preserve">
<path fill="#FFFFFF" d="M42.442,7.558C37.783,2.899,31.589,0.333,25,0.333S12.217,2.899,7.558,7.558
	C2.899,12.217,0.333,18.411,0.333,25s2.566,12.783,7.225,17.442c4.659,4.659,10.853,7.225,17.442,7.225s12.783-2.566,17.442-7.225
	c4.659-4.659,7.225-10.853,7.225-17.442S47.101,12.217,42.442,7.558z M25,46.435c-4.41,0-8.513-1.339-11.924-3.632
	c0.387-0.262,0.811-0.558,1.268-0.888c0.252-0.181,0.511-0.377,0.78-0.577c0.266-0.209,0.544-0.414,0.821-0.644
	c0.139-0.113,0.281-0.228,0.424-0.345c0.141-0.121,0.283-0.244,0.427-0.368c0.072-0.062,0.144-0.125,0.216-0.188
	c0.071-0.066,0.143-0.132,0.215-0.198c0.143-0.135,0.29-0.263,0.433-0.406c0.142-0.143,0.286-0.288,0.431-0.433
	c0.143-0.149,0.282-0.312,0.423-0.468c0.149-0.162,0.262-0.309,0.389-0.462c0.125-0.153,0.25-0.306,0.376-0.46
	c0.499-0.612,1.002-1.227,1.519-1.829c1.03-1.205,2.11-2.361,3.203-3.362c0.545-0.501,1.092-0.964,1.629-1.379
	c0.537-0.416,1.065-0.783,1.57-1.097c0.505-0.313,0.981-0.582,1.419-0.789c0.216-0.112,0.426-0.196,0.618-0.284
	c0.194-0.082,0.374-0.15,0.537-0.215c0.329-0.116,0.59-0.206,0.772-0.255c0.181-0.053,0.277-0.081,0.277-0.081
	s-0.099,0.016-0.285,0.046c-0.187,0.025-0.458,0.082-0.804,0.157c-0.171,0.045-0.362,0.09-0.567,0.148
	c-0.203,0.064-0.428,0.123-0.66,0.208c-0.471,0.155-0.989,0.367-1.545,0.621c-0.556,0.255-1.145,0.563-1.75,0.92
	c-0.605,0.357-1.227,0.761-1.852,1.205c-1.252,0.886-2.512,1.935-3.718,3.031c-0.604,0.547-1.194,1.107-1.768,1.654
	c-0.142,0.136-0.284,0.271-0.426,0.405c-0.141,0.132-0.286,0.276-0.416,0.383c-0.135,0.115-0.261,0.231-0.398,0.342
	c-0.14,0.109-0.279,0.217-0.417,0.325c-0.137,0.107-0.287,0.207-0.427,0.309c-0.071,0.051-0.141,0.101-0.211,0.151
	c-0.073,0.048-0.145,0.096-0.217,0.144c-0.144,0.095-0.286,0.19-0.427,0.283c-0.144,0.09-0.287,0.179-0.428,0.266
	c-0.278,0.177-0.564,0.337-0.831,0.498c-0.274,0.154-0.537,0.306-0.794,0.445c-0.513,0.28-0.988,0.53-1.414,0.743
	c-0.344,0.175-0.654,0.326-0.923,0.455c-0.402-0.368-0.79-0.752-1.164-1.15c0.183-0.138,0.38-0.288,0.588-0.452
	c0.289-0.229,0.599-0.482,0.922-0.766c0.323-0.279,0.657-0.597,0.994-0.945c0.083-0.09,0.167-0.182,0.252-0.274
	c0.084-0.094,0.167-0.198,0.25-0.298c0.09-0.105,0.151-0.193,0.22-0.284c0.068-0.091,0.137-0.183,0.205-0.276
	c0.276-0.372,0.547-0.735,0.828-1.097c0.281-0.358,0.565-0.714,0.858-1.05c0.073-0.084,0.146-0.169,0.219-0.252
	c0.075-0.081,0.149-0.162,0.222-0.243c0.146-0.164,0.297-0.317,0.446-0.468c0.147-0.155,0.3-0.295,0.449-0.436
	c0.147-0.144,0.299-0.271,0.448-0.398c0.074-0.063,0.147-0.128,0.22-0.187c0.075-0.058,0.149-0.114,0.221-0.17
	c0.073-0.056,0.145-0.111,0.215-0.166c0.07-0.055,0.144-0.1,0.214-0.149c0.142-0.093,0.275-0.192,0.409-0.271
	c0.135-0.078,0.264-0.153,0.384-0.222c0.12-0.075,0.241-0.121,0.349-0.177c0.11-0.052,0.211-0.101,0.303-0.144
	c0.381-0.142,0.599-0.223,0.599-0.223s-0.232,0.033-0.639,0.09c-0.1,0.023-0.212,0.049-0.333,0.077
	c-0.12,0.031-0.257,0.052-0.392,0.101c-0.138,0.044-0.286,0.091-0.441,0.14c-0.155,0.051-0.311,0.12-0.479,0.185
	c-0.169,0.063-0.338,0.143-0.513,0.226c-0.088,0.041-0.177,0.083-0.268,0.126c-0.09,0.045-0.178,0.094-0.269,0.143
	c-0.182,0.097-0.371,0.196-0.554,0.31c-0.186,0.111-0.379,0.223-0.565,0.349c-0.189,0.123-0.382,0.248-0.57,0.383
	c-0.095,0.067-0.19,0.134-0.286,0.202c-0.094,0.07-0.188,0.14-0.283,0.211c-0.381,0.282-0.753,0.583-1.122,0.887
	c-0.366,0.304-0.73,0.619-1.074,0.918c-0.087,0.075-0.173,0.15-0.259,0.224c-0.086,0.074-0.174,0.155-0.246,0.205
	c-0.077,0.057-0.147,0.115-0.225,0.171c-0.08,0.055-0.16,0.111-0.238,0.165c-0.327,0.214-0.657,0.415-0.988,0.593
	c-0.327,0.18-0.647,0.342-0.945,0.487c-0.373,0.18-0.712,0.334-1.002,0.461C5.024,33.873,3.565,29.604,3.565,25
	C3.565,13.181,13.181,3.565,25,3.565c2.135,0,4.198,0.315,6.146,0.899c-0.176,0.094-0.358,0.191-0.549,0.29
	c-0.962,0.499-2.098,1.064-3.341,1.561c-0.311,0.124-0.628,0.243-0.95,0.349c-0.322,0.108-0.649,0.204-0.975,0.277
	c-0.082,0.02-0.163,0.036-0.244,0.05l-0.122,0.022c-0.042,0.008-0.089,0.014-0.133,0.02c-0.181,0.027-0.363,0.055-0.545,0.082
	c-0.365,0.056-0.733,0.119-1.1,0.188c-0.733,0.138-1.464,0.306-2.172,0.513c-0.708,0.206-1.393,0.45-2.036,0.731
	c-0.644,0.279-1.247,0.591-1.794,0.925c-0.547,0.334-1.041,0.686-1.472,1.039c-0.431,0.353-0.804,0.7-1.119,1.022
	c-0.156,0.163-0.299,0.317-0.428,0.462c-0.126,0.149-0.245,0.282-0.345,0.407c-0.1,0.126-0.189,0.239-0.266,0.337
	c-0.076,0.099-0.137,0.187-0.188,0.256c-0.101,0.139-0.155,0.213-0.155,0.213s0.06-0.07,0.172-0.2
	c0.056-0.065,0.124-0.147,0.207-0.239c0.085-0.091,0.182-0.196,0.291-0.313c0.11-0.117,0.238-0.239,0.374-0.376
	c0.139-0.133,0.293-0.274,0.459-0.421c0.335-0.292,0.728-0.603,1.175-0.913c0.447-0.31,0.953-0.613,1.508-0.893
	c0.554-0.28,1.158-0.533,1.797-0.751c0.638-0.219,1.312-0.401,2.006-0.543c0.693-0.144,1.406-0.249,2.124-0.325
	c0.359-0.038,0.719-0.07,1.08-0.097c0.181-0.013,0.362-0.025,0.542-0.038l0.137-0.01l0.148-0.014
	c0.099-0.008,0.197-0.019,0.292-0.034c0.385-0.051,0.755-0.127,1.113-0.214c0.359-0.085,0.707-0.183,1.046-0.285
	c1.355-0.412,2.568-0.892,3.601-1.32c0.852-0.355,1.575-0.679,2.135-0.937c3.361,1.441,6.282,3.718,8.501,6.567
	c-0.353,0.18-0.763,0.379-1.226,0.587c-0.591,0.267-1.271,0.536-2.024,0.793c-0.753,0.254-1.581,0.497-2.468,0.673
	c-0.924,0.181-1.884,0.315-2.936,0.46c-1.043,0.141-2.14,0.289-3.253,0.478c-0.556,0.089-1.118,0.203-1.68,0.312
	c-0.561,0.129-1.125,0.243-1.684,0.4l-0.419,0.111l-0.209,0.056l-0.208,0.064c-0.276,0.086-0.552,0.172-0.827,0.257
	c-0.275,0.086-0.544,0.194-0.814,0.289c-0.135,0.049-0.269,0.098-0.404,0.147c-0.135,0.048-0.265,0.11-0.396,0.163
	c-0.262,0.111-0.524,0.222-0.783,0.333c-0.256,0.119-0.507,0.248-0.758,0.37c-0.125,0.062-0.25,0.123-0.374,0.185
	c-0.125,0.059-0.242,0.135-0.362,0.201c-0.239,0.137-0.475,0.273-0.71,0.407c-0.058,0.034-0.118,0.066-0.174,0.102l-0.168,0.111
	c-0.112,0.074-0.223,0.148-0.334,0.221c-0.111,0.073-0.22,0.146-0.33,0.219l-0.163,0.109l-0.081,0.054l-0.02,0.013
	c-0.001,0.001-0.025,0.017-0.019,0.013l-0.01,0.007l-0.038,0.029c-0.203,0.153-0.404,0.304-0.602,0.453
	c-0.198,0.149-0.395,0.293-0.585,0.459c-0.19,0.159-0.377,0.317-0.562,0.471l-0.137,0.115l-0.129,0.121
	c-0.086,0.081-0.171,0.161-0.255,0.24c-0.084,0.079-0.168,0.158-0.251,0.236c-0.083,0.078-0.166,0.153-0.241,0.237
	c-0.154,0.162-0.304,0.321-0.452,0.477c-0.574,0.637-1.064,1.255-1.429,1.848c-0.047,0.073-0.093,0.145-0.139,0.215
	c-0.041,0.073-0.082,0.145-0.122,0.216c-0.078,0.143-0.159,0.276-0.225,0.411c-0.065,0.135-0.127,0.265-0.186,0.39
	c-0.059,0.124-0.102,0.249-0.15,0.363c-0.179,0.464-0.28,0.841-0.323,1.103c-0.046,0.261-0.048,0.402-0.048,0.402
	s0.015-0.141,0.083-0.395c0.065-0.254,0.199-0.618,0.414-1.055c0.057-0.108,0.11-0.225,0.178-0.341
	c0.069-0.116,0.14-0.237,0.215-0.363c0.076-0.125,0.167-0.249,0.255-0.38c0.045-0.065,0.09-0.131,0.137-0.199
	c0.05-0.065,0.102-0.13,0.154-0.197c0.404-0.543,0.933-1.098,1.541-1.662c0.156-0.137,0.315-0.278,0.477-0.42
	c0.079-0.073,0.166-0.139,0.253-0.207c0.087-0.068,0.174-0.136,0.262-0.205c0.088-0.069,0.177-0.139,0.266-0.209l0.135-0.105
	c0.047-0.033,0.094-0.065,0.141-0.098c0.188-0.131,0.379-0.264,0.572-0.399c0.188-0.137,0.399-0.265,0.61-0.396
	c0.211-0.131,0.424-0.264,0.64-0.398l0.04-0.025l0.01-0.006c0.012-0.008-0.005,0.004,0.001,0l0.021-0.011l0.082-0.045l0.165-0.089
	c0.11-0.06,0.221-0.12,0.332-0.18c0.111-0.06,0.223-0.121,0.335-0.181l0.168-0.091c0.057-0.03,0.116-0.054,0.174-0.082
	c0.234-0.107,0.469-0.216,0.706-0.325c0.119-0.052,0.235-0.114,0.358-0.159c0.123-0.047,0.245-0.095,0.369-0.142
	c0.247-0.094,0.492-0.194,0.743-0.284c0.254-0.082,0.509-0.164,0.766-0.247c0.129-0.04,0.254-0.086,0.386-0.12
	c0.131-0.035,0.262-0.069,0.393-0.104c0.263-0.067,0.522-0.145,0.789-0.203c0.266-0.057,0.533-0.115,0.8-0.172l0.2-0.043
	l0.203-0.035l0.405-0.069c0.537-0.101,1.085-0.161,1.626-0.235c0.546-0.056,1.087-0.117,1.631-0.154
	c1.085-0.086,2.159-0.134,3.217-0.181c1.048-0.049,2.12-0.102,3.108-0.206c1.026-0.11,1.979-0.298,2.848-0.507
	c0.868-0.211,1.653-0.444,2.337-0.681c0.685-0.235,1.275-0.465,1.757-0.667c0.047-0.02,0.092-0.039,0.137-0.059
	c0.78,1.374,1.412,2.843,1.876,4.383c-0.156,0.085-0.324,0.175-0.505,0.271c-0.361,0.191-0.77,0.402-1.219,0.617
	c-0.448,0.219-0.936,0.438-1.447,0.644c-0.127,0.048-0.259,0.105-0.387,0.149c-0.128,0.044-0.26,0.093-0.39,0.135
	c-0.125,0.035-0.258,0.078-0.382,0.111c-0.059,0.013-0.118,0.026-0.178,0.04l-0.09,0.021l-0.011,0.003
	c0.016-0.001-0.043,0.003,0.034-0.001l-0.008,0.001l-0.03,0.003l-0.06,0.007c-0.159,0.017-0.337,0.04-0.456,0.044
	c-0.067,0.005-0.134,0.009-0.202,0.014c-0.066,0.006-0.153,0.004-0.228,0.007c-0.311,0.009-0.642,0.004-0.976,0
	c-0.67-0.012-1.37-0.036-2.074-0.044c-0.351-0.007-0.707-0.003-1.058-0.002c-0.355,0.01-0.705,0.013-1.057,0.035
	c-0.35,0.013-0.699,0.046-1.041,0.076c-0.171,0.014-0.343,0.041-0.512,0.061c-0.169,0.022-0.337,0.04-0.503,0.072
	c-0.166,0.029-0.33,0.058-0.492,0.086c-0.162,0.029-0.322,0.072-0.48,0.107c-0.316,0.065-0.62,0.165-0.915,0.252l-0.11,0.033
	l-0.033,0.01l-0.026,0.009l-0.052,0.019c-0.069,0.025-0.138,0.05-0.206,0.074c-0.137,0.05-0.269,0.095-0.403,0.147
	c-0.267,0.109-0.529,0.205-0.768,0.318c-0.485,0.21-0.914,0.442-1.282,0.664c-0.368,0.221-0.669,0.448-0.9,0.651
	c-0.232,0.203-0.392,0.384-0.489,0.516c-0.098,0.132-0.132,0.213-0.132,0.213s0.046-0.075,0.16-0.189
	c0.113-0.115,0.294-0.267,0.545-0.429c0.251-0.162,0.569-0.337,0.953-0.496c0.383-0.161,0.823-0.321,1.317-0.454
	c0.244-0.075,0.503-0.128,0.767-0.194c0.134-0.031,0.276-0.057,0.417-0.086c0.071-0.014,0.142-0.029,0.214-0.043l0.054-0.011
	l0.027-0.005c-0.004,0.001,0.014-0.002,0.02-0.003l0.107-0.016c0.285-0.04,0.574-0.092,0.877-0.108
	c0.151-0.011,0.301-0.029,0.455-0.034c0.154-0.004,0.31-0.008,0.467-0.013c0.156-0.008,0.315-0.001,0.475,0.002
	c0.16,0.005,0.319,0.003,0.482,0.013c0.324,0.02,0.651,0.036,0.982,0.072c0.329,0.027,0.664,0.073,0.997,0.113
	c0.335,0.049,0.67,0.094,1.008,0.15c0.675,0.106,1.35,0.23,2.035,0.343c0.344,0.055,0.686,0.111,1.041,0.153
	c0.091,0.01,0.169,0.024,0.27,0.032c0.098,0.008,0.196,0.016,0.294,0.024c0.209,0.018,0.359,0.02,0.523,0.026l0.061,0.002
	l0.03,0.001l0.008,0l0.049-0.003l0.019-0.001l0.149-0.009c0.1-0.007,0.199-0.014,0.298-0.02c0.19-0.019,0.365-0.048,0.546-0.072
	c0.174-0.029,0.339-0.063,0.507-0.095c0.168-0.031,0.321-0.072,0.479-0.107c0.623-0.15,1.192-0.313,1.708-0.477
	c0.517-0.161,0.983-0.321,1.394-0.466c0.157,1.046,0.24,2.116,0.24,3.205C46.435,36.819,36.819,46.435,25,46.435z"/>
</svg>
